<?xml version="1.0" encoding="utf-8" standalone="no"?>
<!DOCTYPE svg PUBLIC "-//W3C//DTD SVG 1.1//EN"
  "http://www.w3.org/Graphics/SVG/1.1/DTD/svg11.dtd">
<!-- Created with matplotlib (http://matplotlib.org/) -->
<svg height="648pt" version="1.1" viewBox="0 0 1152 648" width="1152pt" xmlns="http://www.w3.org/2000/svg" xmlns:xlink="http://www.w3.org/1999/xlink">
 <defs>
  <style type="text/css">
*{stroke-linecap:butt;stroke-linejoin:round;}
  </style>
 </defs>
 <g id="figure_1">
  <g id="patch_1">
   <path d="
M0 648
L1152 648
L1152 0
L0 0
z
" style="fill:#ffffff;"/>
  </g>
  <g id="axes_1">
   <g id="patch_2">
    <path d="
M144 567
L1036.8 567
L1036.8 64.8
L144 64.8
z
" style="fill:#ffffff;"/>
   </g>
   <g id="patch_3">
    <path clip-path="url(#p380bbe8dbe)" d="
M-168.02 49524.5
M-1 321.662
L9.62021 321.662
L9.62021 284.605
L22.1322 284.605
L22.1322 250.861
L33.8855 250.861
L33.8855 259.406
L44.9667 259.406
L44.9667 235.635
L55.4487 235.635
L55.4487 231.437
L65.3929 231.437
L65.3929 241.651
L74.8518 241.651
L74.8518 230.091
L83.8706 230.091
L83.8706 254.532
L92.4884 254.532
L92.4884 270.297
L100.739 270.297
L100.739 270.297
L108.653 270.297
L108.653 290.621
L116.257 290.621
L116.257 338.038
L123.574 338.038
L123.574 363.677
L130.624 363.677
L130.624 347.912
L137.428 347.912
L137.428 404.326
L144 404.326
L144 481.941
L150.357 481.941
L150.357 461.617
L156.512 461.617
L156.512 510.587
L162.478 510.587
L162.478 481.941
L168.265 481.941
L168.265 649" style="fill:none;opacity:0.7;stroke:#699534;stroke-linejoin:miter;stroke-width:3;"/>
   </g>
   <g id="patch_4">
    <path clip-path="url(#p380bbe8dbe)" d="
M345.906 49524.5
M345.906 649
L345.906 559.556
L348.173 559.556
L348.173 481.941
L350.414 481.941
L350.414 422.081
L352.63 422.081
L352.63 344.465
L354.821 344.465
L354.821 347.912
L356.987 347.912
L356.987 272.692
L359.129 272.692
L359.129 243.239
L361.248 243.239
L361.248 207.957
L363.344 207.957
L363.344 172.652
L365.417 172.652
L365.417 147.958
L367.469 147.958
L367.469 122.51
L369.499 122.51
L369.499 100.462
L371.508 100.462
L371.508 94.7419
L373.496 94.7419
L373.496 79.1343
L375.465 79.1343
L375.465 79.6871
L377.413 79.6871
L377.413 73.7583
L379.342 73.7583
L379.342 82.6009
L381.252 82.6009
L381.252 85.3817
L383.144 85.3817
L383.144 94.8401
L385.017 94.8401
L385.017 106.224
L386.872 106.224
L386.872 122.22
L388.71 122.22
L388.71 147.542
L390.53 147.542
L390.53 179.474
L392.333 179.474
L392.333 199.258
L394.12 199.258
L394.12 229.428
L395.891 229.428
L395.891 276.444
L397.645 276.444
L397.645 316.95
L399.384 316.95
L399.384 341.179
L401.107 341.179
L401.107 422.081
L402.815 422.081
L402.815 432.971
L404.509 432.971
L404.509 481.941
L406.187 481.941
L406.187 510.587
L407.851 510.587
L407.851 649" style="fill:none;opacity:0.7;stroke:#3d5a92;stroke-linejoin:miter;stroke-width:3;"/>
   </g>
   <g id="patch_5">
    <path clip-path="url(#p380bbe8dbe)" d="
M377.413 649
L377.413 185.948
L379.342 185.948
L379.342 184.535
L381.252 184.535
L381.252 193.471
L383.144 193.471
L383.144 200.563
L385.017 200.563
L385.017 193.869
L386.872 193.869
L386.872 195.484
L388.71 195.484
L388.71 198.829
L390.53 198.829
L390.53 203.246
L392.333 203.246
L392.333 207.472
L394.12 207.472
L394.12 206.99
L395.891 206.99
L395.891 205.093
L397.645 205.093
L397.645 206.99
L399.384 206.99
L399.384 218.443
L401.107 218.443
L401.107 216.218
L402.815 216.218
L402.815 213.531
L404.509 213.531
L404.509 224.951
L406.187 224.951
L406.187 219.011
L407.851 219.011
L407.851 216.768
L411.137 216.768
L411.137 224.334
L412.76 224.334
L412.76 228.771
L414.368 228.771
L414.368 239.335
L415.964 239.335
L415.964 229.428
L417.547 229.428
L417.547 226.835
L419.117 226.835
L419.117 243.239
L420.674 243.239
L420.674 226.201
L422.218 226.201
L422.218 230.761
L423.751 230.761
L423.751 240.099
L425.272 240.099
L425.272 236.36
L426.78 236.36
L426.78 234.208
L428.277 234.208
L428.277 245.69
L429.763 245.69
L429.763 234.208
L431.237 234.208
L431.237 249.973
L432.7 249.973
L432.7 254.532
L435.594 254.532
L435.594 247.372
L438.445 247.372
L438.445 240.099
L439.855 240.099
L439.855 250.861
L441.255 250.861
L441.255 253.596
L442.645 253.596
L442.645 275.171
L444.024 275.171
L444.024 250.861
L445.395 250.861
L445.395 260.423
L446.755 260.423
L446.755 266.85
L449.448 266.85
L449.448 264.642
L450.78 264.642
L450.78 259.406
L452.104 259.406
L452.104 292.209
L453.418 292.209
L453.418 267.98
L454.723 267.98
L454.723 273.921
L456.02 273.921
L456.02 281.779
L457.308 281.779
L457.308 284.605
L458.588 284.605
L458.588 272.692
L459.859 272.692
L459.859 263.563
L461.122 263.563
L461.122 277.74
L462.377 277.74
L462.377 279.061
L463.624 279.061
L463.624 290.621
L464.863 290.621
L464.863 304.45
L466.094 304.45
L466.094 280.407
L467.317 280.407
L467.317 271.484
L468.532 271.484
L468.532 281.779
L469.74 281.779
L469.74 289.068
L470.941 289.068
L470.941 276.444
L472.134 276.444
L472.134 289.068
L473.319 289.068
L473.319 266.85
L474.498 266.85
L474.498 293.833
L475.669 293.833
L475.669 298.942
L476.834 298.942
L476.834 290.621
L477.991 290.621
L477.991 287.549
L479.142 287.549
L479.142 298.942
L480.285 298.942
L480.285 312.533
L482.553 312.533
L482.553 297.198
L483.677 297.198
L483.677 321.662
L484.794 321.662
L484.794 310.424
L485.905 310.424
L485.905 321.662
L487.01 321.662
L487.01 298.942
L488.108 298.942
L488.108 319.267
L489.201 319.267
L489.201 306.386
L490.287 306.386
L490.287 289.068
L491.367 289.068
L491.367 306.386
L492.441 306.386
L492.441 314.707
L493.509 314.707
L493.509 324.141
L495.628 324.141
L495.628 335.032
L496.679 335.032
L496.679 304.45
L497.724 304.45
L497.724 324.141
L498.763 324.141
L498.763 332.148
L499.797 332.148
L499.797 304.45
L500.826 304.45
L500.826 321.662
L501.849 321.662
L501.849 329.377
L502.866 329.377
L502.866 314.707
L503.879 314.707
L503.879 341.179
L504.886 341.179
L504.886 314.707
L505.888 314.707
L505.888 310.424
L506.885 310.424
L506.885 329.377
L507.876 329.377
L507.876 300.731
L508.863 300.731
L508.863 355.356
L509.844 355.356
L509.844 321.662
L510.821 321.662
L510.821 314.707
L511.793 314.707
L511.793 338.038
L512.76 338.038
L512.76 363.677
L513.722 363.677
L513.722 335.032
L514.679 335.032
L514.679 355.356
L515.632 355.356
L515.632 351.536
L516.58 351.536
L516.58 347.912
L517.523 347.912
L517.523 310.424
L518.462 310.424
L518.462 314.707
L519.397 314.707
L519.397 351.536
L520.326 351.536
L520.326 338.038
L521.252 338.038
L521.252 332.148
L522.173 332.148
L522.173 338.038
L523.089 338.038
L523.089 363.677
L524.002 363.677
L524.002 344.465
L526.713 344.465
L526.713 326.71
L527.609 326.71
L527.609 378.346
L528.5 378.346
L528.5 373.111
L529.387 373.111
L529.387 347.912
L530.271 347.912
L530.271 368.237
L531.15 368.237
L531.15 378.346
L532.025 378.346
L532.025 390.149
L532.896 390.149
L532.896 355.356
L534.627 355.356
L534.627 378.346
L535.487 378.346
L535.487 390.149
L536.343 390.149
L536.343 359.394
L537.195 359.394
L537.195 368.237
L538.044 368.237
L538.044 351.536
L538.888 351.536
L538.888 359.394
L539.729 359.394
L539.729 368.237
L540.567 368.237
L540.567 384.001
L541.401 384.001
L541.401 396.882
L542.231 396.882
L542.231 359.394
L543.881 359.394
L543.881 373.111
L544.701 373.111
L544.701 396.882
L545.517 396.882
L545.517 351.536
L546.33 351.536
L546.33 396.882
L547.139 396.882
L547.139 390.149
L547.945 390.149
L547.945 396.882
L548.748 396.882
L548.748 368.237
L549.548 368.237
L549.548 384.001
L550.344 384.001
L550.344 368.237
L551.137 368.237
L551.137 404.326
L551.927 404.326
L551.927 396.882
L552.713 396.882
L552.713 368.237
L553.496 368.237
L553.496 412.647
L554.276 412.647
L554.276 359.394
L555.053 359.394
L555.053 373.111
L555.827 373.111
L555.827 355.356
L556.598 355.356
L556.598 384.001
L557.366 384.001
L557.366 412.647
L558.131 412.647
L558.131 355.356
L558.893 355.356
L558.893 384.001
L559.651 384.001
L559.651 390.149
L560.407 390.149
L560.407 373.111
L561.16 373.111
L561.16 412.647
L561.91 412.647
L561.91 384.001
L562.657 384.001
L562.657 404.326
L563.401 404.326
L563.401 432.971
L564.143 432.971
L564.143 396.882
L564.881 396.882
L564.881 404.326
L565.617 404.326
L565.617 390.149
L566.35 390.149
L566.35 373.111
L567.08 373.111
L567.08 396.882
L567.808 396.882
L567.808 412.647
L568.532 412.647
L568.532 355.356
L569.254 355.356
L569.254 368.237
L569.974 368.237
L569.974 363.677
L570.691 363.677
L570.691 378.346
L571.405 378.346
L571.405 390.149
L572.825 390.149
L572.825 396.882
L573.531 396.882
L573.531 404.326
L574.235 404.326
L574.235 384.001
L574.936 384.001
L574.936 412.647
L576.331 412.647
L576.331 359.394
L577.024 359.394
L577.024 384.001
L577.716 384.001
L577.716 404.326
L578.404 404.326
L578.404 422.081
L579.091 422.081
L579.091 384.001
L579.774 384.001
L579.774 432.971
L580.456 432.971
L580.456 390.149
L581.812 390.149
L581.812 422.081
L582.486 422.081
L582.486 390.149
L583.158 390.149
L583.158 412.647
L583.828 412.647
L583.828 378.346
L584.495 378.346
L584.495 422.081
L585.16 422.081
L585.16 445.852
L585.823 445.852
L585.823 422.081
L586.483 422.081
L586.483 432.971
L587.142 432.971
L587.142 422.081
L588.452 422.081
L588.452 432.971
L589.103 432.971
L589.103 422.081
L589.753 422.081
L589.753 432.971
L590.4 432.971
L590.4 445.852
L591.045 445.852
L591.045 412.647
L591.688 412.647
L591.688 404.326
L592.329 404.326
L592.329 461.617
L592.968 461.617
L592.968 412.647
L593.605 412.647
L593.605 404.326
L594.239 404.326
L594.239 412.647
L595.502 412.647
L595.502 461.617
L596.131 461.617
L596.131 445.852
L597.381 445.852
L597.381 396.882
L598.004 396.882
L598.004 445.852
L598.624 445.852
L598.624 432.971
L599.242 432.971
L599.242 396.882
L599.859 396.882
L599.859 461.617
L600.473 461.617
L600.473 404.326
L601.697 404.326
L601.697 481.941
L602.305 481.941
L602.305 461.617
L602.912 461.617
L602.912 432.971
L603.517 432.971
L603.517 461.617
L604.12 461.617
L604.12 422.081
L604.721 422.081
L604.721 412.647
L605.32 412.647
L605.32 445.852
L605.918 445.852
L605.918 432.971
L606.513 432.971
L606.513 422.081
L607.699 422.081
L607.699 461.617
L608.289 461.617
L608.289 422.081
L608.878 422.081
L608.878 412.647
L609.464 412.647
L609.464 510.587
L610.049 510.587
L610.049 559.556
L610.632 559.556
L610.632 432.971
L611.213 432.971
L611.213 481.941
L611.793 481.941
L611.793 432.971
L612.947 432.971
L612.947 445.852
L613.521 445.852
L613.521 404.326
L614.094 404.326
L614.094 412.647
L614.665 412.647
L614.665 510.587
L615.235 510.587
L615.235 461.617
L615.802 461.617
L615.802 445.852
L616.368 445.852
L616.368 481.941
L616.933 481.941
L616.933 461.617
L617.496 461.617
L617.496 422.081
L618.057 422.081
L618.057 445.852
L618.616 445.852
L618.616 461.617
L619.73 461.617
L619.73 510.587
L620.285 510.587
L620.285 432.971
L620.838 432.971
L620.838 461.617
L621.39 461.617
L621.39 432.971
L622.488 432.971
L622.488 445.852
L623.035 445.852
L623.035 510.587
L623.58 510.587
L623.58 559.556
L624.124 559.556
L624.124 461.617
L624.666 461.617
L624.666 432.971
L625.207 432.971
L625.207 404.326
L625.747 404.326
L625.747 432.971
L626.284 432.971
L626.284 510.587
L626.821 510.587
L626.821 396.882
L627.355 396.882
L627.355 422.081
L627.889 422.081
L627.889 445.852
L628.421 445.852
L628.421 461.617
L628.951 461.617
L628.951 422.081
L629.48 422.081
L629.48 481.941
L630.008 481.941
L630.008 445.852
L630.534 445.852
L630.534 461.617
L631.058 461.617
L631.058 445.852
L631.582 445.852
L631.582 481.941
L633.143 481.941
L633.143 432.971
L633.661 432.971
L633.661 510.587
L634.692 510.587
L634.692 412.647
L635.205 412.647
L635.205 510.587
L635.718 510.587
L635.718 432.971
L636.228 432.971
L636.228 445.852
L636.738 445.852
L636.738 559.556
L637.246 559.556
L637.246 432.971
L637.753 432.971
L637.753 510.587
L638.259 510.587
L638.259 445.852
L638.763 445.852
L638.763 481.941
L639.266 481.941
L639.266 510.587
L640.268 510.587
L640.268 559.556
L640.767 559.556
L640.767 510.587
L641.264 510.587
L641.264 432.971
L641.761 432.971
L641.761 422.081
L642.256 422.081
L642.256 481.941
L644.713 481.941
L644.713 559.556
L645.201 559.556
L645.201 481.941
L646.173 481.941
L646.173 559.556
L646.657 559.556
L646.657 481.941
L647.14 481.941
L647.14 461.617
L647.621 461.617
L647.621 445.852
L648.102 445.852
L648.102 481.941
L648.581 481.941
L648.581 649
M649.059 649
L649.059 510.587
L650.012 510.587
L650.012 559.556
L650.486 559.556
L650.486 510.587
L650.96 510.587
L650.96 559.556
L651.903 559.556
L651.903 510.587
L652.373 510.587
L652.373 461.617
L653.31 461.617
L653.31 481.941
L653.776 481.941
L653.776 510.587
L654.242 510.587
L654.242 461.617
L655.169 461.617
L655.169 481.941
L655.632 481.941
L655.632 510.587
L656.093 510.587
L656.093 461.617
L656.553 461.617
L656.553 510.587
L657.011 510.587
L657.011 559.556
L657.469 559.556
L657.469 481.941
L657.926 481.941
L657.926 445.852
L658.382 445.852
L658.382 559.556
L658.836 559.556
L658.836 649
M659.29 649
L659.29 510.587
L659.742 510.587
L659.742 445.852
L660.193 445.852
L660.193 461.617
L660.644 461.617
L660.644 510.587
L661.093 510.587
L661.093 461.617
L661.541 461.617
L661.541 559.556
L661.988 559.556
L661.988 461.617
L662.435 461.617
L662.435 510.587
L662.88 510.587
L662.88 461.617
L663.324 461.617
L663.324 559.556
L664.65 559.556
L664.65 445.852
L665.09 445.852
L665.09 559.556
L665.53 559.556
L665.53 481.941
L665.968 481.941
L665.968 510.587
L666.405 510.587
L666.405 559.556
L666.841 559.556
L666.841 445.852
L667.276 445.852
L667.276 510.587
L667.71 510.587
L667.71 481.941
L668.144 481.941
L668.144 510.587
L668.576 510.587
L668.576 481.941
L669.007 481.941
L669.007 461.617
L669.437 461.617
L669.437 649
M669.867 649
L669.867 481.941
L670.295 481.941
L670.295 461.617
L670.723 461.617
L670.723 559.556
L671.149 559.556
L671.149 481.941
L671.575 481.941
L671.575 559.556
L672 559.556
L672 481.941
L672.423 481.941
L672.423 510.587
L673.689 510.587
L673.689 559.556
L674.528 559.556
L674.528 461.617
L675.364 461.617
L675.364 510.587
L675.781 510.587
L675.781 481.941
L676.611 481.941
L676.611 649
M677.025 649
L677.025 559.556
L677.438 559.556
L677.438 649
M677.85 649
L677.85 510.587
L678.261 510.587
L678.261 559.556
L678.671 559.556
L678.671 510.587
L679.081 510.587
L679.081 481.941
L679.489 481.941
L679.489 649
M679.897 649
L679.897 559.556
L680.304 559.556
L680.304 649
M680.71 649
L680.71 510.587
L681.115 510.587
L681.115 559.556
L681.519 559.556
L681.519 481.941
L681.923 481.941
L681.923 510.587
L682.727 510.587
L682.727 559.556
L683.128 559.556
L683.128 510.587
L683.528 510.587
L683.528 559.556
L684.326 559.556
L684.326 481.941
L684.724 481.941
L684.724 461.617
L685.121 461.617
L685.121 559.556
L685.517 559.556
L685.517 510.587
L685.912 510.587
L685.912 649
M686.306 649
L686.306 510.587
L686.7 510.587
L686.7 559.556
L687.093 559.556
L687.093 649
M687.876 649
L687.876 559.556
L688.267 559.556
L688.267 481.941
L688.656 481.941
L688.656 559.556
L689.433 559.556
L689.433 510.587
L689.821 510.587
L689.821 481.941
L690.207 481.941
L690.207 510.587
L690.593 510.587
L690.593 559.556
L690.978 559.556
L690.978 510.587
L692.511 510.587
L692.511 481.941
L692.892 481.941
L692.892 559.556
L693.652 559.556
L693.652 510.587
L694.031 510.587
L694.031 481.941
L694.409 481.941
L694.409 649
M694.787 649
L694.787 559.556
L695.164 559.556
L695.164 510.587
L696.29 510.587
L696.29 559.556
L697.409 559.556
L697.409 461.617
L697.781 461.617
L697.781 510.587
L698.152 510.587
L698.152 461.617
L698.523 461.617
L698.523 559.556
L698.892 559.556
L698.892 481.941
L699.261 481.941
L699.261 649
M699.629 649
L699.629 481.941
L699.997 481.941
L699.997 559.556
L701.095 559.556
L701.095 649
M701.46 649
L701.46 559.556
L701.824 559.556
L701.824 481.941
L702.187 481.941
L702.187 510.587
L702.912 510.587
L702.912 649
M703.274 649
L703.274 461.617
L703.634 461.617
L703.634 559.556
L704.354 559.556
L704.354 510.587
L705.428 510.587
L705.428 445.852
L705.784 445.852
L705.784 649
M706.14 649
L706.14 510.587
L706.496 510.587
L706.496 445.852
L706.851 445.852
L706.851 481.941
L707.205 481.941
L707.205 649
M708.263 649
L708.263 559.556
L708.966 559.556
L708.966 510.587
L709.316 510.587
L709.316 461.617
L709.665 461.617
L709.665 649
M710.014 649
L710.014 445.852
L710.363 445.852
L710.363 649
M710.711 649
L710.711 510.587
L711.058 510.587
L711.058 559.556
L711.404 559.556
L711.404 649
M711.75 649
L711.75 510.587
L712.095 510.587
L712.095 481.941
L712.784 481.941
L712.784 559.556
L713.127 559.556
L713.127 510.587
L713.47 510.587
L713.47 445.852
L713.813 445.852
L713.813 649
M714.154 649
L714.154 559.556
L714.495 559.556
L714.495 510.587
L715.175 510.587
L715.175 559.556
L715.515 559.556
L715.515 481.941
L715.853 481.941
L715.853 510.587
L716.529 510.587
L716.529 649
M716.866 649
L716.866 510.587
L717.202 510.587
L717.202 559.556
L718.207 559.556
L718.207 649
M718.541 649
L718.541 559.556
L719.208 559.556
L719.208 649
M719.54 649
L719.54 559.556
L720.203 559.556
L720.203 510.587
L720.533 510.587
L720.533 481.941
L721.193 481.941
L721.193 559.556
L721.521 559.556
L721.521 481.941
L722.177 481.941
L722.177 559.556
L722.505 559.556
L722.505 510.587
L722.831 510.587
L722.831 559.556
L723.157 559.556
L723.157 510.587
L723.808 510.587
L723.808 559.556
L724.132 559.556
L724.132 649
M724.456 649
L724.456 559.556
L725.103 559.556
L725.103 510.587
L725.425 510.587
L725.425 559.556
L725.747 559.556
L725.747 649
M726.068 649
L726.068 510.587
L726.709 510.587
L726.709 649
M727.666 649
L727.666 559.556
L727.984 559.556
L727.984 510.587
L728.302 510.587
L728.302 559.556
L728.935 559.556
L728.935 481.941
L729.251 481.941
L729.251 649
M729.567 649
L729.567 559.556
L729.882 559.556
L729.882 461.617
L730.196 461.617
L730.196 559.556
L730.51 559.556
L730.51 481.941
L730.824 481.941
L730.824 649
M731.449 649
L731.449 510.587
L731.761 510.587
L731.761 481.941
L732.383 481.941
L732.383 510.587
L732.694 510.587
L732.694 649
M733.004 649
L733.004 510.587
L733.622 510.587
L733.622 559.556
L733.931 559.556
L733.931 649
M734.239 649
L734.239 510.587
L734.546 510.587
L734.546 559.556
L734.853 559.556
L734.853 649
M735.16 649
L735.16 481.941
L735.466 481.941
L735.466 559.556
L735.771 559.556
L735.771 649
M736.076 649
L736.076 559.556
L736.381 559.556
L736.381 649
M736.685 649
L736.685 481.941
L736.989 481.941
L736.989 649
M737.594 649
L737.594 481.941
L737.897 481.941
L737.897 510.587
L738.198 510.587
L738.198 649
M738.5 649
L738.5 559.556
L739.401 559.556
L739.401 649
M739.7 649
L739.7 559.556
L740.893 559.556
L740.893 649
M741.19 649
L741.19 559.556
L741.487 559.556
L741.487 510.587
L741.783 510.587
L741.783 461.617
L742.079 461.617
L742.079 510.587
L742.964 510.587
L742.964 649
M743.257 649
L743.257 559.556
L744.429 559.556
L744.429 510.587
L745.012 510.587
L745.012 649
M745.303 649
L745.303 510.587
L745.593 510.587
L745.593 559.556
L745.883 559.556
L745.883 510.587
L746.173 510.587
L746.173 559.556
L746.462 559.556
L746.462 649
M746.751 649
L746.751 510.587
L747.901 510.587
L747.901 559.556
L748.188 559.556
L748.188 510.587
L748.474 510.587
L748.474 559.556
L749.33 559.556
L749.33 649
M749.614 649
L749.614 559.556
L749.898 559.556
L749.898 510.587
L750.182 510.587
L750.182 649
M750.465 649
L750.465 510.587
L750.748 510.587
L750.748 559.556
L751.031 559.556
L751.031 649
M751.875 649
L751.875 559.556
L752.436 559.556
L752.436 649
M752.716 649
L752.716 559.556
L752.996 559.556
L752.996 510.587
L753.275 510.587
L753.275 559.556
L753.554 559.556
L753.554 510.587
L753.832 510.587
L753.832 649
M754.11 649
L754.11 559.556
L754.388 559.556
L754.388 510.587
L754.665 510.587
L754.665 559.556
L754.942 559.556
L754.942 649
M755.218 649
L755.218 510.587
L755.494 510.587
L755.494 559.556
L755.77 559.556
L755.77 510.587
L756.045 510.587
L756.045 649
M756.319 649
L756.319 481.941
L756.594 481.941
L756.594 559.556
L756.868 559.556
L756.868 649
M757.688 649
L757.688 510.587
L757.96 510.587
L757.96 559.556
L758.232 559.556
L758.232 481.941
L758.504 481.941
L758.504 559.556
L758.775 559.556
L758.775 649
M759.317 649
L759.317 559.556
L759.587 559.556
L759.587 649
M759.857 649
L759.857 510.587
L760.126 510.587
L760.126 649
M760.664 649
L760.664 559.556
L760.932 559.556
L760.932 510.587
L761.2 510.587
L761.2 649
M761.735 649
L761.735 481.941
L762.002 481.941
L762.002 559.556
L762.269 559.556
L762.269 649
M762.535 649
L762.535 559.556
L763.066 559.556
L763.066 649
M763.86 649
L763.86 559.556
L764.124 559.556
L764.124 649
M764.651 649
L764.651 559.556
L764.913 559.556
L764.913 510.587
L765.176 510.587
L765.176 559.556
L765.438 559.556
L765.438 649
M765.7 649
L765.7 559.556
L766.222 559.556
L766.222 649
M766.483 649
L766.483 559.556
L766.744 559.556
L766.744 649
M767.263 649
L767.263 559.556
L768.299 559.556
L768.299 649
M768.557 649
L768.557 559.556
L768.814 559.556
L768.814 649
M770.353 649
L770.353 559.556
L770.608 559.556
L770.608 510.587
L770.863 510.587
L770.863 559.556
L771.118 559.556
L771.118 649
M771.372 649
L771.372 559.556
L771.626 559.556
L771.626 649
M771.88 649
L771.88 559.556
L772.386 559.556
L772.386 481.941
L772.638 481.941
L772.638 649
M772.891 649
L772.891 559.556
L773.143 559.556
L773.143 649
M773.394 649
L773.394 559.556
L773.645 559.556
L773.645 649
M773.896 649
L773.896 559.556
L774.147 559.556
L774.147 649
M774.647 649
L774.647 559.556
L774.897 559.556
L774.897 649
M775.146 649
L775.146 559.556
L775.644 559.556
L775.644 481.941
L775.892 481.941
L775.892 510.587
L776.141 510.587
L776.141 559.556
L776.636 559.556
L776.636 649
M777.13 649
L777.13 559.556
L777.376 559.556
L777.376 649
M777.622 649
L777.622 559.556
L778.114 559.556
L778.114 510.587
L778.359 510.587
L778.359 649
M779.093 649
L779.093 559.556
L779.337 559.556
L779.337 649
M780.067 649
L780.067 559.556
L780.31 559.556
L780.31 649
M781.278 649
L781.278 510.587
L781.519 510.587
L781.519 559.556
L782.241 559.556
L782.241 649
M782.721 649
L782.721 559.556
L783.439 559.556
L783.439 510.587
L783.677 510.587
L783.677 649
M783.916 649
L783.916 559.556
L784.392 559.556
L784.392 649
M784.866 649
L784.866 559.556
L785.103 559.556
L785.103 649
M786.988 649
L786.988 510.587
L787.222 510.587
L787.222 649
M788.156 649
L788.156 559.556
L788.389 559.556
L788.389 649
M789.318 649
L789.318 559.556
L789.549 559.556
L789.549 649
M790.011 649
L790.011 559.556
L790.242 559.556
L790.242 649
M790.472 649
L790.472 559.556
L790.703 559.556
L790.703 649
M792.306 649
L792.306 510.587
L792.534 510.587
L792.534 649
M793.896 649
L793.896 559.556
L794.348 559.556
L794.348 649
M795.921 649
L795.921 559.556
L796.145 559.556
L796.145 649
M796.592 649
L796.592 559.556
L796.814 559.556
L796.814 649
M797.26 649
L797.26 559.556
L797.482 559.556
L797.482 649
M797.704 649
L797.704 559.556
L797.925 559.556
L797.925 649
M798.368 649
L798.368 559.556
L798.81 559.556
L798.81 649
M799.69 649
L799.69 510.587
L799.909 510.587
L799.909 649
M800.129 649
L800.129 559.556
L800.347 559.556
L800.347 510.587
L800.566 510.587
L800.566 649
M800.785 649
L800.785 559.556
L801.003 559.556
L801.003 649
M801.221 649
L801.221 481.941
L801.438 481.941
L801.438 649
M802.09 649
L802.09 559.556
L802.523 559.556
L802.523 649
M803.171 649
L803.171 559.556
L803.387 559.556
L803.387 649
M803.602 649
L803.602 559.556
L803.817 559.556
L803.817 649
M804.247 649
L804.247 559.556
L804.461 559.556
L804.461 649
M804.675 649
L804.675 559.556
L805.316 559.556
L805.316 649
M806.167 649
L806.167 559.556
L806.379 559.556
L806.379 649
M808.069 649
L808.069 559.556
L808.279 559.556
L808.279 649
M809.117 649
L809.117 559.556
L809.326 559.556
L809.326 649
M810.576 649
L810.576 559.556
L810.783 559.556
L810.783 649
M812.846 649
L812.846 559.556
L813.051 559.556
L813.051 649
M814.683 649
L814.683 559.556
L814.887 559.556
L814.887 649
M816.101 649
L816.101 510.587
L816.302 510.587
L816.302 649
M818.507 649
L818.507 510.587
L818.905 510.587
L818.905 649
M820.094 649
L820.094 559.556
L820.292 559.556
L820.292 510.587
L820.489 510.587
L820.489 649
M821.473 649
L821.473 559.556
L821.669 559.556
L821.669 649
M823.425 649
L823.425 559.556
L823.619 559.556
L823.619 649
M824.587 649
L824.587 559.556
L824.78 559.556
L824.78 649
M826.317 649
L826.317 559.556
L826.508 559.556
L826.508 649
M827.081 649
L827.081 559.556
L827.272 559.556
L827.272 510.587
L827.462 510.587
L827.462 649
M827.842 649
L827.842 559.556
L828.032 559.556
L828.032 649
M828.222 649
L828.222 559.556
L828.411 559.556
L828.411 649
M828.789 649
L828.789 559.556
L829.167 559.556
L829.167 649
M829.732 649
L829.732 559.556
L830.107 559.556
L830.107 649
M831.044 649
L831.044 559.556
L831.23 559.556
L831.23 649
M831.603 649
L831.603 559.556
L831.789 559.556
L831.789 649
M831.975 649
L831.975 559.556
L832.161 559.556
L832.161 649
M832.902 649
L832.902 510.587
L833.087 510.587
L833.087 649
M833.825 649
L833.825 559.556
L834.193 559.556
L834.193 649
M835.11 649
L835.11 559.556
L835.292 559.556
L835.292 649
M835.475 649
L835.475 559.556
L835.658 559.556
L835.658 649
M837.111 649
L837.111 559.556
L837.292 559.556
L837.292 649
M838.014 649
L838.014 559.556
L838.194 559.556
L838.194 649
M838.374 649
L838.374 559.556
L838.554 559.556
L838.554 649
M839.986 649
L839.986 559.556
L840.342 559.556
L840.342 649
M841.053 649
L841.053 559.556
L841.23 559.556
L841.23 649
M841.761 649
L841.761 559.556
L841.938 559.556
L841.938 649
M842.467 649
L842.467 559.556
L842.643 559.556
L842.643 649
M843.871 649
L843.871 559.556
L844.045 559.556
L844.045 649
M845.611 649
L845.611 559.556
L845.784 559.556
L845.784 649
M847.507 649
L847.507 559.556
L847.679 559.556
L847.679 649
M850.402 649
L850.402 559.556
L850.571 559.556
L850.571 649
M851.75 649
L851.75 559.556
L852.085 559.556
L852.085 649
M854.748 649
L854.748 559.556
L854.913 559.556
L854.913 649
M855.078 649
L855.078 559.556
L855.243 559.556
L855.243 649
M858.188 649
L858.188 559.556
L858.512 559.556
L858.512 649
M859.482 649
L859.482 559.556
L859.805 559.556
L859.805 649
M859.966 649
L859.966 559.556
L860.127 559.556
L860.127 649
M860.608 649
L860.608 510.587
L860.768 510.587
L860.768 649
M862.523 649
L862.523 559.556
L862.84 559.556
L862.84 649
M865.204 649
L865.204 559.556
L865.36 559.556
L865.36 649
M866.608 649
L866.608 559.556
L866.763 559.556
L866.763 649
M867.229 649
L867.229 559.556
L867.384 559.556
L867.384 649
M867.538 649
L867.538 559.556
L867.693 559.556
L867.693 649
M867.848 649
L867.848 559.556
L868.002 559.556
L868.002 649
M869.693 649
L869.693 559.556
L869.846 559.556
L869.846 649
M870.151 649
L870.151 559.556
L870.304 559.556
L870.304 649
M870.456 649
L870.456 559.556
L870.608 559.556
L870.608 649
M871.823 649
L871.823 559.556
L872.125 559.556
L872.125 649
M874.379 649
L874.379 559.556
L874.528 559.556
L874.528 649
M874.975 649
L874.975 559.556
L875.124 559.556
L875.124 649
M876.459 649
L876.459 559.556
L876.606 559.556
L876.606 649
M878.224 649
L878.224 559.556
L878.37 559.556
L878.37 649
M878.809 649
L878.809 559.556
L878.955 559.556
L878.955 649
M879.392 649
L879.392 559.556
L879.537 559.556
L879.537 649
M881.563 649
L881.563 559.556
L881.707 559.556
L881.707 649
M881.994 649
L881.994 559.556
L882.138 559.556
L882.138 649
M882.711 649
L882.711 559.556
L882.854 559.556
L882.854 649
M884.845 649
L884.845 559.556
L884.987 559.556
L884.987 649
M887.236 649
L887.236 559.556
L887.376 559.556
L887.376 649
M888.212 649
L888.212 559.556
L888.351 559.556
L888.351 649
M888.49 649
L888.49 559.556
L888.629 559.556
L888.629 649
M888.767 649
L888.767 559.556
L888.906 559.556
L888.906 649
M890.012 649
L890.012 559.556
L890.149 559.556
L890.149 649
M890.974 649
L890.974 559.556
L891.111 559.556
L891.111 649
M891.658 649
L891.658 559.556
L891.931 559.556
L891.931 649
M894.237 649
L894.237 559.556
L894.371 559.556
L894.371 649
M895.044 649
L895.044 559.556
L895.178 559.556
L895.178 649
M895.312 649
L895.312 559.556
L895.446 559.556
L895.446 649
M895.848 649
L895.848 510.587
L895.981 510.587
L895.981 649
M897.446 649
L897.446 559.556
L897.578 559.556
L897.578 649
M898.767 649
L898.767 559.556
L898.899 559.556
L898.899 649
M899.556 649
L899.556 559.556
L899.818 559.556
L899.818 649
M900.472 649
L900.472 559.556
L900.602 559.556
L900.602 649
M901.253 649
L901.253 559.556
L901.383 559.556
L901.383 649
M904.477 649
L904.477 559.556
L904.605 559.556
L904.605 649
M904.86 649
L904.86 559.556
L904.988 559.556
L904.988 649
M905.116 649
L905.116 559.556
L905.243 559.556
L905.243 649
M907.018 649
L907.018 559.556
L907.144 559.556
L907.144 649
M907.27 649
L907.27 559.556
L907.396 559.556
L907.396 649
M910.768 649
L910.768 559.556
L910.892 559.556
L910.892 649
M912.861 649
L912.861 559.556
L912.984 559.556
L912.984 649
M913.473 649
L913.473 559.556
L913.595 559.556
L913.595 649
M915.779 649
L915.779 559.556
L915.899 559.556
L915.899 649
M918.653 649
L918.653 559.556
L918.771 559.556
L918.771 649
M919.483 649
L919.483 559.556
L919.601 559.556
L919.601 649
M924.737 649
L924.737 559.556
L924.852 559.556
L924.852 649
L924.852 649" style="fill:none;opacity:0.7;stroke:#fd6266;stroke-linejoin:miter;stroke-width:3;"/>
   </g>
   <g id="patch_6">
    <path d="
M144 64.8
L1036.8 64.8" style="fill:none;stroke:#000000;stroke-linecap:square;stroke-linejoin:miter;"/>
   </g>
   <g id="patch_7">
    <path d="
M1036.8 567
L1036.8 64.8" style="fill:none;stroke:#000000;stroke-linecap:square;stroke-linejoin:miter;"/>
   </g>
   <g id="patch_8">
    <path d="
M144 567
L1036.8 567" style="fill:none;stroke:#000000;stroke-linecap:square;stroke-linejoin:miter;"/>
   </g>
   <g id="patch_9">
    <path d="
M144 567
L144 64.8" style="fill:none;stroke:#000000;stroke-linecap:square;stroke-linejoin:miter;"/>
   </g>
   <g id="matplotlib.axis_1">
    <g id="xtick_1">
     <g id="line2d_1">
      <defs>
       <path d="
M0 0
L0 -4" id="m93b0483c22" style="stroke:#000000;stroke-width:0.5;"/>
      </defs>
      <g>
       <use style="stroke:#000000;stroke-width:0.5;" x="377.413071893" xlink:href="#m93b0483c22" y="567.0"/>
      </g>
     </g>
     <g id="line2d_2">
      <defs>
       <path d="
M0 0
L0 4" id="m741efc42ff" style="stroke:#000000;stroke-width:0.5;"/>
      </defs>
      <g>
       <use style="stroke:#000000;stroke-width:0.5;" x="377.413071893" xlink:href="#m741efc42ff" y="64.8"/>
      </g>
     </g>
     <g id="text_1">
      <!-- $\mathdefault{10^{2}}$ -->
      <defs>
       <path d="
M12.4062 8.29688
L28.5156 8.29688
L28.5156 63.9219
L10.9844 60.4062
L10.9844 69.3906
L28.4219 72.9062
L38.2812 72.9062
L38.2812 8.29688
L54.3906 8.29688
L54.3906 0
L12.4062 0
z
" id="DejaVuSans-31"/>
       <path d="
M31.7812 66.4062
Q24.1719 66.4062 20.3281 58.9062
Q16.5 51.4219 16.5 36.375
Q16.5 21.3906 20.3281 13.8906
Q24.1719 6.39062 31.7812 6.39062
Q39.4531 6.39062 43.2812 13.8906
Q47.125 21.3906 47.125 36.375
Q47.125 51.4219 43.2812 58.9062
Q39.4531 66.4062 31.7812 66.4062
M31.7812 74.2188
Q44.0469 74.2188 50.5156 64.5156
Q56.9844 54.8281 56.9844 36.375
Q56.9844 17.9688 50.5156 8.26562
Q44.0469 -1.42188 31.7812 -1.42188
Q19.5312 -1.42188 13.0625 8.26562
Q6.59375 17.9688 6.59375 36.375
Q6.59375 54.8281 13.0625 64.5156
Q19.5312 74.2188 31.7812 74.2188" id="DejaVuSans-30"/>
       <path d="
M19.1875 8.29688
L53.6094 8.29688
L53.6094 0
L7.32812 0
L7.32812 8.29688
Q12.9375 14.1094 22.625 23.8906
Q32.3281 33.6875 34.8125 36.5312
Q39.5469 41.8438 41.4219 45.5312
Q43.3125 49.2188 43.3125 52.7812
Q43.3125 58.5938 39.2344 62.25
Q35.1562 65.9219 28.6094 65.9219
Q23.9688 65.9219 18.8125 64.3125
Q13.6719 62.7031 7.8125 59.4219
L7.8125 69.3906
Q13.7656 71.7812 18.9375 73
Q24.125 74.2188 28.4219 74.2188
Q39.75 74.2188 46.4844 68.5469
Q53.2188 62.8906 53.2188 53.4219
Q53.2188 48.9219 51.5312 44.8906
Q49.8594 40.875 45.4062 35.4062
Q44.1875 33.9844 37.6406 27.2188
Q31.1094 20.4531 19.1875 8.29688" id="DejaVuSans-32"/>
      </defs>
      <g transform="translate(368.263071893 580.1203125)scale(0.1 -0.1)">
       <use transform="translate(0.0 0.234375)" xlink:href="#DejaVuSans-31"/>
       <use transform="translate(63.623046875 0.234375)" xlink:href="#DejaVuSans-30"/>
       <use transform="translate(127.24609375 58.046875)scale(0.7)" xlink:href="#DejaVuSans-32"/>
      </g>
     </g>
    </g>
    <g id="xtick_2">
     <g id="line2d_3">
      <g>
       <use style="stroke:#000000;stroke-width:0.5;" x="823.813071893" xlink:href="#m93b0483c22" y="567.0"/>
      </g>
     </g>
     <g id="line2d_4">
      <g>
       <use style="stroke:#000000;stroke-width:0.5;" x="823.813071893" xlink:href="#m741efc42ff" y="64.8"/>
      </g>
     </g>
     <g id="text_2">
      <!-- $\mathdefault{10^{3}}$ -->
      <defs>
       <path d="
M40.5781 39.3125
Q47.6562 37.7969 51.625 33
Q55.6094 28.2188 55.6094 21.1875
Q55.6094 10.4062 48.1875 4.48438
Q40.7656 -1.42188 27.0938 -1.42188
Q22.5156 -1.42188 17.6562 -0.515625
Q12.7969 0.390625 7.625 2.20312
L7.625 11.7188
Q11.7188 9.32812 16.5938 8.10938
Q21.4844 6.89062 26.8125 6.89062
Q36.0781 6.89062 40.9375 10.5469
Q45.7969 14.2031 45.7969 21.1875
Q45.7969 27.6406 41.2812 31.2656
Q36.7656 34.9062 28.7188 34.9062
L20.2188 34.9062
L20.2188 43.0156
L29.1094 43.0156
Q36.375 43.0156 40.2344 45.9219
Q44.0938 48.8281 44.0938 54.2969
Q44.0938 59.9062 40.1094 62.9062
Q36.1406 65.9219 28.7188 65.9219
Q24.6562 65.9219 20.0156 65.0312
Q15.375 64.1562 9.8125 62.3125
L9.8125 71.0938
Q15.4375 72.6562 20.3438 73.4375
Q25.25 74.2188 29.5938 74.2188
Q40.8281 74.2188 47.3594 69.1094
Q53.9062 64.0156 53.9062 55.3281
Q53.9062 49.2656 50.4375 45.0938
Q46.9688 40.9219 40.5781 39.3125" id="DejaVuSans-33"/>
      </defs>
      <g transform="translate(814.663071893 580.1203125)scale(0.1 -0.1)">
       <use transform="translate(0.0 0.234375)" xlink:href="#DejaVuSans-31"/>
       <use transform="translate(63.623046875 0.234375)" xlink:href="#DejaVuSans-30"/>
       <use transform="translate(127.24609375 58.046875)scale(0.7)" xlink:href="#DejaVuSans-33"/>
      </g>
     </g>
    </g>
    <g id="xtick_3">
     <g id="line2d_5">
      <defs>
       <path d="
M0 0
L0 -2" id="m177f7580d0" style="stroke:#000000;stroke-width:0.5;"/>
      </defs>
      <g>
       <use style="stroke:#000000;stroke-width:0.5;" x="144.0" xlink:href="#m177f7580d0" y="567.0"/>
      </g>
     </g>
     <g id="line2d_6">
      <defs>
       <path d="
M0 0
L0 2" id="m5284c7e2a0" style="stroke:#000000;stroke-width:0.5;"/>
      </defs>
      <g>
       <use style="stroke:#000000;stroke-width:0.5;" x="144.0" xlink:href="#m5284c7e2a0" y="64.8"/>
      </g>
     </g>
    </g>
    <g id="xtick_4">
     <g id="line2d_7">
      <g>
       <use style="stroke:#000000;stroke-width:0.5;" x="199.772652022" xlink:href="#m177f7580d0" y="567.0"/>
      </g>
     </g>
     <g id="line2d_8">
      <g>
       <use style="stroke:#000000;stroke-width:0.5;" x="199.772652022" xlink:href="#m5284c7e2a0" y="64.8"/>
      </g>
     </g>
    </g>
    <g id="xtick_5">
     <g id="line2d_9">
      <g>
       <use style="stroke:#000000;stroke-width:0.5;" x="243.033281829" xlink:href="#m177f7580d0" y="567.0"/>
      </g>
     </g>
     <g id="line2d_10">
      <g>
       <use style="stroke:#000000;stroke-width:0.5;" x="243.033281829" xlink:href="#m5284c7e2a0" y="64.8"/>
      </g>
     </g>
    </g>
    <g id="xtick_6">
     <g id="line2d_11">
      <g>
       <use style="stroke:#000000;stroke-width:0.5;" x="278.379790064" xlink:href="#m177f7580d0" y="567.0"/>
      </g>
     </g>
     <g id="line2d_12">
      <g>
       <use style="stroke:#000000;stroke-width:0.5;" x="278.379790064" xlink:href="#m5284c7e2a0" y="64.8"/>
      </g>
     </g>
    </g>
    <g id="xtick_7">
     <g id="line2d_13">
      <g>
       <use style="stroke:#000000;stroke-width:0.5;" x="308.264836956" xlink:href="#m177f7580d0" y="567.0"/>
      </g>
     </g>
     <g id="line2d_14">
      <g>
       <use style="stroke:#000000;stroke-width:0.5;" x="308.264836956" xlink:href="#m5284c7e2a0" y="64.8"/>
      </g>
     </g>
    </g>
    <g id="xtick_8">
     <g id="line2d_15">
      <g>
       <use style="stroke:#000000;stroke-width:0.5;" x="334.152442086" xlink:href="#m177f7580d0" y="567.0"/>
      </g>
     </g>
     <g id="line2d_16">
      <g>
       <use style="stroke:#000000;stroke-width:0.5;" x="334.152442086" xlink:href="#m5284c7e2a0" y="64.8"/>
      </g>
     </g>
    </g>
    <g id="xtick_9">
     <g id="line2d_17">
      <g>
       <use style="stroke:#000000;stroke-width:0.5;" x="356.986928107" xlink:href="#m177f7580d0" y="567.0"/>
      </g>
     </g>
     <g id="line2d_18">
      <g>
       <use style="stroke:#000000;stroke-width:0.5;" x="356.986928107" xlink:href="#m5284c7e2a0" y="64.8"/>
      </g>
     </g>
    </g>
    <g id="xtick_10">
     <g id="line2d_19">
      <g>
       <use style="stroke:#000000;stroke-width:0.5;" x="511.792861958" xlink:href="#m177f7580d0" y="567.0"/>
      </g>
     </g>
     <g id="line2d_20">
      <g>
       <use style="stroke:#000000;stroke-width:0.5;" x="511.792861958" xlink:href="#m5284c7e2a0" y="64.8"/>
      </g>
     </g>
    </g>
    <g id="xtick_11">
     <g id="line2d_21">
      <g>
       <use style="stroke:#000000;stroke-width:0.5;" x="590.4" xlink:href="#m177f7580d0" y="567.0"/>
      </g>
     </g>
     <g id="line2d_22">
      <g>
       <use style="stroke:#000000;stroke-width:0.5;" x="590.4" xlink:href="#m5284c7e2a0" y="64.8"/>
      </g>
     </g>
    </g>
    <g id="xtick_12">
     <g id="line2d_23">
      <g>
       <use style="stroke:#000000;stroke-width:0.5;" x="646.172652022" xlink:href="#m177f7580d0" y="567.0"/>
      </g>
     </g>
     <g id="line2d_24">
      <g>
       <use style="stroke:#000000;stroke-width:0.5;" x="646.172652022" xlink:href="#m5284c7e2a0" y="64.8"/>
      </g>
     </g>
    </g>
    <g id="xtick_13">
     <g id="line2d_25">
      <g>
       <use style="stroke:#000000;stroke-width:0.5;" x="689.433281829" xlink:href="#m177f7580d0" y="567.0"/>
      </g>
     </g>
     <g id="line2d_26">
      <g>
       <use style="stroke:#000000;stroke-width:0.5;" x="689.433281829" xlink:href="#m5284c7e2a0" y="64.8"/>
      </g>
     </g>
    </g>
    <g id="xtick_14">
     <g id="line2d_27">
      <g>
       <use style="stroke:#000000;stroke-width:0.5;" x="724.779790064" xlink:href="#m177f7580d0" y="567.0"/>
      </g>
     </g>
     <g id="line2d_28">
      <g>
       <use style="stroke:#000000;stroke-width:0.5;" x="724.779790064" xlink:href="#m5284c7e2a0" y="64.8"/>
      </g>
     </g>
    </g>
    <g id="xtick_15">
     <g id="line2d_29">
      <g>
       <use style="stroke:#000000;stroke-width:0.5;" x="754.664836956" xlink:href="#m177f7580d0" y="567.0"/>
      </g>
     </g>
     <g id="line2d_30">
      <g>
       <use style="stroke:#000000;stroke-width:0.5;" x="754.664836956" xlink:href="#m5284c7e2a0" y="64.8"/>
      </g>
     </g>
    </g>
    <g id="xtick_16">
     <g id="line2d_31">
      <g>
       <use style="stroke:#000000;stroke-width:0.5;" x="780.552442086" xlink:href="#m177f7580d0" y="567.0"/>
      </g>
     </g>
     <g id="line2d_32">
      <g>
       <use style="stroke:#000000;stroke-width:0.5;" x="780.552442086" xlink:href="#m5284c7e2a0" y="64.8"/>
      </g>
     </g>
    </g>
    <g id="xtick_17">
     <g id="line2d_33">
      <g>
       <use style="stroke:#000000;stroke-width:0.5;" x="803.386928107" xlink:href="#m177f7580d0" y="567.0"/>
      </g>
     </g>
     <g id="line2d_34">
      <g>
       <use style="stroke:#000000;stroke-width:0.5;" x="803.386928107" xlink:href="#m5284c7e2a0" y="64.8"/>
      </g>
     </g>
    </g>
    <g id="xtick_18">
     <g id="line2d_35">
      <g>
       <use style="stroke:#000000;stroke-width:0.5;" x="958.192861958" xlink:href="#m177f7580d0" y="567.0"/>
      </g>
     </g>
     <g id="line2d_36">
      <g>
       <use style="stroke:#000000;stroke-width:0.5;" x="958.192861958" xlink:href="#m5284c7e2a0" y="64.8"/>
      </g>
     </g>
    </g>
    <g id="xtick_19">
     <g id="line2d_37">
      <g>
       <use style="stroke:#000000;stroke-width:0.5;" x="1036.8" xlink:href="#m177f7580d0" y="567.0"/>
      </g>
     </g>
     <g id="line2d_38">
      <g>
       <use style="stroke:#000000;stroke-width:0.5;" x="1036.8" xlink:href="#m5284c7e2a0" y="64.8"/>
      </g>
     </g>
    </g>
    <g id="text_3">
     <!-- Grado -->
     <defs>
      <path d="
M30.6094 48.3906
Q23.3906 48.3906 19.1875 42.75
Q14.9844 37.1094 14.9844 27.2969
Q14.9844 17.4844 19.1562 11.8438
Q23.3438 6.20312 30.6094 6.20312
Q37.7969 6.20312 41.9844 11.8594
Q46.1875 17.5312 46.1875 27.2969
Q46.1875 37.0156 41.9844 42.7031
Q37.7969 48.3906 30.6094 48.3906
M30.6094 56
Q42.3281 56 49.0156 48.375
Q55.7188 40.7656 55.7188 27.2969
Q55.7188 13.875 49.0156 6.21875
Q42.3281 -1.42188 30.6094 -1.42188
Q18.8438 -1.42188 12.1719 6.21875
Q5.51562 13.875 5.51562 27.2969
Q5.51562 40.7656 12.1719 48.375
Q18.8438 56 30.6094 56" id="DejaVuSans-6f"/>
      <path d="
M45.4062 46.3906
L45.4062 75.9844
L54.3906 75.9844
L54.3906 0
L45.4062 0
L45.4062 8.20312
Q42.5781 3.32812 38.25 0.953125
Q33.9375 -1.42188 27.875 -1.42188
Q17.9688 -1.42188 11.7344 6.48438
Q5.51562 14.4062 5.51562 27.2969
Q5.51562 40.1875 11.7344 48.0938
Q17.9688 56 27.875 56
Q33.9375 56 38.25 53.625
Q42.5781 51.2656 45.4062 46.3906
M14.7969 27.2969
Q14.7969 17.3906 18.875 11.75
Q22.9531 6.10938 30.0781 6.10938
Q37.2031 6.10938 41.2969 11.75
Q45.4062 17.3906 45.4062 27.2969
Q45.4062 37.2031 41.2969 42.8438
Q37.2031 48.4844 30.0781 48.4844
Q22.9531 48.4844 18.875 42.8438
Q14.7969 37.2031 14.7969 27.2969" id="DejaVuSans-64"/>
      <path d="
M59.5156 10.4062
L59.5156 29.9844
L43.4062 29.9844
L43.4062 38.0938
L69.2812 38.0938
L69.2812 6.78125
Q63.5781 2.73438 56.6875 0.65625
Q49.8125 -1.42188 42 -1.42188
Q24.9062 -1.42188 15.25 8.5625
Q5.60938 18.5625 5.60938 36.375
Q5.60938 54.25 15.25 64.2344
Q24.9062 74.2188 42 74.2188
Q49.125 74.2188 55.5469 72.4531
Q61.9688 70.7031 67.3906 67.2812
L67.3906 56.7812
Q61.9219 61.4219 55.7656 63.7656
Q49.6094 66.1094 42.8281 66.1094
Q29.4375 66.1094 22.7188 58.6406
Q16.0156 51.1719 16.0156 36.375
Q16.0156 21.625 22.7188 14.1562
Q29.4375 6.6875 42.8281 6.6875
Q48.0469 6.6875 52.1406 7.59375
Q56.25 8.5 59.5156 10.4062" id="DejaVuSans-47"/>
      <path d="
M34.2812 27.4844
Q23.3906 27.4844 19.1875 25
Q14.9844 22.5156 14.9844 16.5
Q14.9844 11.7188 18.1406 8.90625
Q21.2969 6.10938 26.7031 6.10938
Q34.1875 6.10938 38.7031 11.4062
Q43.2188 16.7031 43.2188 25.4844
L43.2188 27.4844
z

M52.2031 31.2031
L52.2031 0
L43.2188 0
L43.2188 8.29688
Q40.1406 3.32812 35.5469 0.953125
Q30.9531 -1.42188 24.3125 -1.42188
Q15.9219 -1.42188 10.9531 3.29688
Q6 8.01562 6 15.9219
Q6 25.1406 12.1719 29.8281
Q18.3594 34.5156 30.6094 34.5156
L43.2188 34.5156
L43.2188 35.4062
Q43.2188 41.6094 39.1406 45
Q35.0625 48.3906 27.6875 48.3906
Q23 48.3906 18.5469 47.2656
Q14.1094 46.1406 10.0156 43.8906
L10.0156 52.2031
Q14.9375 54.1094 19.5781 55.0469
Q24.2188 56 28.6094 56
Q40.4844 56 46.3438 49.8438
Q52.2031 43.7031 52.2031 31.2031" id="DejaVuSans-61"/>
      <path d="
M41.1094 46.2969
Q39.5938 47.1719 37.8125 47.5781
Q36.0312 48 33.8906 48
Q26.2656 48 22.1875 43.0469
Q18.1094 38.0938 18.1094 28.8125
L18.1094 0
L9.07812 0
L9.07812 54.6875
L18.1094 54.6875
L18.1094 46.1875
Q20.9531 51.1719 25.4844 53.5781
Q30.0312 56 36.5312 56
Q37.4531 56 38.5781 55.875
Q39.7031 55.7656 41.0625 55.5156
z
" id="DejaVuSans-72"/>
     </defs>
     <g transform="translate(575.7265625 594.7984375)scale(0.1 -0.1)">
      <use xlink:href="#DejaVuSans-47"/>
      <use x="77.490234375" xlink:href="#DejaVuSans-72"/>
      <use x="118.603515625" xlink:href="#DejaVuSans-61"/>
      <use x="179.8828125" xlink:href="#DejaVuSans-64"/>
      <use x="243.359375" xlink:href="#DejaVuSans-6f"/>
     </g>
    </g>
   </g>
   <g id="matplotlib.axis_2">
    <g id="ytick_1">
     <g id="line2d_39">
      <defs>
       <path d="
M0 0
L4 0" id="m728421d6d4" style="stroke:#000000;stroke-width:0.5;"/>
      </defs>
      <g>
       <use style="stroke:#000000;stroke-width:0.5;" x="144.0" xlink:href="#m728421d6d4" y="559.556432162"/>
      </g>
     </g>
     <g id="line2d_40">
      <defs>
       <path d="
M0 0
L-4 0" id="mcb0005524f" style="stroke:#000000;stroke-width:0.5;"/>
      </defs>
      <g>
       <use style="stroke:#000000;stroke-width:0.5;" x="1036.8" xlink:href="#mcb0005524f" y="559.556432162"/>
      </g>
     </g>
     <g id="text_4">
      <!-- $\mathdefault{10^{0}}$ -->
      <g transform="translate(121.7 563.076744662)scale(0.1 -0.1)">
       <use transform="translate(0.0 0.234375)" xlink:href="#DejaVuSans-31"/>
       <use transform="translate(63.623046875 0.234375)" xlink:href="#DejaVuSans-30"/>
       <use transform="translate(127.24609375 58.046875)scale(0.7)" xlink:href="#DejaVuSans-30"/>
      </g>
     </g>
    </g>
    <g id="ytick_2">
     <g id="line2d_41">
      <g>
       <use style="stroke:#000000;stroke-width:0.5;" x="144.0" xlink:href="#m728421d6d4" y="396.882130163"/>
      </g>
     </g>
     <g id="line2d_42">
      <g>
       <use style="stroke:#000000;stroke-width:0.5;" x="1036.8" xlink:href="#mcb0005524f" y="396.882130163"/>
      </g>
     </g>
     <g id="text_5">
      <!-- $\mathdefault{10^{1}}$ -->
      <g transform="translate(121.7 400.352442663)scale(0.1 -0.1)">
       <use transform="translate(0.0 0.153125)" xlink:href="#DejaVuSans-31"/>
       <use transform="translate(63.623046875 0.153125)" xlink:href="#DejaVuSans-30"/>
       <use transform="translate(127.24609375 57.965625)scale(0.7)" xlink:href="#DejaVuSans-31"/>
      </g>
     </g>
    </g>
    <g id="ytick_3">
     <g id="line2d_43">
      <g>
       <use style="stroke:#000000;stroke-width:0.5;" x="144.0" xlink:href="#m728421d6d4" y="234.207828165"/>
      </g>
     </g>
     <g id="line2d_44">
      <g>
       <use style="stroke:#000000;stroke-width:0.5;" x="1036.8" xlink:href="#mcb0005524f" y="234.207828165"/>
      </g>
     </g>
     <g id="text_6">
      <!-- $\mathdefault{10^{2}}$ -->
      <g transform="translate(121.7 237.728140665)scale(0.1 -0.1)">
       <use transform="translate(0.0 0.234375)" xlink:href="#DejaVuSans-31"/>
       <use transform="translate(63.623046875 0.234375)" xlink:href="#DejaVuSans-30"/>
       <use transform="translate(127.24609375 58.046875)scale(0.7)" xlink:href="#DejaVuSans-32"/>
      </g>
     </g>
    </g>
    <g id="ytick_4">
     <g id="line2d_45">
      <g>
       <use style="stroke:#000000;stroke-width:0.5;" x="144.0" xlink:href="#m728421d6d4" y="71.533526166"/>
      </g>
     </g>
     <g id="line2d_46">
      <g>
       <use style="stroke:#000000;stroke-width:0.5;" x="1036.8" xlink:href="#mcb0005524f" y="71.533526166"/>
      </g>
     </g>
     <g id="text_7">
      <!-- $\mathdefault{10^{3}}$ -->
      <g transform="translate(121.7 75.053838666)scale(0.1 -0.1)">
       <use transform="translate(0.0 0.234375)" xlink:href="#DejaVuSans-31"/>
       <use transform="translate(63.623046875 0.234375)" xlink:href="#DejaVuSans-30"/>
       <use transform="translate(127.24609375 58.046875)scale(0.7)" xlink:href="#DejaVuSans-33"/>
      </g>
     </g>
    </g>
    <g id="ytick_5">
     <g id="line2d_47">
      <defs>
       <path d="
M0 0
L2 0" id="mf0c55a9a47" style="stroke:#000000;stroke-width:0.5;"/>
      </defs>
      <g>
       <use style="stroke:#000000;stroke-width:0.5;" x="144.0" xlink:href="#mf0c55a9a47" y="567.0"/>
      </g>
     </g>
     <g id="line2d_48">
      <defs>
       <path d="
M0 0
L-2 0" id="ma4f294b3af" style="stroke:#000000;stroke-width:0.5;"/>
      </defs>
      <g>
       <use style="stroke:#000000;stroke-width:0.5;" x="1036.8" xlink:href="#ma4f294b3af" y="567.0"/>
      </g>
     </g>
    </g>
    <g id="ytick_6">
     <g id="line2d_49">
      <g>
       <use style="stroke:#000000;stroke-width:0.5;" x="144.0" xlink:href="#mf0c55a9a47" y="510.586587737"/>
      </g>
     </g>
     <g id="line2d_50">
      <g>
       <use style="stroke:#000000;stroke-width:0.5;" x="1036.8" xlink:href="#ma4f294b3af" y="510.586587737"/>
      </g>
     </g>
    </g>
    <g id="ytick_7">
     <g id="line2d_51">
      <g>
       <use style="stroke:#000000;stroke-width:0.5;" x="144.0" xlink:href="#mf0c55a9a47" y="481.941065082"/>
      </g>
     </g>
     <g id="line2d_52">
      <g>
       <use style="stroke:#000000;stroke-width:0.5;" x="1036.8" xlink:href="#ma4f294b3af" y="481.941065082"/>
      </g>
     </g>
    </g>
    <g id="ytick_8">
     <g id="line2d_53">
      <g>
       <use style="stroke:#000000;stroke-width:0.5;" x="144.0" xlink:href="#mf0c55a9a47" y="461.616743311"/>
      </g>
     </g>
     <g id="line2d_54">
      <g>
       <use style="stroke:#000000;stroke-width:0.5;" x="1036.8" xlink:href="#ma4f294b3af" y="461.616743311"/>
      </g>
     </g>
    </g>
    <g id="ytick_9">
     <g id="line2d_55">
      <g>
       <use style="stroke:#000000;stroke-width:0.5;" x="144.0" xlink:href="#mf0c55a9a47" y="445.851974588"/>
      </g>
     </g>
     <g id="line2d_56">
      <g>
       <use style="stroke:#000000;stroke-width:0.5;" x="1036.8" xlink:href="#ma4f294b3af" y="445.851974588"/>
      </g>
     </g>
    </g>
    <g id="ytick_10">
     <g id="line2d_57">
      <g>
       <use style="stroke:#000000;stroke-width:0.5;" x="144.0" xlink:href="#mf0c55a9a47" y="432.971220656"/>
      </g>
     </g>
     <g id="line2d_58">
      <g>
       <use style="stroke:#000000;stroke-width:0.5;" x="1036.8" xlink:href="#ma4f294b3af" y="432.971220656"/>
      </g>
     </g>
    </g>
    <g id="ytick_11">
     <g id="line2d_59">
      <g>
       <use style="stroke:#000000;stroke-width:0.5;" x="144.0" xlink:href="#mf0c55a9a47" y="422.080698382"/>
      </g>
     </g>
     <g id="line2d_60">
      <g>
       <use style="stroke:#000000;stroke-width:0.5;" x="1036.8" xlink:href="#ma4f294b3af" y="422.080698382"/>
      </g>
     </g>
    </g>
    <g id="ytick_12">
     <g id="line2d_61">
      <g>
       <use style="stroke:#000000;stroke-width:0.5;" x="144.0" xlink:href="#mf0c55a9a47" y="412.646898886"/>
      </g>
     </g>
     <g id="line2d_62">
      <g>
       <use style="stroke:#000000;stroke-width:0.5;" x="1036.8" xlink:href="#ma4f294b3af" y="412.646898886"/>
      </g>
     </g>
    </g>
    <g id="ytick_13">
     <g id="line2d_63">
      <g>
       <use style="stroke:#000000;stroke-width:0.5;" x="144.0" xlink:href="#mf0c55a9a47" y="404.325698001"/>
      </g>
     </g>
     <g id="line2d_64">
      <g>
       <use style="stroke:#000000;stroke-width:0.5;" x="1036.8" xlink:href="#ma4f294b3af" y="404.325698001"/>
      </g>
     </g>
    </g>
    <g id="ytick_14">
     <g id="line2d_65">
      <g>
       <use style="stroke:#000000;stroke-width:0.5;" x="144.0" xlink:href="#mf0c55a9a47" y="347.912285738"/>
      </g>
     </g>
     <g id="line2d_66">
      <g>
       <use style="stroke:#000000;stroke-width:0.5;" x="1036.8" xlink:href="#ma4f294b3af" y="347.912285738"/>
      </g>
     </g>
    </g>
    <g id="ytick_15">
     <g id="line2d_67">
      <g>
       <use style="stroke:#000000;stroke-width:0.5;" x="144.0" xlink:href="#mf0c55a9a47" y="319.266763083"/>
      </g>
     </g>
     <g id="line2d_68">
      <g>
       <use style="stroke:#000000;stroke-width:0.5;" x="1036.8" xlink:href="#ma4f294b3af" y="319.266763083"/>
      </g>
     </g>
    </g>
    <g id="ytick_16">
     <g id="line2d_69">
      <g>
       <use style="stroke:#000000;stroke-width:0.5;" x="144.0" xlink:href="#mf0c55a9a47" y="298.942441313"/>
      </g>
     </g>
     <g id="line2d_70">
      <g>
       <use style="stroke:#000000;stroke-width:0.5;" x="1036.8" xlink:href="#ma4f294b3af" y="298.942441313"/>
      </g>
     </g>
    </g>
    <g id="ytick_17">
     <g id="line2d_71">
      <g>
       <use style="stroke:#000000;stroke-width:0.5;" x="144.0" xlink:href="#mf0c55a9a47" y="283.17767259"/>
      </g>
     </g>
     <g id="line2d_72">
      <g>
       <use style="stroke:#000000;stroke-width:0.5;" x="1036.8" xlink:href="#ma4f294b3af" y="283.17767259"/>
      </g>
     </g>
    </g>
    <g id="ytick_18">
     <g id="line2d_73">
      <g>
       <use style="stroke:#000000;stroke-width:0.5;" x="144.0" xlink:href="#mf0c55a9a47" y="270.296918658"/>
      </g>
     </g>
     <g id="line2d_74">
      <g>
       <use style="stroke:#000000;stroke-width:0.5;" x="1036.8" xlink:href="#ma4f294b3af" y="270.296918658"/>
      </g>
     </g>
    </g>
    <g id="ytick_19">
     <g id="line2d_75">
      <g>
       <use style="stroke:#000000;stroke-width:0.5;" x="144.0" xlink:href="#mf0c55a9a47" y="259.406396383"/>
      </g>
     </g>
     <g id="line2d_76">
      <g>
       <use style="stroke:#000000;stroke-width:0.5;" x="1036.8" xlink:href="#ma4f294b3af" y="259.406396383"/>
      </g>
     </g>
    </g>
    <g id="ytick_20">
     <g id="line2d_77">
      <g>
       <use style="stroke:#000000;stroke-width:0.5;" x="144.0" xlink:href="#mf0c55a9a47" y="249.972596887"/>
      </g>
     </g>
     <g id="line2d_78">
      <g>
       <use style="stroke:#000000;stroke-width:0.5;" x="1036.8" xlink:href="#ma4f294b3af" y="249.972596887"/>
      </g>
     </g>
    </g>
    <g id="ytick_21">
     <g id="line2d_79">
      <g>
       <use style="stroke:#000000;stroke-width:0.5;" x="144.0" xlink:href="#mf0c55a9a47" y="241.651396003"/>
      </g>
     </g>
     <g id="line2d_80">
      <g>
       <use style="stroke:#000000;stroke-width:0.5;" x="1036.8" xlink:href="#ma4f294b3af" y="241.651396003"/>
      </g>
     </g>
    </g>
    <g id="ytick_22">
     <g id="line2d_81">
      <g>
       <use style="stroke:#000000;stroke-width:0.5;" x="144.0" xlink:href="#mf0c55a9a47" y="185.237983739"/>
      </g>
     </g>
     <g id="line2d_82">
      <g>
       <use style="stroke:#000000;stroke-width:0.5;" x="1036.8" xlink:href="#ma4f294b3af" y="185.237983739"/>
      </g>
     </g>
    </g>
    <g id="ytick_23">
     <g id="line2d_83">
      <g>
       <use style="stroke:#000000;stroke-width:0.5;" x="144.0" xlink:href="#mf0c55a9a47" y="156.592461084"/>
      </g>
     </g>
     <g id="line2d_84">
      <g>
       <use style="stroke:#000000;stroke-width:0.5;" x="1036.8" xlink:href="#ma4f294b3af" y="156.592461084"/>
      </g>
     </g>
    </g>
    <g id="ytick_24">
     <g id="line2d_85">
      <g>
       <use style="stroke:#000000;stroke-width:0.5;" x="144.0" xlink:href="#mf0c55a9a47" y="136.268139314"/>
      </g>
     </g>
     <g id="line2d_86">
      <g>
       <use style="stroke:#000000;stroke-width:0.5;" x="1036.8" xlink:href="#ma4f294b3af" y="136.268139314"/>
      </g>
     </g>
    </g>
    <g id="ytick_25">
     <g id="line2d_87">
      <g>
       <use style="stroke:#000000;stroke-width:0.5;" x="144.0" xlink:href="#mf0c55a9a47" y="120.503370591"/>
      </g>
     </g>
     <g id="line2d_88">
      <g>
       <use style="stroke:#000000;stroke-width:0.5;" x="1036.8" xlink:href="#ma4f294b3af" y="120.503370591"/>
      </g>
     </g>
    </g>
    <g id="ytick_26">
     <g id="line2d_89">
      <g>
       <use style="stroke:#000000;stroke-width:0.5;" x="144.0" xlink:href="#mf0c55a9a47" y="107.622616659"/>
      </g>
     </g>
     <g id="line2d_90">
      <g>
       <use style="stroke:#000000;stroke-width:0.5;" x="1036.8" xlink:href="#ma4f294b3af" y="107.622616659"/>
      </g>
     </g>
    </g>
    <g id="ytick_27">
     <g id="line2d_91">
      <g>
       <use style="stroke:#000000;stroke-width:0.5;" x="144.0" xlink:href="#mf0c55a9a47" y="96.7320943849"/>
      </g>
     </g>
     <g id="line2d_92">
      <g>
       <use style="stroke:#000000;stroke-width:0.5;" x="1036.8" xlink:href="#ma4f294b3af" y="96.7320943849"/>
      </g>
     </g>
    </g>
    <g id="ytick_28">
     <g id="line2d_93">
      <g>
       <use style="stroke:#000000;stroke-width:0.5;" x="144.0" xlink:href="#mf0c55a9a47" y="87.2982948887"/>
      </g>
     </g>
     <g id="line2d_94">
      <g>
       <use style="stroke:#000000;stroke-width:0.5;" x="1036.8" xlink:href="#ma4f294b3af" y="87.2982948887"/>
      </g>
     </g>
    </g>
    <g id="ytick_29">
     <g id="line2d_95">
      <g>
       <use style="stroke:#000000;stroke-width:0.5;" x="144.0" xlink:href="#mf0c55a9a47" y="78.9770940041"/>
      </g>
     </g>
     <g id="line2d_96">
      <g>
       <use style="stroke:#000000;stroke-width:0.5;" x="1036.8" xlink:href="#ma4f294b3af" y="78.9770940041"/>
      </g>
     </g>
    </g>
    <g id="text_8">
     <!-- Frequenza -->
     <defs>
      <path d="
M54.8906 33.0156
L54.8906 0
L45.9062 0
L45.9062 32.7188
Q45.9062 40.4844 42.875 44.3281
Q39.8438 48.1875 33.7969 48.1875
Q26.5156 48.1875 22.3125 43.5469
Q18.1094 38.9219 18.1094 30.9062
L18.1094 0
L9.07812 0
L9.07812 54.6875
L18.1094 54.6875
L18.1094 46.1875
Q21.3438 51.125 25.7031 53.5625
Q30.0781 56 35.7969 56
Q45.2188 56 50.0469 50.1719
Q54.8906 44.3438 54.8906 33.0156" id="DejaVuSans-6e"/>
      <path d="
M5.51562 54.6875
L48.1875 54.6875
L48.1875 46.4844
L14.4062 7.17188
L48.1875 7.17188
L48.1875 0
L4.29688 0
L4.29688 8.20312
L38.0938 47.5156
L5.51562 47.5156
z
" id="DejaVuSans-7a"/>
      <path d="
M9.8125 72.9062
L51.7031 72.9062
L51.7031 64.5938
L19.6719 64.5938
L19.6719 43.1094
L48.5781 43.1094
L48.5781 34.8125
L19.6719 34.8125
L19.6719 0
L9.8125 0
z
" id="DejaVuSans-46"/>
      <path d="
M8.5 21.5781
L8.5 54.6875
L17.4844 54.6875
L17.4844 21.9219
Q17.4844 14.1562 20.5 10.2656
Q23.5312 6.39062 29.5938 6.39062
Q36.8594 6.39062 41.0781 11.0312
Q45.3125 15.6719 45.3125 23.6875
L45.3125 54.6875
L54.2969 54.6875
L54.2969 0
L45.3125 0
L45.3125 8.40625
Q42.0469 3.42188 37.7188 1
Q33.4062 -1.42188 27.6875 -1.42188
Q18.2656 -1.42188 13.375 4.4375
Q8.5 10.2969 8.5 21.5781
M31.1094 56
z
" id="DejaVuSans-75"/>
      <path d="
M56.2031 29.5938
L56.2031 25.2031
L14.8906 25.2031
Q15.4844 15.9219 20.4844 11.0625
Q25.4844 6.20312 34.4219 6.20312
Q39.5938 6.20312 44.4531 7.46875
Q49.3125 8.73438 54.1094 11.2812
L54.1094 2.78125
Q49.2656 0.734375 44.1875 -0.34375
Q39.1094 -1.42188 33.8906 -1.42188
Q20.7969 -1.42188 13.1562 6.1875
Q5.51562 13.8125 5.51562 26.8125
Q5.51562 40.2344 12.7656 48.1094
Q20.0156 56 32.3281 56
Q43.3594 56 49.7812 48.8906
Q56.2031 41.7969 56.2031 29.5938
M47.2188 32.2344
Q47.125 39.5938 43.0938 43.9844
Q39.0625 48.3906 32.4219 48.3906
Q24.9062 48.3906 20.3906 44.1406
Q15.875 39.8906 15.1875 32.1719
z
" id="DejaVuSans-65"/>
      <path d="
M14.7969 27.2969
Q14.7969 17.3906 18.875 11.75
Q22.9531 6.10938 30.0781 6.10938
Q37.2031 6.10938 41.2969 11.75
Q45.4062 17.3906 45.4062 27.2969
Q45.4062 37.2031 41.2969 42.8438
Q37.2031 48.4844 30.0781 48.4844
Q22.9531 48.4844 18.875 42.8438
Q14.7969 37.2031 14.7969 27.2969
M45.4062 8.20312
Q42.5781 3.32812 38.25 0.953125
Q33.9375 -1.42188 27.875 -1.42188
Q17.9688 -1.42188 11.7344 6.48438
Q5.51562 14.4062 5.51562 27.2969
Q5.51562 40.1875 11.7344 48.0938
Q17.9688 56 27.875 56
Q33.9375 56 38.25 53.625
Q42.5781 51.2656 45.4062 46.3906
L45.4062 54.6875
L54.3906 54.6875
L54.3906 -20.7969
L45.4062 -20.7969
z
" id="DejaVuSans-71"/>
     </defs>
     <g transform="translate(114.6203125 340.76484375)rotate(-90.0)scale(0.1 -0.1)">
      <use xlink:href="#DejaVuSans-46"/>
      <use x="50.26953125" xlink:href="#DejaVuSans-72"/>
      <use x="89.1328125" xlink:href="#DejaVuSans-65"/>
      <use x="150.65625" xlink:href="#DejaVuSans-71"/>
      <use x="214.1328125" xlink:href="#DejaVuSans-75"/>
      <use x="277.51171875" xlink:href="#DejaVuSans-65"/>
      <use x="339.03515625" xlink:href="#DejaVuSans-6e"/>
      <use x="402.4140625" xlink:href="#DejaVuSans-7a"/>
      <use x="454.904296875" xlink:href="#DejaVuSans-61"/>
     </g>
    </g>
   </g>
   <g id="text_9">
    <!-- Comparazione distribuzioni del grado -->
    <defs>
     <path d="
M45.4062 27.9844
Q45.4062 37.75 41.375 43.1094
Q37.3594 48.4844 30.0781 48.4844
Q22.8594 48.4844 18.8281 43.1094
Q14.7969 37.75 14.7969 27.9844
Q14.7969 18.2656 18.8281 12.8906
Q22.8594 7.51562 30.0781 7.51562
Q37.3594 7.51562 41.375 12.8906
Q45.4062 18.2656 45.4062 27.9844
M54.3906 6.78125
Q54.3906 -7.17188 48.1875 -13.9844
Q42 -20.7969 29.2031 -20.7969
Q24.4688 -20.7969 20.2656 -20.0938
Q16.0625 -19.3906 12.1094 -17.9219
L12.1094 -9.1875
Q16.0625 -11.3281 19.9219 -12.3438
Q23.7812 -13.375 27.7812 -13.375
Q36.625 -13.375 41.0156 -8.76562
Q45.4062 -4.15625 45.4062 5.17188
L45.4062 9.625
Q42.625 4.78125 38.2812 2.39062
Q33.9375 0 27.875 0
Q17.8281 0 11.6719 7.65625
Q5.51562 15.3281 5.51562 27.9844
Q5.51562 40.6719 11.6719 48.3281
Q17.8281 56 27.875 56
Q33.9375 56 38.2812 53.6094
Q42.625 51.2188 45.4062 46.3906
L45.4062 54.6875
L54.3906 54.6875
z
" id="DejaVuSans-67"/>
     <path d="
M52 44.1875
Q55.375 50.25 60.0625 53.125
Q64.75 56 71.0938 56
Q79.6406 56 84.2812 50.0156
Q88.9219 44.0469 88.9219 33.0156
L88.9219 0
L79.8906 0
L79.8906 32.7188
Q79.8906 40.5781 77.0938 44.375
Q74.3125 48.1875 68.6094 48.1875
Q61.625 48.1875 57.5625 43.5469
Q53.5156 38.9219 53.5156 30.9062
L53.5156 0
L44.4844 0
L44.4844 32.7188
Q44.4844 40.625 41.7031 44.4062
Q38.9219 48.1875 33.1094 48.1875
Q26.2188 48.1875 22.1562 43.5312
Q18.1094 38.875 18.1094 30.9062
L18.1094 0
L9.07812 0
L9.07812 54.6875
L18.1094 54.6875
L18.1094 46.1875
Q21.1875 51.2188 25.4844 53.6094
Q29.7812 56 35.6875 56
Q41.6562 56 45.8281 52.9688
Q50 49.9531 52 44.1875" id="DejaVuSans-6d"/>
     <path d="
M64.4062 67.2812
L64.4062 56.8906
Q59.4219 61.5312 53.7812 63.8125
Q48.1406 66.1094 41.7969 66.1094
Q29.2969 66.1094 22.6562 58.4688
Q16.0156 50.8281 16.0156 36.375
Q16.0156 21.9688 22.6562 14.3281
Q29.2969 6.6875 41.7969 6.6875
Q48.1406 6.6875 53.7812 8.98438
Q59.4219 11.2812 64.4062 15.9219
L64.4062 5.60938
Q59.2344 2.09375 53.4375 0.328125
Q47.6562 -1.42188 41.2188 -1.42188
Q24.6562 -1.42188 15.125 8.70312
Q5.60938 18.8438 5.60938 36.375
Q5.60938 53.9531 15.125 64.0781
Q24.6562 74.2188 41.2188 74.2188
Q47.75 74.2188 53.5312 72.4844
Q59.3281 70.75 64.4062 67.2812" id="DejaVuSans-43"/>
     <path d="
M9.42188 75.9844
L18.4062 75.9844
L18.4062 0
L9.42188 0
z
" id="DejaVuSans-6c"/>
     <path id="DejaVuSans-20"/>
     <path d="
M9.42188 54.6875
L18.4062 54.6875
L18.4062 0
L9.42188 0
z

M9.42188 75.9844
L18.4062 75.9844
L18.4062 64.5938
L9.42188 64.5938
z
" id="DejaVuSans-69"/>
     <path d="
M18.3125 70.2188
L18.3125 54.6875
L36.8125 54.6875
L36.8125 47.7031
L18.3125 47.7031
L18.3125 18.0156
Q18.3125 11.3281 20.1406 9.42188
Q21.9688 7.51562 27.5938 7.51562
L36.8125 7.51562
L36.8125 0
L27.5938 0
Q17.1875 0 13.2344 3.875
Q9.28125 7.76562 9.28125 18.0156
L9.28125 47.7031
L2.6875 47.7031
L2.6875 54.6875
L9.28125 54.6875
L9.28125 70.2188
z
" id="DejaVuSans-74"/>
     <path d="
M48.6875 27.2969
Q48.6875 37.2031 44.6094 42.8438
Q40.5312 48.4844 33.4062 48.4844
Q26.2656 48.4844 22.1875 42.8438
Q18.1094 37.2031 18.1094 27.2969
Q18.1094 17.3906 22.1875 11.75
Q26.2656 6.10938 33.4062 6.10938
Q40.5312 6.10938 44.6094 11.75
Q48.6875 17.3906 48.6875 27.2969
M18.1094 46.3906
Q20.9531 51.2656 25.2656 53.625
Q29.5938 56 35.5938 56
Q45.5625 56 51.7812 48.0938
Q58.0156 40.1875 58.0156 27.2969
Q58.0156 14.4062 51.7812 6.48438
Q45.5625 -1.42188 35.5938 -1.42188
Q29.5938 -1.42188 25.2656 0.953125
Q20.9531 3.32812 18.1094 8.20312
L18.1094 0
L9.07812 0
L9.07812 75.9844
L18.1094 75.9844
z
" id="DejaVuSans-62"/>
     <path d="
M18.1094 8.20312
L18.1094 -20.7969
L9.07812 -20.7969
L9.07812 54.6875
L18.1094 54.6875
L18.1094 46.3906
Q20.9531 51.2656 25.2656 53.625
Q29.5938 56 35.5938 56
Q45.5625 56 51.7812 48.0938
Q58.0156 40.1875 58.0156 27.2969
Q58.0156 14.4062 51.7812 6.48438
Q45.5625 -1.42188 35.5938 -1.42188
Q29.5938 -1.42188 25.2656 0.953125
Q20.9531 3.32812 18.1094 8.20312
M48.6875 27.2969
Q48.6875 37.2031 44.6094 42.8438
Q40.5312 48.4844 33.4062 48.4844
Q26.2656 48.4844 22.1875 42.8438
Q18.1094 37.2031 18.1094 27.2969
Q18.1094 17.3906 22.1875 11.75
Q26.2656 6.10938 33.4062 6.10938
Q40.5312 6.10938 44.6094 11.75
Q48.6875 17.3906 48.6875 27.2969" id="DejaVuSans-70"/>
     <path d="
M44.2812 53.0781
L44.2812 44.5781
Q40.4844 46.5312 36.375 47.5
Q32.2812 48.4844 27.875 48.4844
Q21.1875 48.4844 17.8438 46.4375
Q14.5 44.3906 14.5 40.2812
Q14.5 37.1562 16.8906 35.375
Q19.2812 33.5938 26.5156 31.9844
L29.5938 31.2969
Q39.1562 29.25 43.1875 25.5156
Q47.2188 21.7812 47.2188 15.0938
Q47.2188 7.46875 41.1875 3.01562
Q35.1562 -1.42188 24.6094 -1.42188
Q20.2188 -1.42188 15.4531 -0.5625
Q10.6875 0.296875 5.42188 2
L5.42188 11.2812
Q10.4062 8.6875 15.2344 7.39062
Q20.0625 6.10938 24.8125 6.10938
Q31.1562 6.10938 34.5625 8.28125
Q37.9844 10.4531 37.9844 14.4062
Q37.9844 18.0625 35.5156 20.0156
Q33.0625 21.9688 24.7031 23.7812
L21.5781 24.5156
Q13.2344 26.2656 9.51562 29.9062
Q5.8125 33.5469 5.8125 39.8906
Q5.8125 47.6094 11.2812 51.7969
Q16.75 56 26.8125 56
Q31.7812 56 36.1719 55.2656
Q40.5781 54.5469 44.2812 53.0781" id="DejaVuSans-73"/>
    </defs>
    <g transform="translate(478.4353125 59.8)scale(0.12 -0.12)">
     <use xlink:href="#DejaVuSans-43"/>
     <use x="69.82421875" xlink:href="#DejaVuSans-6f"/>
     <use x="131.005859375" xlink:href="#DejaVuSans-6d"/>
     <use x="228.41796875" xlink:href="#DejaVuSans-70"/>
     <use x="291.89453125" xlink:href="#DejaVuSans-61"/>
     <use x="353.173828125" xlink:href="#DejaVuSans-72"/>
     <use x="394.287109375" xlink:href="#DejaVuSans-61"/>
     <use x="455.56640625" xlink:href="#DejaVuSans-7a"/>
     <use x="508.056640625" xlink:href="#DejaVuSans-69"/>
     <use x="535.83984375" xlink:href="#DejaVuSans-6f"/>
     <use x="597.021484375" xlink:href="#DejaVuSans-6e"/>
     <use x="660.400390625" xlink:href="#DejaVuSans-65"/>
     <use x="721.923828125" xlink:href="#DejaVuSans-20"/>
     <use x="753.7109375" xlink:href="#DejaVuSans-64"/>
     <use x="817.1875" xlink:href="#DejaVuSans-69"/>
     <use x="844.970703125" xlink:href="#DejaVuSans-73"/>
     <use x="897.0703125" xlink:href="#DejaVuSans-74"/>
     <use x="936.279296875" xlink:href="#DejaVuSans-72"/>
     <use x="977.392578125" xlink:href="#DejaVuSans-69"/>
     <use x="1005.17578125" xlink:href="#DejaVuSans-62"/>
     <use x="1068.65234375" xlink:href="#DejaVuSans-75"/>
     <use x="1132.03125" xlink:href="#DejaVuSans-7a"/>
     <use x="1184.52148438" xlink:href="#DejaVuSans-69"/>
     <use x="1212.3046875" xlink:href="#DejaVuSans-6f"/>
     <use x="1273.48632812" xlink:href="#DejaVuSans-6e"/>
     <use x="1336.86523438" xlink:href="#DejaVuSans-69"/>
     <use x="1364.6484375" xlink:href="#DejaVuSans-20"/>
     <use x="1396.43554688" xlink:href="#DejaVuSans-64"/>
     <use x="1459.91210938" xlink:href="#DejaVuSans-65"/>
     <use x="1521.43554688" xlink:href="#DejaVuSans-6c"/>
     <use x="1549.21875" xlink:href="#DejaVuSans-20"/>
     <use x="1581.00585938" xlink:href="#DejaVuSans-67"/>
     <use x="1644.48242188" xlink:href="#DejaVuSans-72"/>
     <use x="1685.59570312" xlink:href="#DejaVuSans-61"/>
     <use x="1746.875" xlink:href="#DejaVuSans-64"/>
     <use x="1810.3515625" xlink:href="#DejaVuSans-6f"/>
    </g>
   </g>
   <g id="legend_1">
    <g id="patch_10">
     <path d="
M896.392 127.241
L1030.8 127.241
L1030.8 70.8
L896.392 70.8
z
" style="fill:#ffffff;stroke:#000000;stroke-linejoin:miter;"/>
    </g>
    <g id="patch_11">
     <path d="
M901.192 84.7181
L925.192 84.7181
L925.192 76.3181
L901.192 76.3181
z
" style="fill:none;opacity:0.7;stroke:#699534;stroke-linejoin:miter;stroke-width:3;"/>
    </g>
    <g id="text_10">
     <!-- Erdos-Renyi -->
     <defs>
      <path d="
M9.8125 72.9062
L55.9062 72.9062
L55.9062 64.5938
L19.6719 64.5938
L19.6719 43.0156
L54.3906 43.0156
L54.3906 34.7188
L19.6719 34.7188
L19.6719 8.29688
L56.7812 8.29688
L56.7812 0
L9.8125 0
z
" id="DejaVuSans-45"/>
      <path d="
M32.1719 -5.07812
Q28.375 -14.8438 24.75 -17.8125
Q21.1406 -20.7969 15.0938 -20.7969
L7.90625 -20.7969
L7.90625 -13.2812
L13.1875 -13.2812
Q16.8906 -13.2812 18.9375 -11.5156
Q21 -9.76562 23.4844 -3.21875
L25.0938 0.875
L2.98438 54.6875
L12.5 54.6875
L29.5938 11.9219
L46.6875 54.6875
L56.2031 54.6875
z
" id="DejaVuSans-79"/>
      <path d="
M4.89062 31.3906
L31.2031 31.3906
L31.2031 23.3906
L4.89062 23.3906
z
" id="DejaVuSans-2d"/>
      <path d="
M44.3906 34.1875
Q47.5625 33.1094 50.5625 29.5938
Q53.5625 26.0781 56.5938 19.9219
L66.6094 0
L56 0
L46.6875 18.7031
Q43.0625 26.0312 39.6719 28.4219
Q36.2812 30.8125 30.4219 30.8125
L19.6719 30.8125
L19.6719 0
L9.8125 0
L9.8125 72.9062
L32.0781 72.9062
Q44.5781 72.9062 50.7344 67.6719
Q56.8906 62.4531 56.8906 51.9062
Q56.8906 45.0156 53.6875 40.4688
Q50.4844 35.9375 44.3906 34.1875
M19.6719 64.7969
L19.6719 38.9219
L32.0781 38.9219
Q39.2031 38.9219 42.8438 42.2188
Q46.4844 45.5156 46.4844 51.9062
Q46.4844 58.2969 42.8438 61.5469
Q39.2031 64.7969 32.0781 64.7969
z
" id="DejaVuSans-52"/>
     </defs>
     <g transform="translate(934.7925 84.718125)scale(0.12 -0.12)">
      <use xlink:href="#DejaVuSans-45"/>
      <use x="63.18359375" xlink:href="#DejaVuSans-72"/>
      <use x="102.546875" xlink:href="#DejaVuSans-64"/>
      <use x="166.0234375" xlink:href="#DejaVuSans-6f"/>
      <use x="227.205078125" xlink:href="#DejaVuSans-73"/>
      <use x="279.3046875" xlink:href="#DejaVuSans-2d"/>
      <use x="315.388671875" xlink:href="#DejaVuSans-52"/>
      <use x="380.37109375" xlink:href="#DejaVuSans-65"/>
      <use x="441.89453125" xlink:href="#DejaVuSans-6e"/>
      <use x="505.2734375" xlink:href="#DejaVuSans-79"/>
      <use x="564.453125" xlink:href="#DejaVuSans-69"/>
     </g>
    </g>
    <g id="patch_12">
     <path d="
M901.192 102.332
L925.192 102.332
L925.192 93.9319
L901.192 93.9319
z
" style="fill:none;opacity:0.7;stroke:#3d5a92;stroke-linejoin:miter;stroke-width:3;"/>
    </g>
    <g id="text_11">
     <!-- Watts-Strogatz -->
     <defs>
      <path d="
M53.5156 70.5156
L53.5156 60.8906
Q47.9062 63.5781 42.9219 64.8906
Q37.9375 66.2188 33.2969 66.2188
Q25.25 66.2188 20.875 63.0938
Q16.5 59.9688 16.5 54.2031
Q16.5 49.3594 19.4062 46.8906
Q22.3125 44.4375 30.4219 42.9219
L36.375 41.7031
Q47.4062 39.5938 52.6562 34.2969
Q57.9062 29 57.9062 20.125
Q57.9062 9.51562 50.7969 4.04688
Q43.7031 -1.42188 29.9844 -1.42188
Q24.8125 -1.42188 18.9688 -0.25
Q13.1406 0.921875 6.89062 3.21875
L6.89062 13.375
Q12.8906 10.0156 18.6562 8.29688
Q24.4219 6.59375 29.9844 6.59375
Q38.4219 6.59375 43.0156 9.90625
Q47.6094 13.2344 47.6094 19.3906
Q47.6094 24.75 44.3125 27.7812
Q41.0156 30.8125 33.5 32.3281
L27.4844 33.5
Q16.4531 35.6875 11.5156 40.375
Q6.59375 45.0625 6.59375 53.4219
Q6.59375 63.0938 13.4062 68.6562
Q20.2188 74.2188 32.1719 74.2188
Q37.3125 74.2188 42.625 73.2812
Q47.9531 72.3594 53.5156 70.5156" id="DejaVuSans-53"/>
      <path d="
M3.32812 72.9062
L13.2812 72.9062
L28.6094 11.2812
L43.8906 72.9062
L54.9844 72.9062
L70.3125 11.2812
L85.5938 72.9062
L95.6094 72.9062
L77.2969 0
L64.8906 0
L49.5156 63.2812
L33.9844 0
L21.5781 0
z
" id="DejaVuSans-57"/>
     </defs>
     <g transform="translate(934.7925 102.331875)scale(0.12 -0.12)">
      <use xlink:href="#DejaVuSans-57"/>
      <use x="92.501953125" xlink:href="#DejaVuSans-61"/>
      <use x="153.78125" xlink:href="#DejaVuSans-74"/>
      <use x="192.990234375" xlink:href="#DejaVuSans-74"/>
      <use x="232.19921875" xlink:href="#DejaVuSans-73"/>
      <use x="284.298828125" xlink:href="#DejaVuSans-2d"/>
      <use x="320.3828125" xlink:href="#DejaVuSans-53"/>
      <use x="383.859375" xlink:href="#DejaVuSans-74"/>
      <use x="423.068359375" xlink:href="#DejaVuSans-72"/>
      <use x="461.931640625" xlink:href="#DejaVuSans-6f"/>
      <use x="523.11328125" xlink:href="#DejaVuSans-67"/>
      <use x="586.58984375" xlink:href="#DejaVuSans-61"/>
      <use x="647.869140625" xlink:href="#DejaVuSans-74"/>
      <use x="687.078125" xlink:href="#DejaVuSans-7a"/>
     </g>
    </g>
    <g id="patch_13">
     <path d="
M901.192 119.946
L925.192 119.946
L925.192 111.546
L901.192 111.546
z
" style="fill:none;opacity:0.7;stroke:#fd6266;stroke-linejoin:miter;stroke-width:3;"/>
    </g>
    <g id="text_12">
     <!-- Barabasi-Albert -->
     <defs>
      <path d="
M34.1875 63.1875
L20.7969 26.9062
L47.6094 26.9062
z

M28.6094 72.9062
L39.7969 72.9062
L67.5781 0
L57.3281 0
L50.6875 18.7031
L17.8281 18.7031
L11.1875 0
L0.78125 0
z
" id="DejaVuSans-41"/>
      <path d="
M19.6719 34.8125
L19.6719 8.10938
L35.5 8.10938
Q43.4531 8.10938 47.2812 11.4062
Q51.125 14.7031 51.125 21.4844
Q51.125 28.3281 47.2812 31.5625
Q43.4531 34.8125 35.5 34.8125
z

M19.6719 64.7969
L19.6719 42.8281
L34.2812 42.8281
Q41.5 42.8281 45.0312 45.5312
Q48.5781 48.25 48.5781 53.8125
Q48.5781 59.3281 45.0312 62.0625
Q41.5 64.7969 34.2812 64.7969
z

M9.8125 72.9062
L35.0156 72.9062
Q46.2969 72.9062 52.3906 68.2188
Q58.5 63.5312 58.5 54.8906
Q58.5 48.1875 55.375 44.2344
Q52.25 40.2812 46.1875 39.3125
Q53.4688 37.75 57.5 32.7812
Q61.5312 27.8281 61.5312 20.4062
Q61.5312 10.6406 54.8906 5.3125
Q48.25 0 35.9844 0
L9.8125 0
z
" id="DejaVuSans-42"/>
     </defs>
     <g transform="translate(934.7925 119.945625)scale(0.12 -0.12)">
      <use xlink:href="#DejaVuSans-42"/>
      <use x="68.603515625" xlink:href="#DejaVuSans-61"/>
      <use x="129.8828125" xlink:href="#DejaVuSans-72"/>
      <use x="170.99609375" xlink:href="#DejaVuSans-61"/>
      <use x="232.275390625" xlink:href="#DejaVuSans-62"/>
      <use x="295.751953125" xlink:href="#DejaVuSans-61"/>
      <use x="357.03125" xlink:href="#DejaVuSans-73"/>
      <use x="409.130859375" xlink:href="#DejaVuSans-69"/>
      <use x="436.9140625" xlink:href="#DejaVuSans-2d"/>
      <use x="470.748046875" xlink:href="#DejaVuSans-41"/>
      <use x="539.15625" xlink:href="#DejaVuSans-6c"/>
      <use x="566.939453125" xlink:href="#DejaVuSans-62"/>
      <use x="630.416015625" xlink:href="#DejaVuSans-65"/>
      <use x="691.939453125" xlink:href="#DejaVuSans-72"/>
      <use x="733.052734375" xlink:href="#DejaVuSans-74"/>
     </g>
    </g>
   </g>
  </g>
 </g>
 <defs>
  <clipPath id="p380bbe8dbe">
   <rect height="502.2" width="892.8" x="144.0" y="64.8"/>
  </clipPath>
 </defs>
</svg>
