<?xml version="1.0" encoding="utf-8" standalone="no"?>
<!DOCTYPE svg PUBLIC "-//W3C//DTD SVG 1.1//EN"
  "http://www.w3.org/Graphics/SVG/1.1/DTD/svg11.dtd">
<!-- Created with matplotlib (http://matplotlib.org/) -->
<svg height="648pt" version="1.1" viewBox="0 0 1152 648" width="1152pt" xmlns="http://www.w3.org/2000/svg" xmlns:xlink="http://www.w3.org/1999/xlink">
 <defs>
  <style type="text/css">
*{stroke-linecap:butt;stroke-linejoin:round;}
  </style>
 </defs>
 <g id="figure_1">
  <g id="patch_1">
   <path d="
M0 648
L1152 648
L1152 0
L0 0
z
" style="fill:#ffffff;"/>
  </g>
  <g id="axes_1">
   <g id="patch_2">
    <path d="
M144 567
L1036.8 567
L1036.8 64.8
L144 64.8
z
" style="fill:#ffffff;"/>
   </g>
   <g id="patch_3">
    <path clip-path="url(#p380bbe8dbe)" d="
M299.773 649
L299.773 559.556
L302.645 559.556
L302.645 649
M305.475 649
L305.475 559.556
L308.265 559.556
L308.265 649
M311.015 649
L311.015 510.587
L313.726 510.587
L313.726 559.556
L316.4 559.556
L316.4 461.617
L319.038 461.617
L319.038 412.647
L321.64 412.647
L321.64 422.081
L324.208 422.081
L324.208 368.237
L326.743 368.237
L326.743 373.111
L329.244 373.111
L329.244 355.356
L331.714 355.356
L331.714 335.032
L334.152 335.032
L334.152 308.376
L336.561 308.376
L336.561 293.833
L338.94 293.833
L338.94 251.761
L341.29 251.761
L341.29 254.532
L343.611 254.532
L343.611 220.741
L345.906 220.741
L345.906 232.809
L348.173 232.809
L348.173 226.201
L350.414 226.201
L350.414 201.891
L352.63 201.891
L352.63 193.471
L354.821 193.471
L354.821 187.755
L356.987 187.755
L356.987 179.474
L359.129 179.474
L359.129 173.545
L361.248 173.545
L361.248 167.522
L363.344 167.522
L363.344 152.922
L365.417 152.922
L365.417 154.733
L367.469 154.733
L367.469 148.797
L369.499 148.797
L369.499 144.105
L371.508 144.105
L371.508 141.967
L373.496 141.967
L373.496 135.916
L375.465 135.916
L375.465 138.785
L377.413 138.785
L377.413 137.515
L379.342 137.515
L379.342 137.876
L381.252 137.876
L381.252 132.99
L383.144 132.99
L383.144 137.876
L385.017 137.876
L385.017 140.452
L386.872 140.452
L386.872 140.64
L388.71 140.64
L388.71 150.504
L390.53 150.504
L390.53 149.008
L392.333 149.008
L392.333 157.065
L394.12 157.065
L394.12 160.465
L395.891 160.465
L395.891 168.91
L397.645 168.91
L397.645 172.652
L399.384 172.652
L399.384 175.672
L401.107 175.672
L401.107 180.129
L402.815 180.129
L402.815 195.077
L404.509 195.077
L404.509 205.562
L406.187 205.562
L406.187 220.159
L407.851 220.159
L407.851 228.119
L409.501 228.119
L409.501 226.835
L411.137 226.835
L411.137 252.673
L412.76 252.673
L412.76 263.563
L414.368 263.563
L414.368 270.297
L415.964 270.297
L415.964 289.068
L417.547 289.068
L417.547 295.495
L419.117 295.495
L419.117 341.179
L420.674 341.179
L420.674 326.71
L422.218 326.71
L422.218 344.465
L425.272 344.465
L425.272 368.237
L426.78 368.237
L426.78 432.971
L428.277 432.971
L428.277 412.647
L429.763 412.647
L429.763 445.852
L431.237 445.852
L431.237 481.941
L432.7 481.941
L432.7 432.971
L434.153 432.971
L434.153 481.941
L435.594 481.941
L435.594 510.587
L437.025 510.587
L437.025 559.556
L441.255 559.556
L441.255 510.587
L442.645 510.587
L442.645 649
L442.645 649" style="fill:none;opacity:0.7;stroke:#699534;stroke-linejoin:miter;stroke-width:3;"/>
   </g>
   <g id="patch_4">
    <path clip-path="url(#p380bbe8dbe)" d="
M345.906 49524.5
M345.906 649
L345.906 510.587
L348.173 510.587
L348.173 461.617
L350.414 461.617
L350.414 404.326
L352.63 404.326
L352.63 351.536
L354.821 351.536
L354.821 332.148
L356.987 332.148
L356.987 276.444
L359.129 276.444
L359.129 244.863
L361.248 244.863
L361.248 204.163
L363.344 204.163
L363.344 174.146
L365.417 174.146
L365.417 150.073
L367.469 150.073
L367.469 120.929
L369.499 120.929
L369.499 98.469
L371.508 98.469
L371.508 93.1891
L373.496 93.1891
L373.496 82.2711
L375.465 82.2711
L375.465 75.9801
L377.413 75.9801
L377.413 77.8866
L379.342 77.8866
L379.342 78.8986
L381.252 78.8986
L381.252 88.0976
L383.144 88.0976
L383.144 94.2529
L385.017 94.2529
L385.017 111.246
L386.872 111.246
L386.872 124.127
L388.71 124.127
L388.71 150.073
L390.53 150.073
L390.53 171.189
L392.333 171.189
L392.333 197.556
L394.12 197.556
L394.12 236.36
L395.891 236.36
L395.891 269.129
L397.645 269.129
L397.645 283.178
L399.384 283.178
L399.384 329.377
L401.107 329.377
L401.107 396.882
L402.815 396.882
L402.815 445.852
L404.509 445.852
L404.509 559.556
L406.187 559.556
L406.187 481.941
L407.851 481.941
L407.851 649" style="fill:none;opacity:0.7;stroke:#3d5a92;stroke-linejoin:miter;stroke-width:3;"/>
   </g>
   <g id="patch_5">
    <path clip-path="url(#p380bbe8dbe)" d="
M377.413 649
L377.413 185.948
L379.342 185.948
L379.342 186.306
L381.252 186.306
L381.252 194.269
L383.144 194.269
L383.144 189.235
L385.017 189.235
L385.017 206.99
L386.872 206.99
L386.872 204.163
L388.71 204.163
L388.71 200.563
L390.53 200.563
L390.53 189.235
L392.333 189.235
L392.333 197.137
L394.12 197.137
L394.12 200.563
L395.891 200.563
L395.891 213.531
L397.645 213.531
L397.645 223.116
L399.384 223.116
L399.384 228.771
L401.107 228.771
L401.107 204.163
L402.815 204.163
L402.815 208.446
L404.509 208.446
L404.509 209.934
L406.187 209.934
L406.187 225.573
L407.851 225.573
L407.851 223.116
L409.501 223.116
L409.501 224.334
L411.137 224.334
L411.137 223.722
L412.76 223.722
L412.76 228.119
L414.368 228.119
L414.368 228.771
L415.964 228.771
L415.964 232.12
L417.547 232.12
L417.547 221.327
L419.117 221.327
L419.117 237.092
L420.674 237.092
L420.674 230.091
L422.218 230.091
L422.218 235.635
L423.751 235.635
L423.751 244.863
L425.272 244.863
L425.272 239.335
L426.78 239.335
L426.78 236.36
L428.277 236.36
L428.277 241.651
L429.763 241.651
L429.763 246.526
L431.237 246.526
L431.237 242.441
L432.7 242.441
L432.7 243.239
L434.153 243.239
L434.153 238.579
L435.594 238.579
L435.594 257.416
L437.025 257.416
L437.025 249.095
L438.445 249.095
L438.445 250.861
L439.855 250.861
L439.855 256.442
L441.255 256.442
L441.255 251.761
L442.645 251.761
L442.645 255.48
L444.024 255.48
L444.024 244.863
L445.395 244.863
L445.395 283.178
L446.755 283.178
L446.755 280.407
L448.106 280.407
L448.106 244.046
L449.448 244.046
L449.448 279.061
L450.78 279.061
L450.78 271.484
L452.104 271.484
L452.104 279.061
L453.418 279.061
L453.418 280.407
L456.02 280.407
L456.02 276.444
L457.308 276.444
L457.308 279.061
L458.588 279.061
L458.588 276.444
L459.859 276.444
L459.859 280.407
L461.122 280.407
L461.122 283.178
L462.377 283.178
L462.377 270.297
L463.624 270.297
L463.624 295.495
L464.863 295.495
L464.863 289.068
L467.317 289.068
L467.317 283.178
L468.532 283.178
L468.532 298.942
L469.74 298.942
L469.74 297.198
L470.941 297.198
L470.941 280.407
L472.134 280.407
L472.134 283.178
L473.319 283.178
L473.319 289.068
L474.498 289.068
L474.498 293.833
L475.669 293.833
L475.669 279.061
L476.834 279.061
L476.834 306.386
L477.991 306.386
L477.991 284.605
L479.142 284.605
L479.142 290.621
L481.423 290.621
L481.423 304.45
L482.553 304.45
L482.553 306.386
L483.677 306.386
L483.677 308.376
L484.794 308.376
L484.794 316.95
L485.905 316.95
L485.905 310.424
L487.01 310.424
L487.01 302.566
L488.108 302.566
L488.108 308.376
L489.201 308.376
L489.201 306.386
L490.287 306.386
L490.287 286.062
L491.367 286.062
L491.367 316.95
L492.441 316.95
L492.441 310.424
L493.509 310.424
L493.509 316.95
L494.571 316.95
L494.571 326.71
L495.628 326.71
L495.628 321.662
L496.679 321.662
L496.679 319.267
L497.724 319.267
L497.724 321.662
L498.763 321.662
L498.763 304.45
L499.797 304.45
L499.797 329.377
L500.826 329.377
L500.826 324.141
L501.849 324.141
L501.849 321.662
L502.866 321.662
L502.866 314.707
L503.879 314.707
L503.879 355.356
L504.886 355.356
L504.886 321.662
L505.888 321.662
L505.888 314.707
L506.885 314.707
L506.885 329.377
L507.876 329.377
L507.876 332.148
L508.863 332.148
L508.863 329.377
L509.844 329.377
L509.844 326.71
L510.821 326.71
L510.821 355.356
L511.793 355.356
L511.793 319.267
L512.76 319.267
L512.76 332.148
L513.722 332.148
L513.722 319.267
L515.632 319.267
L515.632 344.465
L516.58 344.465
L516.58 347.912
L517.523 347.912
L517.523 329.377
L519.397 329.377
L519.397 341.179
L520.326 341.179
L520.326 326.71
L521.252 326.71
L521.252 355.356
L522.173 355.356
L522.173 335.032
L523.089 335.032
L523.089 329.377
L524.002 329.377
L524.002 341.179
L524.91 341.179
L524.91 351.536
L525.814 351.536
L525.814 355.356
L526.713 355.356
L526.713 351.536
L527.609 351.536
L527.609 363.677
L529.387 363.677
L529.387 351.536
L530.271 351.536
L530.271 368.237
L531.15 368.237
L531.15 355.356
L532.025 355.356
L532.025 344.465
L532.896 344.465
L532.896 355.356
L534.627 355.356
L534.627 378.346
L535.487 378.346
L535.487 355.356
L536.343 355.356
L536.343 412.647
L537.195 412.647
L537.195 378.346
L538.044 378.346
L538.044 329.377
L538.888 329.377
L538.888 384.001
L539.729 384.001
L539.729 363.677
L540.567 363.677
L540.567 368.237
L541.401 368.237
L541.401 396.882
L542.231 396.882
L542.231 351.536
L543.058 351.536
L543.058 338.038
L543.881 338.038
L543.881 341.179
L544.701 341.179
L544.701 390.149
L545.517 390.149
L545.517 396.882
L546.33 396.882
L546.33 384.001
L547.945 384.001
L547.945 373.111
L548.748 373.111
L548.748 351.536
L549.548 351.536
L549.548 396.882
L550.344 396.882
L550.344 355.356
L551.137 355.356
L551.137 363.677
L551.927 363.677
L551.927 384.001
L552.713 384.001
L552.713 351.536
L553.496 351.536
L553.496 378.346
L554.276 378.346
L554.276 396.882
L555.053 396.882
L555.053 390.149
L555.827 390.149
L555.827 384.001
L556.598 384.001
L556.598 396.882
L557.366 396.882
L557.366 359.394
L558.893 359.394
L558.893 378.346
L559.651 378.346
L559.651 384.001
L560.407 384.001
L560.407 378.346
L561.16 378.346
L561.16 384.001
L561.91 384.001
L561.91 412.647
L562.657 412.647
L562.657 378.346
L563.401 378.346
L563.401 355.356
L564.143 355.356
L564.143 404.326
L564.881 404.326
L564.881 445.852
L565.617 445.852
L565.617 373.111
L566.35 373.111
L566.35 384.001
L567.08 384.001
L567.08 412.647
L567.808 412.647
L567.808 422.081
L568.532 422.081
L568.532 390.149
L569.254 390.149
L569.254 432.971
L569.974 432.971
L569.974 390.149
L570.691 390.149
L570.691 412.647
L571.405 412.647
L571.405 390.149
L572.116 390.149
L572.116 396.882
L574.235 396.882
L574.235 378.346
L574.936 378.346
L574.936 422.081
L575.635 422.081
L575.635 404.326
L576.331 404.326
L576.331 412.647
L577.024 412.647
L577.024 396.882
L577.716 396.882
L577.716 384.001
L578.404 384.001
L578.404 445.852
L579.091 445.852
L579.091 396.882
L579.774 396.882
L579.774 432.971
L580.456 432.971
L580.456 378.346
L581.135 378.346
L581.135 404.326
L581.812 404.326
L581.812 432.971
L582.486 432.971
L582.486 445.852
L583.158 445.852
L583.158 396.882
L583.828 396.882
L583.828 432.971
L584.495 432.971
L584.495 422.081
L585.16 422.081
L585.16 481.941
L585.823 481.941
L585.823 422.081
L586.483 422.081
L586.483 432.971
L587.142 432.971
L587.142 404.326
L587.798 404.326
L587.798 384.001
L588.452 384.001
L588.452 461.617
L589.103 461.617
L589.103 404.326
L589.753 404.326
L589.753 445.852
L590.4 445.852
L590.4 461.617
L591.045 461.617
L591.045 404.326
L591.688 404.326
L591.688 422.081
L592.329 422.081
L592.329 412.647
L592.968 412.647
L592.968 559.556
L593.605 559.556
L593.605 404.326
L594.872 404.326
L594.872 412.647
L595.502 412.647
L595.502 390.149
L596.131 390.149
L596.131 422.081
L596.757 422.081
L596.757 445.852
L597.381 445.852
L597.381 412.647
L598.004 412.647
L598.004 390.149
L598.624 390.149
L598.624 412.647
L599.242 412.647
L599.242 445.852
L600.473 445.852
L600.473 432.971
L601.086 432.971
L601.086 422.081
L601.697 422.081
L601.697 412.647
L602.305 412.647
L602.305 404.326
L602.912 404.326
L602.912 481.941
L603.517 481.941
L603.517 404.326
L604.12 404.326
L604.12 384.001
L604.721 384.001
L604.721 432.971
L605.918 432.971
L605.918 445.852
L606.513 445.852
L606.513 412.647
L607.107 412.647
L607.107 404.326
L607.699 404.326
L607.699 432.971
L608.289 432.971
L608.289 445.852
L608.878 445.852
L608.878 461.617
L609.464 461.617
L609.464 432.971
L610.049 432.971
L610.049 481.941
L610.632 481.941
L610.632 461.617
L611.213 461.617
L611.213 481.941
L611.793 481.941
L611.793 412.647
L612.371 412.647
L612.371 559.556
L612.947 559.556
L612.947 432.971
L613.521 432.971
L613.521 445.852
L614.665 445.852
L614.665 481.941
L615.235 481.941
L615.235 422.081
L615.802 422.081
L615.802 559.556
L616.368 559.556
L616.368 445.852
L616.933 445.852
L616.933 396.882
L617.496 396.882
L617.496 422.081
L618.057 422.081
L618.057 461.617
L619.174 461.617
L619.174 445.852
L619.73 445.852
L619.73 461.617
L620.285 461.617
L620.285 481.941
L620.838 481.941
L620.838 432.971
L621.39 432.971
L621.39 404.326
L621.94 404.326
L621.94 422.081
L623.035 422.081
L623.035 461.617
L623.58 461.617
L623.58 481.941
L624.124 481.941
L624.124 461.617
L624.666 461.617
L624.666 481.941
L625.207 481.941
L625.207 510.587
L625.747 510.587
L625.747 461.617
L626.284 461.617
L626.284 432.971
L626.821 432.971
L626.821 481.941
L627.355 481.941
L627.355 461.617
L628.421 461.617
L628.421 481.941
L628.951 481.941
L628.951 432.971
L629.48 432.971
L629.48 481.941
L630.534 481.941
L630.534 445.852
L631.058 445.852
L631.058 481.941
L631.582 481.941
L631.582 461.617
L632.103 461.617
L632.103 481.941
L632.624 481.941
L632.624 445.852
L633.143 445.852
L633.143 510.587
L633.661 510.587
L633.661 445.852
L634.177 445.852
L634.177 432.971
L634.692 432.971
L634.692 481.941
L635.205 481.941
L635.205 559.556
L636.228 559.556
L636.228 481.941
L636.738 481.941
L636.738 445.852
L637.246 445.852
L637.246 481.941
L638.259 481.941
L638.259 445.852
L638.763 445.852
L638.763 461.617
L639.266 461.617
L639.266 445.852
L639.767 445.852
L639.767 461.617
L640.268 461.617
L640.268 432.971
L641.761 432.971
L641.761 559.556
L642.256 559.556
L642.256 481.941
L642.75 481.941
L642.75 510.587
L643.734 510.587
L643.734 445.852
L644.224 445.852
L644.224 461.617
L644.713 461.617
L644.713 481.941
L645.201 481.941
L645.201 461.617
L645.687 461.617
L645.687 481.941
L646.173 481.941
L646.173 510.587
L647.14 510.587
L647.14 445.852
L648.102 445.852
L648.102 510.587
L649.059 510.587
L649.059 461.617
L649.536 461.617
L649.536 445.852
L650.012 445.852
L650.012 481.941
L650.96 481.941
L650.96 445.852
L651.432 445.852
L651.432 649
M651.903 649
L651.903 461.617
L652.842 461.617
L652.842 510.587
L653.31 510.587
L653.31 559.556
L653.776 559.556
L653.776 461.617
L654.242 461.617
L654.242 432.971
L654.706 432.971
L654.706 445.852
L655.169 445.852
L655.169 481.941
L655.632 481.941
L655.632 445.852
L656.093 445.852
L656.093 461.617
L656.553 461.617
L656.553 481.941
L657.011 481.941
L657.011 559.556
L657.469 559.556
L657.469 481.941
L657.926 481.941
L657.926 510.587
L658.836 510.587
L658.836 649
M659.29 649
L659.29 481.941
L660.193 481.941
L660.193 649
M660.644 649
L660.644 559.556
L661.093 559.556
L661.093 461.617
L661.541 461.617
L661.541 559.556
L661.988 559.556
L661.988 510.587
L662.435 510.587
L662.435 481.941
L662.88 481.941
L662.88 559.556
L663.324 559.556
L663.324 510.587
L663.767 510.587
L663.767 461.617
L664.209 461.617
L664.209 445.852
L664.65 445.852
L664.65 559.556
L665.53 559.556
L665.53 461.617
L665.968 461.617
L665.968 649
M666.405 649
L666.405 510.587
L666.841 510.587
L666.841 461.617
L667.276 461.617
L667.276 559.556
L667.71 559.556
L667.71 481.941
L668.144 481.941
L668.144 559.556
L668.576 559.556
L668.576 461.617
L669.007 461.617
L669.007 481.941
L669.437 481.941
L669.437 510.587
L669.867 510.587
L669.867 559.556
L670.295 559.556
L670.295 461.617
L670.723 461.617
L670.723 510.587
L671.149 510.587
L671.149 649
M671.575 649
L671.575 481.941
L672 481.941
L672 461.617
L672.423 461.617
L672.423 559.556
L672.846 559.556
L672.846 649
M673.689 649
L673.689 481.941
L674.109 481.941
L674.109 559.556
L674.528 559.556
L674.528 481.941
L674.947 481.941
L674.947 559.556
L675.364 559.556
L675.364 481.941
L675.781 481.941
L675.781 559.556
L676.196 559.556
L676.196 481.941
L676.611 481.941
L676.611 559.556
L677.025 559.556
L677.025 649
M677.438 649
L677.438 559.556
L678.261 559.556
L678.261 510.587
L678.671 510.587
L678.671 481.941
L679.081 481.941
L679.081 461.617
L679.489 461.617
L679.489 481.941
L679.897 481.941
L679.897 559.556
L680.71 559.556
L680.71 510.587
L681.115 510.587
L681.115 649
M681.923 649
L681.923 510.587
L683.128 510.587
L683.128 559.556
L683.928 559.556
L683.928 649
M684.724 649
L684.724 510.587
L685.121 510.587
L685.121 481.941
L685.517 481.941
L685.517 649
M685.912 649
L685.912 461.617
L686.306 461.617
L686.306 481.941
L687.093 481.941
L687.093 559.556
L687.485 559.556
L687.485 461.617
L687.876 461.617
L687.876 510.587
L688.267 510.587
L688.267 559.556
L689.045 559.556
L689.045 461.617
L689.433 461.617
L689.433 445.852
L689.821 445.852
L689.821 559.556
L690.207 559.556
L690.207 481.941
L690.978 481.941
L690.978 510.587
L691.362 510.587
L691.362 559.556
L691.746 559.556
L691.746 461.617
L692.129 461.617
L692.129 510.587
L692.892 510.587
L692.892 559.556
L693.272 559.556
L693.272 649
M693.652 649
L693.652 559.556
L694.031 559.556
L694.031 481.941
L694.409 481.941
L694.409 559.556
L694.787 559.556
L694.787 481.941
L695.164 481.941
L695.164 559.556
L695.54 559.556
L695.54 481.941
L695.915 481.941
L695.915 559.556
L696.29 559.556
L696.29 481.941
L696.664 481.941
L696.664 559.556
L697.409 559.556
L697.409 649
M697.781 649
L697.781 510.587
L698.152 510.587
L698.152 461.617
L698.523 461.617
L698.523 510.587
L698.892 510.587
L698.892 649
M699.261 649
L699.261 559.556
L699.629 559.556
L699.629 510.587
L699.997 510.587
L699.997 559.556
L700.364 559.556
L700.364 510.587
L701.46 510.587
L701.46 559.556
L701.824 559.556
L701.824 481.941
L702.187 481.941
L702.187 559.556
L703.274 559.556
L703.274 649
M703.634 649
L703.634 510.587
L703.994 510.587
L703.994 559.556
L704.354 559.556
L704.354 481.941
L704.712 481.941
L704.712 510.587
L705.07 510.587
L705.07 481.941
L705.428 481.941
L705.428 649
M705.784 649
L705.784 510.587
L706.14 510.587
L706.14 559.556
L706.496 559.556
L706.496 510.587
L706.851 510.587
L706.851 559.556
L707.205 559.556
L707.205 649
M708.615 649
L708.615 510.587
L709.316 510.587
L709.316 481.941
L709.665 481.941
L709.665 559.556
L710.711 559.556
L710.711 649
M711.058 649
L711.058 559.556
L711.404 559.556
L711.404 649
M712.784 649
L712.784 559.556
L713.127 559.556
L713.127 481.941
L713.47 481.941
L713.47 559.556
L714.836 559.556
L714.836 481.941
L715.175 481.941
L715.175 649
M715.515 649
L715.515 481.941
L716.191 481.941
L716.191 649
M716.529 649
L716.529 559.556
L716.866 559.556
L716.866 445.852
L717.202 445.852
L717.202 510.587
L717.538 510.587
L717.538 649
M718.541 649
L718.541 510.587
L718.875 510.587
L718.875 649
M719.208 649
L719.208 510.587
L719.871 510.587
L719.871 559.556
L720.203 559.556
L720.203 481.941
L720.533 481.941
L720.533 649
M720.863 649
L720.863 559.556
L721.193 559.556
L721.193 510.587
L721.521 510.587
L721.521 481.941
L721.85 481.941
L721.85 649
M722.505 649
L722.505 510.587
L722.831 510.587
L722.831 445.852
L723.157 445.852
L723.157 432.971
L723.483 432.971
L723.483 649
M723.808 649
L723.808 559.556
L724.132 559.556
L724.132 649
M724.456 649
L724.456 510.587
L724.78 510.587
L724.78 559.556
L725.103 559.556
L725.103 649
M725.425 649
L725.425 559.556
L726.068 559.556
L726.068 481.941
L726.389 481.941
L726.389 559.556
L727.029 559.556
L727.029 510.587
L727.666 510.587
L727.666 649
M727.984 649
L727.984 559.556
L728.302 559.556
L728.302 510.587
L728.619 510.587
L728.619 461.617
L728.935 461.617
L728.935 510.587
L729.567 510.587
L729.567 649
M729.882 649
L729.882 481.941
L730.196 481.941
L730.196 649
M730.51 649
L730.51 481.941
L730.824 481.941
L730.824 649
M731.137 649
L731.137 510.587
L731.449 510.587
L731.449 559.556
L731.761 559.556
L731.761 649
M732.073 649
L732.073 559.556
L732.383 559.556
L732.383 649
M732.694 649
L732.694 510.587
L733.004 510.587
L733.004 481.941
L733.313 481.941
L733.313 510.587
L733.622 510.587
L733.622 559.556
L733.931 559.556
L733.931 510.587
L734.239 510.587
L734.239 649
M734.546 649
L734.546 510.587
L735.16 510.587
L735.16 559.556
L735.466 559.556
L735.466 481.941
L735.771 481.941
L735.771 559.556
L736.381 559.556
L736.381 461.617
L736.685 461.617
L736.685 649
M737.897 649
L737.897 559.556
L738.198 559.556
L738.198 649
M738.801 649
L738.801 559.556
L739.101 559.556
L739.101 649
M739.7 649
L739.7 510.587
L740.596 510.587
L740.596 649
M740.893 649
L740.893 510.587
L741.19 510.587
L741.19 649
M741.783 649
L741.783 510.587
L742.079 510.587
L742.079 559.556
L742.374 559.556
L742.374 481.941
L742.669 481.941
L742.669 559.556
L743.551 559.556
L743.551 649
M744.137 649
L744.137 510.587
L744.721 510.587
L744.721 559.556
L745.012 559.556
L745.012 481.941
L745.303 481.941
L745.303 559.556
L746.462 559.556
L746.462 510.587
L746.751 510.587
L746.751 559.556
L747.039 559.556
L747.039 510.587
L747.327 510.587
L747.327 559.556
L747.901 559.556
L747.901 481.941
L748.188 481.941
L748.188 559.556
L748.474 559.556
L748.474 649
M748.76 649
L748.76 559.556
L749.045 559.556
L749.045 649
M749.33 649
L749.33 559.556
L749.614 559.556
L749.614 649
M749.898 649
L749.898 559.556
L750.182 559.556
L750.182 481.941
L750.465 481.941
L750.465 559.556
L750.748 559.556
L750.748 481.941
L751.031 481.941
L751.031 559.556
L751.594 559.556
L751.594 510.587
L751.875 510.587
L751.875 649
M752.156 649
L752.156 510.587
L752.436 510.587
L752.436 649
M752.716 649
L752.716 510.587
L752.996 510.587
L752.996 559.556
L753.275 559.556
L753.275 510.587
L754.11 510.587
L754.11 649
M754.942 649
L754.942 481.941
L755.77 481.941
L755.77 649
M756.319 649
L756.319 559.556
L756.594 559.556
L756.594 649
M757.688 649
L757.688 461.617
L757.96 461.617
L757.96 649
M758.504 649
L758.504 559.556
L758.775 559.556
L758.775 649
M759.046 649
L759.046 559.556
L759.317 559.556
L759.317 649
M759.587 649
L759.587 559.556
L759.857 559.556
L759.857 649
M760.126 649
L760.126 510.587
L760.395 510.587
L760.395 649
M760.664 649
L760.664 559.556
L761.2 559.556
L761.2 649
M762.002 649
L762.002 559.556
L762.269 559.556
L762.269 481.941
L762.535 481.941
L762.535 649
M762.8 649
L762.8 510.587
L763.066 510.587
L763.066 559.556
L763.331 559.556
L763.331 649
M764.124 649
L764.124 559.556
L764.387 559.556
L764.387 649
M765.176 649
L765.176 481.941
L765.438 481.941
L765.438 559.556
L765.7 559.556
L765.7 649
M766.222 649
L766.222 559.556
L766.483 559.556
L766.483 649
M766.744 649
L766.744 481.941
L767.004 481.941
L767.004 559.556
L767.263 559.556
L767.263 649
M767.523 649
L767.523 559.556
L767.782 559.556
L767.782 649
M768.299 649
L768.299 559.556
L769.072 559.556
L769.072 649
M769.329 649
L769.329 559.556
L769.585 559.556
L769.585 649
M770.863 649
L770.863 510.587
L771.118 510.587
L771.118 649
M771.372 649
L771.372 559.556
L771.88 559.556
L771.88 649
M772.386 649
L772.386 559.556
L772.638 559.556
L772.638 649
M772.891 649
L772.891 559.556
L773.143 559.556
L773.143 510.587
L773.645 510.587
L773.645 559.556
L773.896 559.556
L773.896 649
M774.647 649
L774.647 559.556
L774.897 559.556
L774.897 510.587
L775.146 510.587
L775.146 649
M775.395 649
L775.395 510.587
L775.644 510.587
L775.644 649
M775.892 649
L775.892 559.556
L776.141 559.556
L776.141 649
M777.13 649
L777.13 510.587
L777.376 510.587
L777.376 559.556
L777.622 559.556
L777.622 649
M777.868 649
L777.868 559.556
L778.114 559.556
L778.114 510.587
L778.359 510.587
L778.359 649
M781.278 649
L781.278 559.556
L781.519 559.556
L781.519 510.587
L781.76 510.587
L781.76 559.556
L782.001 559.556
L782.001 649
M782.241 649
L782.241 559.556
L782.721 559.556
L782.721 649
M783.439 649
L783.439 559.556
L783.677 559.556
L783.677 649
M785.34 649
L785.34 559.556
L786.048 559.556
L786.048 649
M786.518 649
L786.518 510.587
L786.753 510.587
L786.753 559.556
L787.222 559.556
L787.222 649
M787.69 649
L787.69 559.556
L787.923 559.556
L787.923 649
M788.156 649
L788.156 559.556
L788.389 559.556
L788.389 510.587
L788.622 510.587
L788.622 559.556
L788.854 559.556
L788.854 649
M789.318 649
L789.318 559.556
L789.549 559.556
L789.549 649
M789.78 649
L789.78 559.556
L790.011 559.556
L790.011 649
M791.62 649
L791.62 559.556
L791.849 559.556
L791.849 649
M792.077 649
L792.077 559.556
L792.534 559.556
L792.534 649
M793.216 649
L793.216 559.556
L793.443 559.556
L793.443 649
M793.896 649
L793.896 559.556
L794.348 559.556
L794.348 649
M795.473 649
L795.473 559.556
L795.697 559.556
L795.697 510.587
L795.921 510.587
L795.921 559.556
L796.145 559.556
L796.145 649
M797.26 649
L797.26 559.556
L797.704 559.556
L797.704 649
M798.81 649
L798.81 559.556
L799.69 559.556
L799.69 510.587
L799.909 510.587
L799.909 649
M800.129 649
L800.129 559.556
L800.347 559.556
L800.347 649
M801.003 649
L801.003 559.556
L801.656 559.556
L801.656 649
M802.523 649
L802.523 559.556
L802.74 559.556
L802.74 649
M803.171 649
L803.171 510.587
L803.387 510.587
L803.387 649
M804.675 649
L804.675 559.556
L805.103 559.556
L805.103 649
M806.167 649
L806.167 559.556
L806.379 559.556
L806.379 649
M807.437 649
L807.437 559.556
L807.648 559.556
L807.648 649
M809.117 649
L809.117 559.556
L809.326 559.556
L809.326 649
M809.744 649
L809.744 559.556
L810.16 559.556
L810.16 649
M810.576 649
L810.576 559.556
L810.783 559.556
L810.783 649
M813.051 649
L813.051 559.556
L813.256 559.556
L813.256 649
M813.665 649
L813.665 559.556
L813.869 559.556
L813.869 649
M814.277 649
L814.277 510.587
L814.48 510.587
L814.48 649
M816.302 649
L816.302 559.556
L816.504 559.556
L816.504 649
M817.708 649
L817.708 559.556
L817.908 559.556
L817.908 649
M818.307 649
L818.307 559.556
L818.706 559.556
L818.706 649
M818.905 649
L818.905 559.556
L819.103 559.556
L819.103 649
M819.5 649
L819.5 510.587
L819.698 510.587
L819.698 649
M819.896 649
L819.896 510.587
L820.094 510.587
L820.094 559.556
L820.292 559.556
L820.292 649
M822.06 649
L822.06 559.556
L822.256 559.556
L822.256 649
M822.646 649
L822.646 559.556
L822.841 559.556
L822.841 649
M823.231 649
L823.231 559.556
L823.619 559.556
L823.619 649
M823.813 649
L823.813 559.556
L824.2 559.556
L824.2 649
M824.973 649
L824.973 559.556
L825.165 559.556
L825.165 649
M827.272 649
L827.272 559.556
L827.462 559.556
L827.462 649
M828.222 649
L828.222 510.587
L828.411 510.587
L828.411 649
M828.978 649
L828.978 559.556
L829.355 559.556
L829.355 649
M830.295 649
L830.295 559.556
L830.482 559.556
L830.482 649
M831.603 649
L831.603 559.556
L831.789 559.556
L831.789 649
M833.457 649
L833.457 559.556
L833.641 559.556
L833.641 649
M834.009 649
L834.009 559.556
L834.377 559.556
L834.377 649
M837.473 649
L837.473 559.556
L837.653 559.556
L837.653 649
M838.194 649
L838.194 559.556
L838.374 559.556
L838.374 649
M838.733 649
L838.733 559.556
L838.913 559.556
L838.913 649
M839.808 649
L839.808 559.556
L839.986 559.556
L839.986 649
M841.053 649
L841.053 559.556
L841.408 559.556
L841.408 649
M841.938 649
L841.938 510.587
L842.114 510.587
L842.114 649
M842.467 649
L842.467 510.587
L842.643 510.587
L842.643 649
M843.521 649
L843.521 559.556
L843.871 559.556
L843.871 649
M845.09 649
L845.09 559.556
L845.264 559.556
L845.264 649
M845.784 649
L845.784 510.587
L845.957 510.587
L845.957 649
M846.13 649
L846.13 559.556
L846.475 559.556
L846.475 649
M846.992 649
L846.992 559.556
L847.164 559.556
L847.164 649
M848.875 649
L848.875 559.556
L849.045 559.556
L849.045 649
M850.571 649
L850.571 559.556
L850.74 559.556
L850.74 649
M851.245 649
L851.245 481.941
L851.414 481.941
L851.414 649
M853.088 649
L853.088 559.556
L853.254 559.556
L853.254 649
M853.587 649
L853.587 559.556
L853.754 559.556
L853.754 649
M855.572 649
L855.572 559.556
L855.737 559.556
L855.737 649
M856.721 649
L856.721 559.556
L856.884 559.556
L856.884 649
M858.188 649
L858.188 559.556
L858.35 559.556
L858.35 649
M860.768 649
L860.768 559.556
L860.929 559.556
L860.929 649
M862.999 649
L862.999 559.556
L863.157 559.556
L863.157 649
M863.631 649
L863.631 559.556
L863.947 559.556
L863.947 649
M864.419 649
L864.419 559.556
L864.576 559.556
L864.576 649
M866.297 649
L866.297 559.556
L866.452 559.556
L866.452 649
M871.065 649
L871.065 559.556
L871.217 559.556
L871.217 649
M871.974 649
L871.974 559.556
L872.125 559.556
L872.125 649
M873.93 649
L873.93 559.556
L874.08 559.556
L874.08 649
M874.528 649
L874.528 559.556
L874.826 559.556
L874.826 649
M874.975 649
L874.975 559.556
L875.124 559.556
L875.124 649
M875.718 649
L875.718 559.556
L875.867 559.556
L875.867 649
M877.49 649
L877.49 559.556
L877.784 559.556
L877.784 649
M878.37 649
L878.37 559.556
L878.517 559.556
L878.517 649
M878.809 649
L878.809 559.556
L878.955 559.556
L878.955 649
M879.537 649
L879.537 559.556
L879.683 559.556
L879.683 649
M879.828 649
L879.828 510.587
L879.973 510.587
L879.973 649
M880.986 649
L880.986 559.556
L881.275 559.556
L881.275 649
M882.138 649
L882.138 559.556
L882.281 559.556
L882.281 649
M884.562 649
L884.562 559.556
L884.704 559.556
L884.704 649
M886.536 649
L886.536 559.556
L886.676 559.556
L886.676 649
M886.956 649
L886.956 559.556
L887.096 559.556
L887.096 649
M887.794 649
L887.794 559.556
L887.934 559.556
L887.934 649
M888.212 649
L888.212 559.556
L888.351 559.556
L888.351 649
M889.045 649
L889.045 559.556
L889.183 559.556
L889.183 649
M889.736 649
L889.736 559.556
L890.012 559.556
L890.012 649
M890.562 649
L890.562 559.556
L890.699 559.556
L890.699 649
M890.837 649
L890.837 559.556
L890.974 559.556
L890.974 649
M892.612 649
L892.612 559.556
L892.748 559.556
L892.748 649
M893.426 649
L893.426 559.556
L893.561 559.556
L893.561 649
M894.506 649
L894.506 559.556
L894.775 559.556
L894.775 649
M895.044 649
L895.044 559.556
L895.178 559.556
L895.178 649
M896.648 649
L896.648 559.556
L896.781 559.556
L896.781 649
M897.843 649
L897.843 559.556
L897.975 559.556
L897.975 649
M902.937 649
L902.937 559.556
L903.065 559.556
L903.065 649
M905.243 649
L905.243 559.556
L905.37 559.556
L905.37 649
M906.259 649
L906.259 510.587
L906.386 510.587
L906.386 649
M907.522 649
L907.522 559.556
L907.648 559.556
L907.648 649
M908.276 649
L908.276 559.556
L908.402 559.556
L908.402 649
M909.152 649
L909.152 559.556
L909.277 559.556
L909.277 649
M910.024 649
L910.024 559.556
L910.148 559.556
L910.148 649
M910.272 649
L910.272 559.556
L910.396 559.556
L910.396 649
M913.351 649
L913.351 559.556
L913.473 559.556
L913.473 649
M914.325 649
L914.325 559.556
L914.447 559.556
L914.447 649
M916.381 649
L916.381 559.556
L916.501 559.556
L916.501 649
M926 649
L926 559.556
L926.114 559.556
L926.114 649
L926.114 649" style="fill:none;opacity:0.7;stroke:#fd6266;stroke-linejoin:miter;stroke-width:3;"/>
   </g>
   <g id="patch_6">
    <path d="
M144 64.8
L1036.8 64.8" style="fill:none;stroke:#000000;stroke-linecap:square;stroke-linejoin:miter;"/>
   </g>
   <g id="patch_7">
    <path d="
M1036.8 567
L1036.8 64.8" style="fill:none;stroke:#000000;stroke-linecap:square;stroke-linejoin:miter;"/>
   </g>
   <g id="patch_8">
    <path d="
M144 567
L1036.8 567" style="fill:none;stroke:#000000;stroke-linecap:square;stroke-linejoin:miter;"/>
   </g>
   <g id="patch_9">
    <path d="
M144 567
L144 64.8" style="fill:none;stroke:#000000;stroke-linecap:square;stroke-linejoin:miter;"/>
   </g>
   <g id="matplotlib.axis_1">
    <g id="xtick_1">
     <g id="line2d_1">
      <defs>
       <path d="
M0 0
L0 -4" id="m93b0483c22" style="stroke:#000000;stroke-width:0.5;"/>
      </defs>
      <g>
       <use style="stroke:#000000;stroke-width:0.5;" x="377.413071893" xlink:href="#m93b0483c22" y="567.0"/>
      </g>
     </g>
     <g id="line2d_2">
      <defs>
       <path d="
M0 0
L0 4" id="m741efc42ff" style="stroke:#000000;stroke-width:0.5;"/>
      </defs>
      <g>
       <use style="stroke:#000000;stroke-width:0.5;" x="377.413071893" xlink:href="#m741efc42ff" y="64.8"/>
      </g>
     </g>
     <g id="text_1">
      <!-- $\mathdefault{10^{2}}$ -->
      <defs>
       <path d="
M12.4062 8.29688
L28.5156 8.29688
L28.5156 63.9219
L10.9844 60.4062
L10.9844 69.3906
L28.4219 72.9062
L38.2812 72.9062
L38.2812 8.29688
L54.3906 8.29688
L54.3906 0
L12.4062 0
z
" id="DejaVuSans-31"/>
       <path d="
M31.7812 66.4062
Q24.1719 66.4062 20.3281 58.9062
Q16.5 51.4219 16.5 36.375
Q16.5 21.3906 20.3281 13.8906
Q24.1719 6.39062 31.7812 6.39062
Q39.4531 6.39062 43.2812 13.8906
Q47.125 21.3906 47.125 36.375
Q47.125 51.4219 43.2812 58.9062
Q39.4531 66.4062 31.7812 66.4062
M31.7812 74.2188
Q44.0469 74.2188 50.5156 64.5156
Q56.9844 54.8281 56.9844 36.375
Q56.9844 17.9688 50.5156 8.26562
Q44.0469 -1.42188 31.7812 -1.42188
Q19.5312 -1.42188 13.0625 8.26562
Q6.59375 17.9688 6.59375 36.375
Q6.59375 54.8281 13.0625 64.5156
Q19.5312 74.2188 31.7812 74.2188" id="DejaVuSans-30"/>
       <path d="
M19.1875 8.29688
L53.6094 8.29688
L53.6094 0
L7.32812 0
L7.32812 8.29688
Q12.9375 14.1094 22.625 23.8906
Q32.3281 33.6875 34.8125 36.5312
Q39.5469 41.8438 41.4219 45.5312
Q43.3125 49.2188 43.3125 52.7812
Q43.3125 58.5938 39.2344 62.25
Q35.1562 65.9219 28.6094 65.9219
Q23.9688 65.9219 18.8125 64.3125
Q13.6719 62.7031 7.8125 59.4219
L7.8125 69.3906
Q13.7656 71.7812 18.9375 73
Q24.125 74.2188 28.4219 74.2188
Q39.75 74.2188 46.4844 68.5469
Q53.2188 62.8906 53.2188 53.4219
Q53.2188 48.9219 51.5312 44.8906
Q49.8594 40.875 45.4062 35.4062
Q44.1875 33.9844 37.6406 27.2188
Q31.1094 20.4531 19.1875 8.29688" id="DejaVuSans-32"/>
      </defs>
      <g transform="translate(368.263071893 580.1203125)scale(0.1 -0.1)">
       <use transform="translate(0.0 0.234375)" xlink:href="#DejaVuSans-31"/>
       <use transform="translate(63.623046875 0.234375)" xlink:href="#DejaVuSans-30"/>
       <use transform="translate(127.24609375 58.046875)scale(0.7)" xlink:href="#DejaVuSans-32"/>
      </g>
     </g>
    </g>
    <g id="xtick_2">
     <g id="line2d_3">
      <g>
       <use style="stroke:#000000;stroke-width:0.5;" x="823.813071893" xlink:href="#m93b0483c22" y="567.0"/>
      </g>
     </g>
     <g id="line2d_4">
      <g>
       <use style="stroke:#000000;stroke-width:0.5;" x="823.813071893" xlink:href="#m741efc42ff" y="64.8"/>
      </g>
     </g>
     <g id="text_2">
      <!-- $\mathdefault{10^{3}}$ -->
      <defs>
       <path d="
M40.5781 39.3125
Q47.6562 37.7969 51.625 33
Q55.6094 28.2188 55.6094 21.1875
Q55.6094 10.4062 48.1875 4.48438
Q40.7656 -1.42188 27.0938 -1.42188
Q22.5156 -1.42188 17.6562 -0.515625
Q12.7969 0.390625 7.625 2.20312
L7.625 11.7188
Q11.7188 9.32812 16.5938 8.10938
Q21.4844 6.89062 26.8125 6.89062
Q36.0781 6.89062 40.9375 10.5469
Q45.7969 14.2031 45.7969 21.1875
Q45.7969 27.6406 41.2812 31.2656
Q36.7656 34.9062 28.7188 34.9062
L20.2188 34.9062
L20.2188 43.0156
L29.1094 43.0156
Q36.375 43.0156 40.2344 45.9219
Q44.0938 48.8281 44.0938 54.2969
Q44.0938 59.9062 40.1094 62.9062
Q36.1406 65.9219 28.7188 65.9219
Q24.6562 65.9219 20.0156 65.0312
Q15.375 64.1562 9.8125 62.3125
L9.8125 71.0938
Q15.4375 72.6562 20.3438 73.4375
Q25.25 74.2188 29.5938 74.2188
Q40.8281 74.2188 47.3594 69.1094
Q53.9062 64.0156 53.9062 55.3281
Q53.9062 49.2656 50.4375 45.0938
Q46.9688 40.9219 40.5781 39.3125" id="DejaVuSans-33"/>
      </defs>
      <g transform="translate(814.663071893 580.1203125)scale(0.1 -0.1)">
       <use transform="translate(0.0 0.234375)" xlink:href="#DejaVuSans-31"/>
       <use transform="translate(63.623046875 0.234375)" xlink:href="#DejaVuSans-30"/>
       <use transform="translate(127.24609375 58.046875)scale(0.7)" xlink:href="#DejaVuSans-33"/>
      </g>
     </g>
    </g>
    <g id="xtick_3">
     <g id="line2d_5">
      <defs>
       <path d="
M0 0
L0 -2" id="m177f7580d0" style="stroke:#000000;stroke-width:0.5;"/>
      </defs>
      <g>
       <use style="stroke:#000000;stroke-width:0.5;" x="144.0" xlink:href="#m177f7580d0" y="567.0"/>
      </g>
     </g>
     <g id="line2d_6">
      <defs>
       <path d="
M0 0
L0 2" id="m5284c7e2a0" style="stroke:#000000;stroke-width:0.5;"/>
      </defs>
      <g>
       <use style="stroke:#000000;stroke-width:0.5;" x="144.0" xlink:href="#m5284c7e2a0" y="64.8"/>
      </g>
     </g>
    </g>
    <g id="xtick_4">
     <g id="line2d_7">
      <g>
       <use style="stroke:#000000;stroke-width:0.5;" x="199.772652022" xlink:href="#m177f7580d0" y="567.0"/>
      </g>
     </g>
     <g id="line2d_8">
      <g>
       <use style="stroke:#000000;stroke-width:0.5;" x="199.772652022" xlink:href="#m5284c7e2a0" y="64.8"/>
      </g>
     </g>
    </g>
    <g id="xtick_5">
     <g id="line2d_9">
      <g>
       <use style="stroke:#000000;stroke-width:0.5;" x="243.033281829" xlink:href="#m177f7580d0" y="567.0"/>
      </g>
     </g>
     <g id="line2d_10">
      <g>
       <use style="stroke:#000000;stroke-width:0.5;" x="243.033281829" xlink:href="#m5284c7e2a0" y="64.8"/>
      </g>
     </g>
    </g>
    <g id="xtick_6">
     <g id="line2d_11">
      <g>
       <use style="stroke:#000000;stroke-width:0.5;" x="278.379790064" xlink:href="#m177f7580d0" y="567.0"/>
      </g>
     </g>
     <g id="line2d_12">
      <g>
       <use style="stroke:#000000;stroke-width:0.5;" x="278.379790064" xlink:href="#m5284c7e2a0" y="64.8"/>
      </g>
     </g>
    </g>
    <g id="xtick_7">
     <g id="line2d_13">
      <g>
       <use style="stroke:#000000;stroke-width:0.5;" x="308.264836956" xlink:href="#m177f7580d0" y="567.0"/>
      </g>
     </g>
     <g id="line2d_14">
      <g>
       <use style="stroke:#000000;stroke-width:0.5;" x="308.264836956" xlink:href="#m5284c7e2a0" y="64.8"/>
      </g>
     </g>
    </g>
    <g id="xtick_8">
     <g id="line2d_15">
      <g>
       <use style="stroke:#000000;stroke-width:0.5;" x="334.152442086" xlink:href="#m177f7580d0" y="567.0"/>
      </g>
     </g>
     <g id="line2d_16">
      <g>
       <use style="stroke:#000000;stroke-width:0.5;" x="334.152442086" xlink:href="#m5284c7e2a0" y="64.8"/>
      </g>
     </g>
    </g>
    <g id="xtick_9">
     <g id="line2d_17">
      <g>
       <use style="stroke:#000000;stroke-width:0.5;" x="356.986928107" xlink:href="#m177f7580d0" y="567.0"/>
      </g>
     </g>
     <g id="line2d_18">
      <g>
       <use style="stroke:#000000;stroke-width:0.5;" x="356.986928107" xlink:href="#m5284c7e2a0" y="64.8"/>
      </g>
     </g>
    </g>
    <g id="xtick_10">
     <g id="line2d_19">
      <g>
       <use style="stroke:#000000;stroke-width:0.5;" x="511.792861958" xlink:href="#m177f7580d0" y="567.0"/>
      </g>
     </g>
     <g id="line2d_20">
      <g>
       <use style="stroke:#000000;stroke-width:0.5;" x="511.792861958" xlink:href="#m5284c7e2a0" y="64.8"/>
      </g>
     </g>
    </g>
    <g id="xtick_11">
     <g id="line2d_21">
      <g>
       <use style="stroke:#000000;stroke-width:0.5;" x="590.4" xlink:href="#m177f7580d0" y="567.0"/>
      </g>
     </g>
     <g id="line2d_22">
      <g>
       <use style="stroke:#000000;stroke-width:0.5;" x="590.4" xlink:href="#m5284c7e2a0" y="64.8"/>
      </g>
     </g>
    </g>
    <g id="xtick_12">
     <g id="line2d_23">
      <g>
       <use style="stroke:#000000;stroke-width:0.5;" x="646.172652022" xlink:href="#m177f7580d0" y="567.0"/>
      </g>
     </g>
     <g id="line2d_24">
      <g>
       <use style="stroke:#000000;stroke-width:0.5;" x="646.172652022" xlink:href="#m5284c7e2a0" y="64.8"/>
      </g>
     </g>
    </g>
    <g id="xtick_13">
     <g id="line2d_25">
      <g>
       <use style="stroke:#000000;stroke-width:0.5;" x="689.433281829" xlink:href="#m177f7580d0" y="567.0"/>
      </g>
     </g>
     <g id="line2d_26">
      <g>
       <use style="stroke:#000000;stroke-width:0.5;" x="689.433281829" xlink:href="#m5284c7e2a0" y="64.8"/>
      </g>
     </g>
    </g>
    <g id="xtick_14">
     <g id="line2d_27">
      <g>
       <use style="stroke:#000000;stroke-width:0.5;" x="724.779790064" xlink:href="#m177f7580d0" y="567.0"/>
      </g>
     </g>
     <g id="line2d_28">
      <g>
       <use style="stroke:#000000;stroke-width:0.5;" x="724.779790064" xlink:href="#m5284c7e2a0" y="64.8"/>
      </g>
     </g>
    </g>
    <g id="xtick_15">
     <g id="line2d_29">
      <g>
       <use style="stroke:#000000;stroke-width:0.5;" x="754.664836956" xlink:href="#m177f7580d0" y="567.0"/>
      </g>
     </g>
     <g id="line2d_30">
      <g>
       <use style="stroke:#000000;stroke-width:0.5;" x="754.664836956" xlink:href="#m5284c7e2a0" y="64.8"/>
      </g>
     </g>
    </g>
    <g id="xtick_16">
     <g id="line2d_31">
      <g>
       <use style="stroke:#000000;stroke-width:0.5;" x="780.552442086" xlink:href="#m177f7580d0" y="567.0"/>
      </g>
     </g>
     <g id="line2d_32">
      <g>
       <use style="stroke:#000000;stroke-width:0.5;" x="780.552442086" xlink:href="#m5284c7e2a0" y="64.8"/>
      </g>
     </g>
    </g>
    <g id="xtick_17">
     <g id="line2d_33">
      <g>
       <use style="stroke:#000000;stroke-width:0.5;" x="803.386928107" xlink:href="#m177f7580d0" y="567.0"/>
      </g>
     </g>
     <g id="line2d_34">
      <g>
       <use style="stroke:#000000;stroke-width:0.5;" x="803.386928107" xlink:href="#m5284c7e2a0" y="64.8"/>
      </g>
     </g>
    </g>
    <g id="xtick_18">
     <g id="line2d_35">
      <g>
       <use style="stroke:#000000;stroke-width:0.5;" x="958.192861958" xlink:href="#m177f7580d0" y="567.0"/>
      </g>
     </g>
     <g id="line2d_36">
      <g>
       <use style="stroke:#000000;stroke-width:0.5;" x="958.192861958" xlink:href="#m5284c7e2a0" y="64.8"/>
      </g>
     </g>
    </g>
    <g id="xtick_19">
     <g id="line2d_37">
      <g>
       <use style="stroke:#000000;stroke-width:0.5;" x="1036.8" xlink:href="#m177f7580d0" y="567.0"/>
      </g>
     </g>
     <g id="line2d_38">
      <g>
       <use style="stroke:#000000;stroke-width:0.5;" x="1036.8" xlink:href="#m5284c7e2a0" y="64.8"/>
      </g>
     </g>
    </g>
    <g id="text_3">
     <!-- Grado -->
     <defs>
      <path d="
M30.6094 48.3906
Q23.3906 48.3906 19.1875 42.75
Q14.9844 37.1094 14.9844 27.2969
Q14.9844 17.4844 19.1562 11.8438
Q23.3438 6.20312 30.6094 6.20312
Q37.7969 6.20312 41.9844 11.8594
Q46.1875 17.5312 46.1875 27.2969
Q46.1875 37.0156 41.9844 42.7031
Q37.7969 48.3906 30.6094 48.3906
M30.6094 56
Q42.3281 56 49.0156 48.375
Q55.7188 40.7656 55.7188 27.2969
Q55.7188 13.875 49.0156 6.21875
Q42.3281 -1.42188 30.6094 -1.42188
Q18.8438 -1.42188 12.1719 6.21875
Q5.51562 13.875 5.51562 27.2969
Q5.51562 40.7656 12.1719 48.375
Q18.8438 56 30.6094 56" id="DejaVuSans-6f"/>
      <path d="
M45.4062 46.3906
L45.4062 75.9844
L54.3906 75.9844
L54.3906 0
L45.4062 0
L45.4062 8.20312
Q42.5781 3.32812 38.25 0.953125
Q33.9375 -1.42188 27.875 -1.42188
Q17.9688 -1.42188 11.7344 6.48438
Q5.51562 14.4062 5.51562 27.2969
Q5.51562 40.1875 11.7344 48.0938
Q17.9688 56 27.875 56
Q33.9375 56 38.25 53.625
Q42.5781 51.2656 45.4062 46.3906
M14.7969 27.2969
Q14.7969 17.3906 18.875 11.75
Q22.9531 6.10938 30.0781 6.10938
Q37.2031 6.10938 41.2969 11.75
Q45.4062 17.3906 45.4062 27.2969
Q45.4062 37.2031 41.2969 42.8438
Q37.2031 48.4844 30.0781 48.4844
Q22.9531 48.4844 18.875 42.8438
Q14.7969 37.2031 14.7969 27.2969" id="DejaVuSans-64"/>
      <path d="
M59.5156 10.4062
L59.5156 29.9844
L43.4062 29.9844
L43.4062 38.0938
L69.2812 38.0938
L69.2812 6.78125
Q63.5781 2.73438 56.6875 0.65625
Q49.8125 -1.42188 42 -1.42188
Q24.9062 -1.42188 15.25 8.5625
Q5.60938 18.5625 5.60938 36.375
Q5.60938 54.25 15.25 64.2344
Q24.9062 74.2188 42 74.2188
Q49.125 74.2188 55.5469 72.4531
Q61.9688 70.7031 67.3906 67.2812
L67.3906 56.7812
Q61.9219 61.4219 55.7656 63.7656
Q49.6094 66.1094 42.8281 66.1094
Q29.4375 66.1094 22.7188 58.6406
Q16.0156 51.1719 16.0156 36.375
Q16.0156 21.625 22.7188 14.1562
Q29.4375 6.6875 42.8281 6.6875
Q48.0469 6.6875 52.1406 7.59375
Q56.25 8.5 59.5156 10.4062" id="DejaVuSans-47"/>
      <path d="
M34.2812 27.4844
Q23.3906 27.4844 19.1875 25
Q14.9844 22.5156 14.9844 16.5
Q14.9844 11.7188 18.1406 8.90625
Q21.2969 6.10938 26.7031 6.10938
Q34.1875 6.10938 38.7031 11.4062
Q43.2188 16.7031 43.2188 25.4844
L43.2188 27.4844
z

M52.2031 31.2031
L52.2031 0
L43.2188 0
L43.2188 8.29688
Q40.1406 3.32812 35.5469 0.953125
Q30.9531 -1.42188 24.3125 -1.42188
Q15.9219 -1.42188 10.9531 3.29688
Q6 8.01562 6 15.9219
Q6 25.1406 12.1719 29.8281
Q18.3594 34.5156 30.6094 34.5156
L43.2188 34.5156
L43.2188 35.4062
Q43.2188 41.6094 39.1406 45
Q35.0625 48.3906 27.6875 48.3906
Q23 48.3906 18.5469 47.2656
Q14.1094 46.1406 10.0156 43.8906
L10.0156 52.2031
Q14.9375 54.1094 19.5781 55.0469
Q24.2188 56 28.6094 56
Q40.4844 56 46.3438 49.8438
Q52.2031 43.7031 52.2031 31.2031" id="DejaVuSans-61"/>
      <path d="
M41.1094 46.2969
Q39.5938 47.1719 37.8125 47.5781
Q36.0312 48 33.8906 48
Q26.2656 48 22.1875 43.0469
Q18.1094 38.0938 18.1094 28.8125
L18.1094 0
L9.07812 0
L9.07812 54.6875
L18.1094 54.6875
L18.1094 46.1875
Q20.9531 51.1719 25.4844 53.5781
Q30.0312 56 36.5312 56
Q37.4531 56 38.5781 55.875
Q39.7031 55.7656 41.0625 55.5156
z
" id="DejaVuSans-72"/>
     </defs>
     <g transform="translate(575.7265625 594.7984375)scale(0.1 -0.1)">
      <use xlink:href="#DejaVuSans-47"/>
      <use x="77.490234375" xlink:href="#DejaVuSans-72"/>
      <use x="118.603515625" xlink:href="#DejaVuSans-61"/>
      <use x="179.8828125" xlink:href="#DejaVuSans-64"/>
      <use x="243.359375" xlink:href="#DejaVuSans-6f"/>
     </g>
    </g>
   </g>
   <g id="matplotlib.axis_2">
    <g id="ytick_1">
     <g id="line2d_39">
      <defs>
       <path d="
M0 0
L4 0" id="m728421d6d4" style="stroke:#000000;stroke-width:0.5;"/>
      </defs>
      <g>
       <use style="stroke:#000000;stroke-width:0.5;" x="144.0" xlink:href="#m728421d6d4" y="559.556432162"/>
      </g>
     </g>
     <g id="line2d_40">
      <defs>
       <path d="
M0 0
L-4 0" id="mcb0005524f" style="stroke:#000000;stroke-width:0.5;"/>
      </defs>
      <g>
       <use style="stroke:#000000;stroke-width:0.5;" x="1036.8" xlink:href="#mcb0005524f" y="559.556432162"/>
      </g>
     </g>
     <g id="text_4">
      <!-- $\mathdefault{10^{0}}$ -->
      <g transform="translate(121.7 563.076744662)scale(0.1 -0.1)">
       <use transform="translate(0.0 0.234375)" xlink:href="#DejaVuSans-31"/>
       <use transform="translate(63.623046875 0.234375)" xlink:href="#DejaVuSans-30"/>
       <use transform="translate(127.24609375 58.046875)scale(0.7)" xlink:href="#DejaVuSans-30"/>
      </g>
     </g>
    </g>
    <g id="ytick_2">
     <g id="line2d_41">
      <g>
       <use style="stroke:#000000;stroke-width:0.5;" x="144.0" xlink:href="#m728421d6d4" y="396.882130163"/>
      </g>
     </g>
     <g id="line2d_42">
      <g>
       <use style="stroke:#000000;stroke-width:0.5;" x="1036.8" xlink:href="#mcb0005524f" y="396.882130163"/>
      </g>
     </g>
     <g id="text_5">
      <!-- $\mathdefault{10^{1}}$ -->
      <g transform="translate(121.7 400.352442663)scale(0.1 -0.1)">
       <use transform="translate(0.0 0.153125)" xlink:href="#DejaVuSans-31"/>
       <use transform="translate(63.623046875 0.153125)" xlink:href="#DejaVuSans-30"/>
       <use transform="translate(127.24609375 57.965625)scale(0.7)" xlink:href="#DejaVuSans-31"/>
      </g>
     </g>
    </g>
    <g id="ytick_3">
     <g id="line2d_43">
      <g>
       <use style="stroke:#000000;stroke-width:0.5;" x="144.0" xlink:href="#m728421d6d4" y="234.207828165"/>
      </g>
     </g>
     <g id="line2d_44">
      <g>
       <use style="stroke:#000000;stroke-width:0.5;" x="1036.8" xlink:href="#mcb0005524f" y="234.207828165"/>
      </g>
     </g>
     <g id="text_6">
      <!-- $\mathdefault{10^{2}}$ -->
      <g transform="translate(121.7 237.728140665)scale(0.1 -0.1)">
       <use transform="translate(0.0 0.234375)" xlink:href="#DejaVuSans-31"/>
       <use transform="translate(63.623046875 0.234375)" xlink:href="#DejaVuSans-30"/>
       <use transform="translate(127.24609375 58.046875)scale(0.7)" xlink:href="#DejaVuSans-32"/>
      </g>
     </g>
    </g>
    <g id="ytick_4">
     <g id="line2d_45">
      <g>
       <use style="stroke:#000000;stroke-width:0.5;" x="144.0" xlink:href="#m728421d6d4" y="71.533526166"/>
      </g>
     </g>
     <g id="line2d_46">
      <g>
       <use style="stroke:#000000;stroke-width:0.5;" x="1036.8" xlink:href="#mcb0005524f" y="71.533526166"/>
      </g>
     </g>
     <g id="text_7">
      <!-- $\mathdefault{10^{3}}$ -->
      <g transform="translate(121.7 75.053838666)scale(0.1 -0.1)">
       <use transform="translate(0.0 0.234375)" xlink:href="#DejaVuSans-31"/>
       <use transform="translate(63.623046875 0.234375)" xlink:href="#DejaVuSans-30"/>
       <use transform="translate(127.24609375 58.046875)scale(0.7)" xlink:href="#DejaVuSans-33"/>
      </g>
     </g>
    </g>
    <g id="ytick_5">
     <g id="line2d_47">
      <defs>
       <path d="
M0 0
L2 0" id="mf0c55a9a47" style="stroke:#000000;stroke-width:0.5;"/>
      </defs>
      <g>
       <use style="stroke:#000000;stroke-width:0.5;" x="144.0" xlink:href="#mf0c55a9a47" y="567.0"/>
      </g>
     </g>
     <g id="line2d_48">
      <defs>
       <path d="
M0 0
L-2 0" id="ma4f294b3af" style="stroke:#000000;stroke-width:0.5;"/>
      </defs>
      <g>
       <use style="stroke:#000000;stroke-width:0.5;" x="1036.8" xlink:href="#ma4f294b3af" y="567.0"/>
      </g>
     </g>
    </g>
    <g id="ytick_6">
     <g id="line2d_49">
      <g>
       <use style="stroke:#000000;stroke-width:0.5;" x="144.0" xlink:href="#mf0c55a9a47" y="510.586587737"/>
      </g>
     </g>
     <g id="line2d_50">
      <g>
       <use style="stroke:#000000;stroke-width:0.5;" x="1036.8" xlink:href="#ma4f294b3af" y="510.586587737"/>
      </g>
     </g>
    </g>
    <g id="ytick_7">
     <g id="line2d_51">
      <g>
       <use style="stroke:#000000;stroke-width:0.5;" x="144.0" xlink:href="#mf0c55a9a47" y="481.941065082"/>
      </g>
     </g>
     <g id="line2d_52">
      <g>
       <use style="stroke:#000000;stroke-width:0.5;" x="1036.8" xlink:href="#ma4f294b3af" y="481.941065082"/>
      </g>
     </g>
    </g>
    <g id="ytick_8">
     <g id="line2d_53">
      <g>
       <use style="stroke:#000000;stroke-width:0.5;" x="144.0" xlink:href="#mf0c55a9a47" y="461.616743311"/>
      </g>
     </g>
     <g id="line2d_54">
      <g>
       <use style="stroke:#000000;stroke-width:0.5;" x="1036.8" xlink:href="#ma4f294b3af" y="461.616743311"/>
      </g>
     </g>
    </g>
    <g id="ytick_9">
     <g id="line2d_55">
      <g>
       <use style="stroke:#000000;stroke-width:0.5;" x="144.0" xlink:href="#mf0c55a9a47" y="445.851974588"/>
      </g>
     </g>
     <g id="line2d_56">
      <g>
       <use style="stroke:#000000;stroke-width:0.5;" x="1036.8" xlink:href="#ma4f294b3af" y="445.851974588"/>
      </g>
     </g>
    </g>
    <g id="ytick_10">
     <g id="line2d_57">
      <g>
       <use style="stroke:#000000;stroke-width:0.5;" x="144.0" xlink:href="#mf0c55a9a47" y="432.971220656"/>
      </g>
     </g>
     <g id="line2d_58">
      <g>
       <use style="stroke:#000000;stroke-width:0.5;" x="1036.8" xlink:href="#ma4f294b3af" y="432.971220656"/>
      </g>
     </g>
    </g>
    <g id="ytick_11">
     <g id="line2d_59">
      <g>
       <use style="stroke:#000000;stroke-width:0.5;" x="144.0" xlink:href="#mf0c55a9a47" y="422.080698382"/>
      </g>
     </g>
     <g id="line2d_60">
      <g>
       <use style="stroke:#000000;stroke-width:0.5;" x="1036.8" xlink:href="#ma4f294b3af" y="422.080698382"/>
      </g>
     </g>
    </g>
    <g id="ytick_12">
     <g id="line2d_61">
      <g>
       <use style="stroke:#000000;stroke-width:0.5;" x="144.0" xlink:href="#mf0c55a9a47" y="412.646898886"/>
      </g>
     </g>
     <g id="line2d_62">
      <g>
       <use style="stroke:#000000;stroke-width:0.5;" x="1036.8" xlink:href="#ma4f294b3af" y="412.646898886"/>
      </g>
     </g>
    </g>
    <g id="ytick_13">
     <g id="line2d_63">
      <g>
       <use style="stroke:#000000;stroke-width:0.5;" x="144.0" xlink:href="#mf0c55a9a47" y="404.325698001"/>
      </g>
     </g>
     <g id="line2d_64">
      <g>
       <use style="stroke:#000000;stroke-width:0.5;" x="1036.8" xlink:href="#ma4f294b3af" y="404.325698001"/>
      </g>
     </g>
    </g>
    <g id="ytick_14">
     <g id="line2d_65">
      <g>
       <use style="stroke:#000000;stroke-width:0.5;" x="144.0" xlink:href="#mf0c55a9a47" y="347.912285738"/>
      </g>
     </g>
     <g id="line2d_66">
      <g>
       <use style="stroke:#000000;stroke-width:0.5;" x="1036.8" xlink:href="#ma4f294b3af" y="347.912285738"/>
      </g>
     </g>
    </g>
    <g id="ytick_15">
     <g id="line2d_67">
      <g>
       <use style="stroke:#000000;stroke-width:0.5;" x="144.0" xlink:href="#mf0c55a9a47" y="319.266763083"/>
      </g>
     </g>
     <g id="line2d_68">
      <g>
       <use style="stroke:#000000;stroke-width:0.5;" x="1036.8" xlink:href="#ma4f294b3af" y="319.266763083"/>
      </g>
     </g>
    </g>
    <g id="ytick_16">
     <g id="line2d_69">
      <g>
       <use style="stroke:#000000;stroke-width:0.5;" x="144.0" xlink:href="#mf0c55a9a47" y="298.942441313"/>
      </g>
     </g>
     <g id="line2d_70">
      <g>
       <use style="stroke:#000000;stroke-width:0.5;" x="1036.8" xlink:href="#ma4f294b3af" y="298.942441313"/>
      </g>
     </g>
    </g>
    <g id="ytick_17">
     <g id="line2d_71">
      <g>
       <use style="stroke:#000000;stroke-width:0.5;" x="144.0" xlink:href="#mf0c55a9a47" y="283.17767259"/>
      </g>
     </g>
     <g id="line2d_72">
      <g>
       <use style="stroke:#000000;stroke-width:0.5;" x="1036.8" xlink:href="#ma4f294b3af" y="283.17767259"/>
      </g>
     </g>
    </g>
    <g id="ytick_18">
     <g id="line2d_73">
      <g>
       <use style="stroke:#000000;stroke-width:0.5;" x="144.0" xlink:href="#mf0c55a9a47" y="270.296918658"/>
      </g>
     </g>
     <g id="line2d_74">
      <g>
       <use style="stroke:#000000;stroke-width:0.5;" x="1036.8" xlink:href="#ma4f294b3af" y="270.296918658"/>
      </g>
     </g>
    </g>
    <g id="ytick_19">
     <g id="line2d_75">
      <g>
       <use style="stroke:#000000;stroke-width:0.5;" x="144.0" xlink:href="#mf0c55a9a47" y="259.406396383"/>
      </g>
     </g>
     <g id="line2d_76">
      <g>
       <use style="stroke:#000000;stroke-width:0.5;" x="1036.8" xlink:href="#ma4f294b3af" y="259.406396383"/>
      </g>
     </g>
    </g>
    <g id="ytick_20">
     <g id="line2d_77">
      <g>
       <use style="stroke:#000000;stroke-width:0.5;" x="144.0" xlink:href="#mf0c55a9a47" y="249.972596887"/>
      </g>
     </g>
     <g id="line2d_78">
      <g>
       <use style="stroke:#000000;stroke-width:0.5;" x="1036.8" xlink:href="#ma4f294b3af" y="249.972596887"/>
      </g>
     </g>
    </g>
    <g id="ytick_21">
     <g id="line2d_79">
      <g>
       <use style="stroke:#000000;stroke-width:0.5;" x="144.0" xlink:href="#mf0c55a9a47" y="241.651396003"/>
      </g>
     </g>
     <g id="line2d_80">
      <g>
       <use style="stroke:#000000;stroke-width:0.5;" x="1036.8" xlink:href="#ma4f294b3af" y="241.651396003"/>
      </g>
     </g>
    </g>
    <g id="ytick_22">
     <g id="line2d_81">
      <g>
       <use style="stroke:#000000;stroke-width:0.5;" x="144.0" xlink:href="#mf0c55a9a47" y="185.237983739"/>
      </g>
     </g>
     <g id="line2d_82">
      <g>
       <use style="stroke:#000000;stroke-width:0.5;" x="1036.8" xlink:href="#ma4f294b3af" y="185.237983739"/>
      </g>
     </g>
    </g>
    <g id="ytick_23">
     <g id="line2d_83">
      <g>
       <use style="stroke:#000000;stroke-width:0.5;" x="144.0" xlink:href="#mf0c55a9a47" y="156.592461084"/>
      </g>
     </g>
     <g id="line2d_84">
      <g>
       <use style="stroke:#000000;stroke-width:0.5;" x="1036.8" xlink:href="#ma4f294b3af" y="156.592461084"/>
      </g>
     </g>
    </g>
    <g id="ytick_24">
     <g id="line2d_85">
      <g>
       <use style="stroke:#000000;stroke-width:0.5;" x="144.0" xlink:href="#mf0c55a9a47" y="136.268139314"/>
      </g>
     </g>
     <g id="line2d_86">
      <g>
       <use style="stroke:#000000;stroke-width:0.5;" x="1036.8" xlink:href="#ma4f294b3af" y="136.268139314"/>
      </g>
     </g>
    </g>
    <g id="ytick_25">
     <g id="line2d_87">
      <g>
       <use style="stroke:#000000;stroke-width:0.5;" x="144.0" xlink:href="#mf0c55a9a47" y="120.503370591"/>
      </g>
     </g>
     <g id="line2d_88">
      <g>
       <use style="stroke:#000000;stroke-width:0.5;" x="1036.8" xlink:href="#ma4f294b3af" y="120.503370591"/>
      </g>
     </g>
    </g>
    <g id="ytick_26">
     <g id="line2d_89">
      <g>
       <use style="stroke:#000000;stroke-width:0.5;" x="144.0" xlink:href="#mf0c55a9a47" y="107.622616659"/>
      </g>
     </g>
     <g id="line2d_90">
      <g>
       <use style="stroke:#000000;stroke-width:0.5;" x="1036.8" xlink:href="#ma4f294b3af" y="107.622616659"/>
      </g>
     </g>
    </g>
    <g id="ytick_27">
     <g id="line2d_91">
      <g>
       <use style="stroke:#000000;stroke-width:0.5;" x="144.0" xlink:href="#mf0c55a9a47" y="96.7320943849"/>
      </g>
     </g>
     <g id="line2d_92">
      <g>
       <use style="stroke:#000000;stroke-width:0.5;" x="1036.8" xlink:href="#ma4f294b3af" y="96.7320943849"/>
      </g>
     </g>
    </g>
    <g id="ytick_28">
     <g id="line2d_93">
      <g>
       <use style="stroke:#000000;stroke-width:0.5;" x="144.0" xlink:href="#mf0c55a9a47" y="87.2982948887"/>
      </g>
     </g>
     <g id="line2d_94">
      <g>
       <use style="stroke:#000000;stroke-width:0.5;" x="1036.8" xlink:href="#ma4f294b3af" y="87.2982948887"/>
      </g>
     </g>
    </g>
    <g id="ytick_29">
     <g id="line2d_95">
      <g>
       <use style="stroke:#000000;stroke-width:0.5;" x="144.0" xlink:href="#mf0c55a9a47" y="78.9770940041"/>
      </g>
     </g>
     <g id="line2d_96">
      <g>
       <use style="stroke:#000000;stroke-width:0.5;" x="1036.8" xlink:href="#ma4f294b3af" y="78.9770940041"/>
      </g>
     </g>
    </g>
    <g id="text_8">
     <!-- Frequenza -->
     <defs>
      <path d="
M54.8906 33.0156
L54.8906 0
L45.9062 0
L45.9062 32.7188
Q45.9062 40.4844 42.875 44.3281
Q39.8438 48.1875 33.7969 48.1875
Q26.5156 48.1875 22.3125 43.5469
Q18.1094 38.9219 18.1094 30.9062
L18.1094 0
L9.07812 0
L9.07812 54.6875
L18.1094 54.6875
L18.1094 46.1875
Q21.3438 51.125 25.7031 53.5625
Q30.0781 56 35.7969 56
Q45.2188 56 50.0469 50.1719
Q54.8906 44.3438 54.8906 33.0156" id="DejaVuSans-6e"/>
      <path d="
M5.51562 54.6875
L48.1875 54.6875
L48.1875 46.4844
L14.4062 7.17188
L48.1875 7.17188
L48.1875 0
L4.29688 0
L4.29688 8.20312
L38.0938 47.5156
L5.51562 47.5156
z
" id="DejaVuSans-7a"/>
      <path d="
M9.8125 72.9062
L51.7031 72.9062
L51.7031 64.5938
L19.6719 64.5938
L19.6719 43.1094
L48.5781 43.1094
L48.5781 34.8125
L19.6719 34.8125
L19.6719 0
L9.8125 0
z
" id="DejaVuSans-46"/>
      <path d="
M8.5 21.5781
L8.5 54.6875
L17.4844 54.6875
L17.4844 21.9219
Q17.4844 14.1562 20.5 10.2656
Q23.5312 6.39062 29.5938 6.39062
Q36.8594 6.39062 41.0781 11.0312
Q45.3125 15.6719 45.3125 23.6875
L45.3125 54.6875
L54.2969 54.6875
L54.2969 0
L45.3125 0
L45.3125 8.40625
Q42.0469 3.42188 37.7188 1
Q33.4062 -1.42188 27.6875 -1.42188
Q18.2656 -1.42188 13.375 4.4375
Q8.5 10.2969 8.5 21.5781
M31.1094 56
z
" id="DejaVuSans-75"/>
      <path d="
M56.2031 29.5938
L56.2031 25.2031
L14.8906 25.2031
Q15.4844 15.9219 20.4844 11.0625
Q25.4844 6.20312 34.4219 6.20312
Q39.5938 6.20312 44.4531 7.46875
Q49.3125 8.73438 54.1094 11.2812
L54.1094 2.78125
Q49.2656 0.734375 44.1875 -0.34375
Q39.1094 -1.42188 33.8906 -1.42188
Q20.7969 -1.42188 13.1562 6.1875
Q5.51562 13.8125 5.51562 26.8125
Q5.51562 40.2344 12.7656 48.1094
Q20.0156 56 32.3281 56
Q43.3594 56 49.7812 48.8906
Q56.2031 41.7969 56.2031 29.5938
M47.2188 32.2344
Q47.125 39.5938 43.0938 43.9844
Q39.0625 48.3906 32.4219 48.3906
Q24.9062 48.3906 20.3906 44.1406
Q15.875 39.8906 15.1875 32.1719
z
" id="DejaVuSans-65"/>
      <path d="
M14.7969 27.2969
Q14.7969 17.3906 18.875 11.75
Q22.9531 6.10938 30.0781 6.10938
Q37.2031 6.10938 41.2969 11.75
Q45.4062 17.3906 45.4062 27.2969
Q45.4062 37.2031 41.2969 42.8438
Q37.2031 48.4844 30.0781 48.4844
Q22.9531 48.4844 18.875 42.8438
Q14.7969 37.2031 14.7969 27.2969
M45.4062 8.20312
Q42.5781 3.32812 38.25 0.953125
Q33.9375 -1.42188 27.875 -1.42188
Q17.9688 -1.42188 11.7344 6.48438
Q5.51562 14.4062 5.51562 27.2969
Q5.51562 40.1875 11.7344 48.0938
Q17.9688 56 27.875 56
Q33.9375 56 38.25 53.625
Q42.5781 51.2656 45.4062 46.3906
L45.4062 54.6875
L54.3906 54.6875
L54.3906 -20.7969
L45.4062 -20.7969
z
" id="DejaVuSans-71"/>
     </defs>
     <g transform="translate(114.6203125 340.76484375)rotate(-90.0)scale(0.1 -0.1)">
      <use xlink:href="#DejaVuSans-46"/>
      <use x="50.26953125" xlink:href="#DejaVuSans-72"/>
      <use x="89.1328125" xlink:href="#DejaVuSans-65"/>
      <use x="150.65625" xlink:href="#DejaVuSans-71"/>
      <use x="214.1328125" xlink:href="#DejaVuSans-75"/>
      <use x="277.51171875" xlink:href="#DejaVuSans-65"/>
      <use x="339.03515625" xlink:href="#DejaVuSans-6e"/>
      <use x="402.4140625" xlink:href="#DejaVuSans-7a"/>
      <use x="454.904296875" xlink:href="#DejaVuSans-61"/>
     </g>
    </g>
   </g>
   <g id="text_9">
    <!-- Comparazione distribuzioni del grado -->
    <defs>
     <path d="
M45.4062 27.9844
Q45.4062 37.75 41.375 43.1094
Q37.3594 48.4844 30.0781 48.4844
Q22.8594 48.4844 18.8281 43.1094
Q14.7969 37.75 14.7969 27.9844
Q14.7969 18.2656 18.8281 12.8906
Q22.8594 7.51562 30.0781 7.51562
Q37.3594 7.51562 41.375 12.8906
Q45.4062 18.2656 45.4062 27.9844
M54.3906 6.78125
Q54.3906 -7.17188 48.1875 -13.9844
Q42 -20.7969 29.2031 -20.7969
Q24.4688 -20.7969 20.2656 -20.0938
Q16.0625 -19.3906 12.1094 -17.9219
L12.1094 -9.1875
Q16.0625 -11.3281 19.9219 -12.3438
Q23.7812 -13.375 27.7812 -13.375
Q36.625 -13.375 41.0156 -8.76562
Q45.4062 -4.15625 45.4062 5.17188
L45.4062 9.625
Q42.625 4.78125 38.2812 2.39062
Q33.9375 0 27.875 0
Q17.8281 0 11.6719 7.65625
Q5.51562 15.3281 5.51562 27.9844
Q5.51562 40.6719 11.6719 48.3281
Q17.8281 56 27.875 56
Q33.9375 56 38.2812 53.6094
Q42.625 51.2188 45.4062 46.3906
L45.4062 54.6875
L54.3906 54.6875
z
" id="DejaVuSans-67"/>
     <path d="
M52 44.1875
Q55.375 50.25 60.0625 53.125
Q64.75 56 71.0938 56
Q79.6406 56 84.2812 50.0156
Q88.9219 44.0469 88.9219 33.0156
L88.9219 0
L79.8906 0
L79.8906 32.7188
Q79.8906 40.5781 77.0938 44.375
Q74.3125 48.1875 68.6094 48.1875
Q61.625 48.1875 57.5625 43.5469
Q53.5156 38.9219 53.5156 30.9062
L53.5156 0
L44.4844 0
L44.4844 32.7188
Q44.4844 40.625 41.7031 44.4062
Q38.9219 48.1875 33.1094 48.1875
Q26.2188 48.1875 22.1562 43.5312
Q18.1094 38.875 18.1094 30.9062
L18.1094 0
L9.07812 0
L9.07812 54.6875
L18.1094 54.6875
L18.1094 46.1875
Q21.1875 51.2188 25.4844 53.6094
Q29.7812 56 35.6875 56
Q41.6562 56 45.8281 52.9688
Q50 49.9531 52 44.1875" id="DejaVuSans-6d"/>
     <path d="
M64.4062 67.2812
L64.4062 56.8906
Q59.4219 61.5312 53.7812 63.8125
Q48.1406 66.1094 41.7969 66.1094
Q29.2969 66.1094 22.6562 58.4688
Q16.0156 50.8281 16.0156 36.375
Q16.0156 21.9688 22.6562 14.3281
Q29.2969 6.6875 41.7969 6.6875
Q48.1406 6.6875 53.7812 8.98438
Q59.4219 11.2812 64.4062 15.9219
L64.4062 5.60938
Q59.2344 2.09375 53.4375 0.328125
Q47.6562 -1.42188 41.2188 -1.42188
Q24.6562 -1.42188 15.125 8.70312
Q5.60938 18.8438 5.60938 36.375
Q5.60938 53.9531 15.125 64.0781
Q24.6562 74.2188 41.2188 74.2188
Q47.75 74.2188 53.5312 72.4844
Q59.3281 70.75 64.4062 67.2812" id="DejaVuSans-43"/>
     <path d="
M9.42188 75.9844
L18.4062 75.9844
L18.4062 0
L9.42188 0
z
" id="DejaVuSans-6c"/>
     <path id="DejaVuSans-20"/>
     <path d="
M9.42188 54.6875
L18.4062 54.6875
L18.4062 0
L9.42188 0
z

M9.42188 75.9844
L18.4062 75.9844
L18.4062 64.5938
L9.42188 64.5938
z
" id="DejaVuSans-69"/>
     <path d="
M18.3125 70.2188
L18.3125 54.6875
L36.8125 54.6875
L36.8125 47.7031
L18.3125 47.7031
L18.3125 18.0156
Q18.3125 11.3281 20.1406 9.42188
Q21.9688 7.51562 27.5938 7.51562
L36.8125 7.51562
L36.8125 0
L27.5938 0
Q17.1875 0 13.2344 3.875
Q9.28125 7.76562 9.28125 18.0156
L9.28125 47.7031
L2.6875 47.7031
L2.6875 54.6875
L9.28125 54.6875
L9.28125 70.2188
z
" id="DejaVuSans-74"/>
     <path d="
M48.6875 27.2969
Q48.6875 37.2031 44.6094 42.8438
Q40.5312 48.4844 33.4062 48.4844
Q26.2656 48.4844 22.1875 42.8438
Q18.1094 37.2031 18.1094 27.2969
Q18.1094 17.3906 22.1875 11.75
Q26.2656 6.10938 33.4062 6.10938
Q40.5312 6.10938 44.6094 11.75
Q48.6875 17.3906 48.6875 27.2969
M18.1094 46.3906
Q20.9531 51.2656 25.2656 53.625
Q29.5938 56 35.5938 56
Q45.5625 56 51.7812 48.0938
Q58.0156 40.1875 58.0156 27.2969
Q58.0156 14.4062 51.7812 6.48438
Q45.5625 -1.42188 35.5938 -1.42188
Q29.5938 -1.42188 25.2656 0.953125
Q20.9531 3.32812 18.1094 8.20312
L18.1094 0
L9.07812 0
L9.07812 75.9844
L18.1094 75.9844
z
" id="DejaVuSans-62"/>
     <path d="
M18.1094 8.20312
L18.1094 -20.7969
L9.07812 -20.7969
L9.07812 54.6875
L18.1094 54.6875
L18.1094 46.3906
Q20.9531 51.2656 25.2656 53.625
Q29.5938 56 35.5938 56
Q45.5625 56 51.7812 48.0938
Q58.0156 40.1875 58.0156 27.2969
Q58.0156 14.4062 51.7812 6.48438
Q45.5625 -1.42188 35.5938 -1.42188
Q29.5938 -1.42188 25.2656 0.953125
Q20.9531 3.32812 18.1094 8.20312
M48.6875 27.2969
Q48.6875 37.2031 44.6094 42.8438
Q40.5312 48.4844 33.4062 48.4844
Q26.2656 48.4844 22.1875 42.8438
Q18.1094 37.2031 18.1094 27.2969
Q18.1094 17.3906 22.1875 11.75
Q26.2656 6.10938 33.4062 6.10938
Q40.5312 6.10938 44.6094 11.75
Q48.6875 17.3906 48.6875 27.2969" id="DejaVuSans-70"/>
     <path d="
M44.2812 53.0781
L44.2812 44.5781
Q40.4844 46.5312 36.375 47.5
Q32.2812 48.4844 27.875 48.4844
Q21.1875 48.4844 17.8438 46.4375
Q14.5 44.3906 14.5 40.2812
Q14.5 37.1562 16.8906 35.375
Q19.2812 33.5938 26.5156 31.9844
L29.5938 31.2969
Q39.1562 29.25 43.1875 25.5156
Q47.2188 21.7812 47.2188 15.0938
Q47.2188 7.46875 41.1875 3.01562
Q35.1562 -1.42188 24.6094 -1.42188
Q20.2188 -1.42188 15.4531 -0.5625
Q10.6875 0.296875 5.42188 2
L5.42188 11.2812
Q10.4062 8.6875 15.2344 7.39062
Q20.0625 6.10938 24.8125 6.10938
Q31.1562 6.10938 34.5625 8.28125
Q37.9844 10.4531 37.9844 14.4062
Q37.9844 18.0625 35.5156 20.0156
Q33.0625 21.9688 24.7031 23.7812
L21.5781 24.5156
Q13.2344 26.2656 9.51562 29.9062
Q5.8125 33.5469 5.8125 39.8906
Q5.8125 47.6094 11.2812 51.7969
Q16.75 56 26.8125 56
Q31.7812 56 36.1719 55.2656
Q40.5781 54.5469 44.2812 53.0781" id="DejaVuSans-73"/>
    </defs>
    <g transform="translate(478.4353125 59.8)scale(0.12 -0.12)">
     <use xlink:href="#DejaVuSans-43"/>
     <use x="69.82421875" xlink:href="#DejaVuSans-6f"/>
     <use x="131.005859375" xlink:href="#DejaVuSans-6d"/>
     <use x="228.41796875" xlink:href="#DejaVuSans-70"/>
     <use x="291.89453125" xlink:href="#DejaVuSans-61"/>
     <use x="353.173828125" xlink:href="#DejaVuSans-72"/>
     <use x="394.287109375" xlink:href="#DejaVuSans-61"/>
     <use x="455.56640625" xlink:href="#DejaVuSans-7a"/>
     <use x="508.056640625" xlink:href="#DejaVuSans-69"/>
     <use x="535.83984375" xlink:href="#DejaVuSans-6f"/>
     <use x="597.021484375" xlink:href="#DejaVuSans-6e"/>
     <use x="660.400390625" xlink:href="#DejaVuSans-65"/>
     <use x="721.923828125" xlink:href="#DejaVuSans-20"/>
     <use x="753.7109375" xlink:href="#DejaVuSans-64"/>
     <use x="817.1875" xlink:href="#DejaVuSans-69"/>
     <use x="844.970703125" xlink:href="#DejaVuSans-73"/>
     <use x="897.0703125" xlink:href="#DejaVuSans-74"/>
     <use x="936.279296875" xlink:href="#DejaVuSans-72"/>
     <use x="977.392578125" xlink:href="#DejaVuSans-69"/>
     <use x="1005.17578125" xlink:href="#DejaVuSans-62"/>
     <use x="1068.65234375" xlink:href="#DejaVuSans-75"/>
     <use x="1132.03125" xlink:href="#DejaVuSans-7a"/>
     <use x="1184.52148438" xlink:href="#DejaVuSans-69"/>
     <use x="1212.3046875" xlink:href="#DejaVuSans-6f"/>
     <use x="1273.48632812" xlink:href="#DejaVuSans-6e"/>
     <use x="1336.86523438" xlink:href="#DejaVuSans-69"/>
     <use x="1364.6484375" xlink:href="#DejaVuSans-20"/>
     <use x="1396.43554688" xlink:href="#DejaVuSans-64"/>
     <use x="1459.91210938" xlink:href="#DejaVuSans-65"/>
     <use x="1521.43554688" xlink:href="#DejaVuSans-6c"/>
     <use x="1549.21875" xlink:href="#DejaVuSans-20"/>
     <use x="1581.00585938" xlink:href="#DejaVuSans-67"/>
     <use x="1644.48242188" xlink:href="#DejaVuSans-72"/>
     <use x="1685.59570312" xlink:href="#DejaVuSans-61"/>
     <use x="1746.875" xlink:href="#DejaVuSans-64"/>
     <use x="1810.3515625" xlink:href="#DejaVuSans-6f"/>
    </g>
   </g>
   <g id="legend_1">
    <g id="patch_10">
     <path d="
M896.392 127.241
L1030.8 127.241
L1030.8 70.8
L896.392 70.8
z
" style="fill:#ffffff;stroke:#000000;stroke-linejoin:miter;"/>
    </g>
    <g id="patch_11">
     <path d="
M901.192 84.7181
L925.192 84.7181
L925.192 76.3181
L901.192 76.3181
z
" style="fill:none;opacity:0.7;stroke:#699534;stroke-linejoin:miter;stroke-width:3;"/>
    </g>
    <g id="text_10">
     <!-- Erdos-Renyi -->
     <defs>
      <path d="
M9.8125 72.9062
L55.9062 72.9062
L55.9062 64.5938
L19.6719 64.5938
L19.6719 43.0156
L54.3906 43.0156
L54.3906 34.7188
L19.6719 34.7188
L19.6719 8.29688
L56.7812 8.29688
L56.7812 0
L9.8125 0
z
" id="DejaVuSans-45"/>
      <path d="
M32.1719 -5.07812
Q28.375 -14.8438 24.75 -17.8125
Q21.1406 -20.7969 15.0938 -20.7969
L7.90625 -20.7969
L7.90625 -13.2812
L13.1875 -13.2812
Q16.8906 -13.2812 18.9375 -11.5156
Q21 -9.76562 23.4844 -3.21875
L25.0938 0.875
L2.98438 54.6875
L12.5 54.6875
L29.5938 11.9219
L46.6875 54.6875
L56.2031 54.6875
z
" id="DejaVuSans-79"/>
      <path d="
M4.89062 31.3906
L31.2031 31.3906
L31.2031 23.3906
L4.89062 23.3906
z
" id="DejaVuSans-2d"/>
      <path d="
M44.3906 34.1875
Q47.5625 33.1094 50.5625 29.5938
Q53.5625 26.0781 56.5938 19.9219
L66.6094 0
L56 0
L46.6875 18.7031
Q43.0625 26.0312 39.6719 28.4219
Q36.2812 30.8125 30.4219 30.8125
L19.6719 30.8125
L19.6719 0
L9.8125 0
L9.8125 72.9062
L32.0781 72.9062
Q44.5781 72.9062 50.7344 67.6719
Q56.8906 62.4531 56.8906 51.9062
Q56.8906 45.0156 53.6875 40.4688
Q50.4844 35.9375 44.3906 34.1875
M19.6719 64.7969
L19.6719 38.9219
L32.0781 38.9219
Q39.2031 38.9219 42.8438 42.2188
Q46.4844 45.5156 46.4844 51.9062
Q46.4844 58.2969 42.8438 61.5469
Q39.2031 64.7969 32.0781 64.7969
z
" id="DejaVuSans-52"/>
     </defs>
     <g transform="translate(934.7925 84.718125)scale(0.12 -0.12)">
      <use xlink:href="#DejaVuSans-45"/>
      <use x="63.18359375" xlink:href="#DejaVuSans-72"/>
      <use x="102.546875" xlink:href="#DejaVuSans-64"/>
      <use x="166.0234375" xlink:href="#DejaVuSans-6f"/>
      <use x="227.205078125" xlink:href="#DejaVuSans-73"/>
      <use x="279.3046875" xlink:href="#DejaVuSans-2d"/>
      <use x="315.388671875" xlink:href="#DejaVuSans-52"/>
      <use x="380.37109375" xlink:href="#DejaVuSans-65"/>
      <use x="441.89453125" xlink:href="#DejaVuSans-6e"/>
      <use x="505.2734375" xlink:href="#DejaVuSans-79"/>
      <use x="564.453125" xlink:href="#DejaVuSans-69"/>
     </g>
    </g>
    <g id="patch_12">
     <path d="
M901.192 102.332
L925.192 102.332
L925.192 93.9319
L901.192 93.9319
z
" style="fill:none;opacity:0.7;stroke:#3d5a92;stroke-linejoin:miter;stroke-width:3;"/>
    </g>
    <g id="text_11">
     <!-- Watts-Strogatz -->
     <defs>
      <path d="
M53.5156 70.5156
L53.5156 60.8906
Q47.9062 63.5781 42.9219 64.8906
Q37.9375 66.2188 33.2969 66.2188
Q25.25 66.2188 20.875 63.0938
Q16.5 59.9688 16.5 54.2031
Q16.5 49.3594 19.4062 46.8906
Q22.3125 44.4375 30.4219 42.9219
L36.375 41.7031
Q47.4062 39.5938 52.6562 34.2969
Q57.9062 29 57.9062 20.125
Q57.9062 9.51562 50.7969 4.04688
Q43.7031 -1.42188 29.9844 -1.42188
Q24.8125 -1.42188 18.9688 -0.25
Q13.1406 0.921875 6.89062 3.21875
L6.89062 13.375
Q12.8906 10.0156 18.6562 8.29688
Q24.4219 6.59375 29.9844 6.59375
Q38.4219 6.59375 43.0156 9.90625
Q47.6094 13.2344 47.6094 19.3906
Q47.6094 24.75 44.3125 27.7812
Q41.0156 30.8125 33.5 32.3281
L27.4844 33.5
Q16.4531 35.6875 11.5156 40.375
Q6.59375 45.0625 6.59375 53.4219
Q6.59375 63.0938 13.4062 68.6562
Q20.2188 74.2188 32.1719 74.2188
Q37.3125 74.2188 42.625 73.2812
Q47.9531 72.3594 53.5156 70.5156" id="DejaVuSans-53"/>
      <path d="
M3.32812 72.9062
L13.2812 72.9062
L28.6094 11.2812
L43.8906 72.9062
L54.9844 72.9062
L70.3125 11.2812
L85.5938 72.9062
L95.6094 72.9062
L77.2969 0
L64.8906 0
L49.5156 63.2812
L33.9844 0
L21.5781 0
z
" id="DejaVuSans-57"/>
     </defs>
     <g transform="translate(934.7925 102.331875)scale(0.12 -0.12)">
      <use xlink:href="#DejaVuSans-57"/>
      <use x="92.501953125" xlink:href="#DejaVuSans-61"/>
      <use x="153.78125" xlink:href="#DejaVuSans-74"/>
      <use x="192.990234375" xlink:href="#DejaVuSans-74"/>
      <use x="232.19921875" xlink:href="#DejaVuSans-73"/>
      <use x="284.298828125" xlink:href="#DejaVuSans-2d"/>
      <use x="320.3828125" xlink:href="#DejaVuSans-53"/>
      <use x="383.859375" xlink:href="#DejaVuSans-74"/>
      <use x="423.068359375" xlink:href="#DejaVuSans-72"/>
      <use x="461.931640625" xlink:href="#DejaVuSans-6f"/>
      <use x="523.11328125" xlink:href="#DejaVuSans-67"/>
      <use x="586.58984375" xlink:href="#DejaVuSans-61"/>
      <use x="647.869140625" xlink:href="#DejaVuSans-74"/>
      <use x="687.078125" xlink:href="#DejaVuSans-7a"/>
     </g>
    </g>
    <g id="patch_13">
     <path d="
M901.192 119.946
L925.192 119.946
L925.192 111.546
L901.192 111.546
z
" style="fill:none;opacity:0.7;stroke:#fd6266;stroke-linejoin:miter;stroke-width:3;"/>
    </g>
    <g id="text_12">
     <!-- Barabasi-Albert -->
     <defs>
      <path d="
M34.1875 63.1875
L20.7969 26.9062
L47.6094 26.9062
z

M28.6094 72.9062
L39.7969 72.9062
L67.5781 0
L57.3281 0
L50.6875 18.7031
L17.8281 18.7031
L11.1875 0
L0.78125 0
z
" id="DejaVuSans-41"/>
      <path d="
M19.6719 34.8125
L19.6719 8.10938
L35.5 8.10938
Q43.4531 8.10938 47.2812 11.4062
Q51.125 14.7031 51.125 21.4844
Q51.125 28.3281 47.2812 31.5625
Q43.4531 34.8125 35.5 34.8125
z

M19.6719 64.7969
L19.6719 42.8281
L34.2812 42.8281
Q41.5 42.8281 45.0312 45.5312
Q48.5781 48.25 48.5781 53.8125
Q48.5781 59.3281 45.0312 62.0625
Q41.5 64.7969 34.2812 64.7969
z

M9.8125 72.9062
L35.0156 72.9062
Q46.2969 72.9062 52.3906 68.2188
Q58.5 63.5312 58.5 54.8906
Q58.5 48.1875 55.375 44.2344
Q52.25 40.2812 46.1875 39.3125
Q53.4688 37.75 57.5 32.7812
Q61.5312 27.8281 61.5312 20.4062
Q61.5312 10.6406 54.8906 5.3125
Q48.25 0 35.9844 0
L9.8125 0
z
" id="DejaVuSans-42"/>
     </defs>
     <g transform="translate(934.7925 119.945625)scale(0.12 -0.12)">
      <use xlink:href="#DejaVuSans-42"/>
      <use x="68.603515625" xlink:href="#DejaVuSans-61"/>
      <use x="129.8828125" xlink:href="#DejaVuSans-72"/>
      <use x="170.99609375" xlink:href="#DejaVuSans-61"/>
      <use x="232.275390625" xlink:href="#DejaVuSans-62"/>
      <use x="295.751953125" xlink:href="#DejaVuSans-61"/>
      <use x="357.03125" xlink:href="#DejaVuSans-73"/>
      <use x="409.130859375" xlink:href="#DejaVuSans-69"/>
      <use x="436.9140625" xlink:href="#DejaVuSans-2d"/>
      <use x="470.748046875" xlink:href="#DejaVuSans-41"/>
      <use x="539.15625" xlink:href="#DejaVuSans-6c"/>
      <use x="566.939453125" xlink:href="#DejaVuSans-62"/>
      <use x="630.416015625" xlink:href="#DejaVuSans-65"/>
      <use x="691.939453125" xlink:href="#DejaVuSans-72"/>
      <use x="733.052734375" xlink:href="#DejaVuSans-74"/>
     </g>
    </g>
   </g>
  </g>
 </g>
 <defs>
  <clipPath id="p380bbe8dbe">
   <rect height="502.2" width="892.8" x="144.0" y="64.8"/>
  </clipPath>
 </defs>
</svg>
