<?xml version="1.0" standalone="no"?>
<svg width="567.429" height="425.697" viewBox="0 0 567.429 425.697" xmlns="http://www.w3.org/2000/svg">
<title>
/home/protoss/Documenti/SistemiComplessi/src/Iuri/banale.svg
</title>
<desc>
Creator: ROOT Version 5.34/30
CreationDate: Sat Mar 12 03:25:25 2016</desc>
<defs>
</defs>
<rect x="0.5" y="0" width="566.929" height="425.197" fill="white"/>
<rect x="57.1929" y="42.5197" width="453.543" height="340.157" fill="white"/>
<rect x="57.1929" y="42.5197" width="453.543" height="340.157" fill="none" stroke="black"/>
<rect x="57.1929" y="42.5197" width="453.543" height="340.157" fill="white"/>
<rect x="57.1929" y="42.5197" width="453.543" height="340.157" fill="none" stroke="black"/>
<path d="M57.1929,382.677h 453.543" fill="none" stroke="black"/>
<path d="M57.1929,372.472v 10.2047" fill="none" stroke="black"/>
<path d="M263.349,377.575v 5.10236" fill="none" stroke="black"/>
<path d="M469.505,372.472v 10.2047" fill="none" stroke="black"/>
<path d="M469.505,372.472v 10.2047" fill="none" stroke="black"/>
<text x="53.4134" y="396.378" fill="black" font-size="14.1531" font-family="Helvetica">
0
</text>
<text x="466.327" y="396.378" fill="black" font-size="14.1531" font-family="Helvetica">
1
</text>
<path d="M57.1929,382.677v -340.157" fill="none" stroke="black"/>
<path d="M70.7992,382.677h -13.6063" fill="none" stroke="black"/>
<path d="M63.9961,228.06h -6.80315" fill="none" stroke="black"/>
<path d="M70.7992,73.4431h -13.6063" fill="none" stroke="black"/>
<path d="M70.7992,73.4431h -13.6063" fill="none" stroke="black"/>
<text x="47.2717" y="387.874" fill="black" font-size="14.1531" font-family="Helvetica">
0
</text>
<text x="49.1614" y="78.4252" fill="black" font-size="14.1531" font-family="Helvetica">
1
</text>
<g stroke="black" stroke-width="1" fill="black">
<circle cx="469.505" cy="73.4431" r="1.70079"/>
</g>
<path d="M59.4606,258.908l 4.53543, -0.317566l 4.53543, -0.452885l 4.53543, -0.555487l 4.53543, -0.641749l 4.53543, -0.717666l 4.53543, -0.786264l 4.53543, -0.849328l 4.53543, -0.908015l 4.53543, -0.963129l 4.53543, -1.01525l 4.53543, -1.06482l
 4.53543, -1.11219l 4.53543, -1.15761l 4.53543, -1.20132l 4.53543, -1.2435l 4.53543, -1.28428l 4.53543, -1.32382l 4.53543, -1.3622l 4.53543, -1.39953l 4.53543, -1.43589l 4.53543, -1.47136l 4.53543, -1.50599l 4.53543, -1.53984l 4.53543, -1.57296l
 4.53543, -1.60539l 4.53543, -1.63719l 4.53543, -1.66838l 4.53543, -1.699l 4.53543, -1.72907l 4.53543, -1.75863l 4.53543, -1.7877l 4.53543, -1.81631l 4.53543, -1.84447l 4.53543, -1.87221l 4.53543, -1.89954l 4.53543, -1.92649l 4.53543, -1.95306l
 4.53543, -1.97928l 4.53543, -2.00516l 4.53543, -2.0307l 4.53543, -2.05593l 4.53543, -2.08085l 4.53543, -2.10548l 4.53543, -2.12982l 4.53543, -2.15389l 4.53543, -2.17769l 4.53543, -2.20123l 4.53543, -2.22453l 4.53543, -2.24758" fill="none"
 stroke="#6666ff" stroke-width="2"/>
<path d="M281.697,184.436l 4.53543, -2.2704l 4.53543, -2.29299l 4.53543, -2.31536l 4.53543, -2.33752l 4.53543, -2.35947l 4.53543, -2.38122l 4.53543, -2.40277l 4.53543, -2.42412l 4.53543, -2.4453l 4.53543, -2.46629l 4.53543, -2.4871l 4.53543,
 -2.50774l 4.53543, -2.52821l 4.53543, -2.54852l 4.53543, -2.56867l 4.53543, -2.58866l 4.53543, -2.60849l 4.53543, -2.62818l 4.53543, -2.64772l 4.53543, -2.66712l 4.53543, -2.68638l 4.53543, -2.7055l 4.53543, -2.72448l 4.53543, -2.74334l 4.53543,
 -2.76207l 4.53543, -2.78067l 4.53543, -2.79914l 4.53543, -2.8175l 4.53543, -2.83573l 4.53543, -2.85385l 4.53543, -2.87186l 4.53543, -2.88975l 4.53543, -2.90754l 4.53543, -2.92521l 4.53543, -2.94278l 4.53543, -2.96025l 4.53543, -2.97761l 4.53543,
 -2.99487l 4.53543, -3.01203l 4.53543, -3.0291l 4.53543, -3.04607l 4.53543, -3.06294l 4.53543, -3.07973l 4.53543, -3.09642l 4.53543, -3.11302l 4.53543, -3.12954l 4.53543, -3.14597l 4.53543, -3.16231l 4.53543, -3.17857" fill="none" stroke="#6666ff"
 stroke-width="2"/>
<path d="M503.933,49.7256l 4.53543, -3.19474" fill="none" stroke="#6666ff" stroke-width="2"/>
<path d="M59.4606,380.976l 4.53543, -3.40157l 4.53543, -3.40157l 4.53543, -3.40157l 4.53543, -3.40157l 4.53543, -3.40157l 4.53543, -3.40157l 4.53543, -3.40157l 4.53543, -3.40157l 4.53543, -3.40157l 4.53543, -3.40157l 4.53543, -3.40157l 4.53543,
 -3.40157l 4.53543, -3.40157l 4.53543, -3.40157l 4.53543, -3.40157l 4.53543, -3.40157l 4.53543, -3.40157l 4.53543, -3.40157l 4.53543, -3.40157l 4.53543, -3.40157l 4.53543, -3.40157l 4.53543, -3.40157l 4.53543, -3.40157l 4.53543, -3.40157l 4.53543,
 -3.40157l 4.53543, -3.40157l 4.53543, -3.40157l 4.53543, -3.40157l 4.53543, -3.40157l 4.53543, -3.40157l 4.53543, -3.40157l 4.53543, -3.40157l 4.53543, -3.40157l 4.53543, -3.40157l 4.53543, -3.40157l 4.53543, -3.40157l 4.53543, -3.40157l 4.53543,
 -3.40157l 4.53543, -3.40157l 4.53543, -3.40157l 4.53543, -3.40157l 4.53543, -3.40157l 4.53543, -3.40157l 4.53543, -3.40157l 4.53543, -3.40157l 4.53543, -3.40157l 4.53543, -3.40157l 4.53543, -3.40157l 4.53543, -3.40157" fill="none" stroke="#66cc66"
 stroke-width="2"/>
<path d="M281.697,214.299l 4.53543, -3.40157l 4.53543, -3.40157l 4.53543, -3.40157l 4.53543, -3.40157l 4.53543, -3.40157l 4.53543, -3.40157l 4.53543, -3.40157l 4.53543, -3.40157l 4.53543, -3.40157l 4.53543, -3.40157l 4.53543, -3.40157l 4.53543,
 -3.40157l 4.53543, -3.40157l 4.53543, -3.40157l 4.53543, -3.40157l 4.53543, -3.40157l 4.53543, -3.40157l 4.53543, -3.40157l 4.53543, -3.40157l 4.53543, -3.40157l 4.53543, -3.40157l 4.53543, -3.40157l 4.53543, -3.40157l 4.53543, -3.40157l 4.53543,
 -3.40157l 4.53543, -3.40157l 4.53543, -3.40157l 4.53543, -3.40157l 4.53543, -3.40157l 4.53543, -3.40157l 4.53543, -3.40157l 4.53543, -3.40157l 4.53543, -3.40157l 4.53543, -3.40157l 4.53543, -3.40157l 4.53543, -3.40157l 4.53543, -3.40157l 4.53543,
 -3.40157l 4.53543, -3.40157l 4.53543, -3.40157l 4.53543, -3.40157l 4.53543, -3.40157l 4.53543, -3.40157l 4.53543, -3.40157l 4.53543, -3.40157l 4.53543, -3.40157l 4.53543, -3.40157l 4.53543, -3.40157l 4.53543, -3.40157" fill="none" stroke="#66cc66"
 stroke-width="2"/>
<path d="M503.933,47.6221l 4.53543, -3.40157" fill="none" stroke="#66cc66" stroke-width="2"/>
<g stroke="black" stroke-width="1" fill="black">
<circle cx="469.505" cy="73.4431" r="1.70079"/>
</g>
<rect x="76.563" y="48.189" width="50.5512" height="35.4331" fill="white"/>
<path d="M76.563,83.622h 50.5512" fill="none" stroke="black"/>
<path d="M127.114,83.622v -35.4331" fill="none" stroke="black"/>
<path d="M127.114,48.189h -50.5512" fill="none" stroke="black"/>
<path d="M76.563,48.189v 35.4331" fill="none" stroke="black"/>
<text x="88.8465" y="60.9449" fill="black" font-size="13.9364" font-family="Helvetica">
q
</text>
<path d="M78.4587,57.0472h 8.84646" fill="none" stroke="#66cc66" stroke-width="2"/>
<text x="88.8465" y="78.4252" fill="black" font-size="13.9364" font-family="Helvetica">
F(q)
</text>
<path d="M78.4587,74.7638h 8.84646" fill="none" stroke="#6666ff" stroke-width="2"/>
<text x="266.012" y="33.0709" fill="black" font-size="15.9735" font-family="Helvetica">
F(q)=q
</text></svg>
