<?xml version="1.0" encoding="utf-8" standalone="no"?>
<!DOCTYPE svg PUBLIC "-//W3C//DTD SVG 1.1//EN"
  "http://www.w3.org/Graphics/SVG/1.1/DTD/svg11.dtd">
<!-- Created with matplotlib (http://matplotlib.org/) -->
<svg height="288pt" version="1.1" viewBox="0 0 432 288" width="432pt" xmlns="http://www.w3.org/2000/svg" xmlns:xlink="http://www.w3.org/1999/xlink">
 <defs>
  <style type="text/css">
*{stroke-linecap:butt;stroke-linejoin:round;}
  </style>
 </defs>
 <g id="figure_1">
  <g id="patch_1">
   <path d="
M0 288
L432 288
L432 0
L0 0
z
" style="fill:#ffffff;"/>
  </g>
  <g id="axes_1">
   <g id="patch_2">
    <path d="
M54 252
L388.8 252
L388.8 28.8
L54 28.8
z
" style="fill:#ffffff;"/>
   </g>
   <g id="line2d_1">
    <path clip-path="url(#p124b8dd147)" d="
M54 36.6768
L79.1962 36.6768
L79.1962 44.0532
L93.935 44.0532
L93.935 51.9691
L104.392 51.9691
L104.392 56.0444
L112.504 56.0444
L112.504 57.7755
L119.131 57.7755
L119.131 60.494
L124.735 60.494
L124.735 61.4352
L129.589 61.4352
L129.589 64.3735
L133.87 64.3735
L133.87 67.5015
L137.7 67.5015
L137.7 68.5907
L141.165 68.5907
L141.165 72.0133
L144.327 72.0133
L144.327 73.2101
L147.237 73.2101
L147.237 74.4372
L149.931 74.4372
L149.931 75.6962
L152.439 75.6962
L152.439 76.9887
L154.785 76.9887
L154.785 79.682
L156.989 79.682
L156.989 81.087
L161.032 81.087
L161.032 82.5338
L162.896 82.5338
L162.896 85.564
L164.67 85.564
L164.67 87.1533
L167.977 87.1533
L167.977 90.4972
L172.433 90.4972
L172.433 94.089
L173.805 94.089
L173.805 95.9899
L176.403 95.9899
L176.403 97.9684
L178.827 97.9684
L178.827 100.031
L179.981 100.031
L179.981 102.186
L183.238 102.186
L183.238 104.44
L187.172 104.44
L187.172 106.805
L189.866 106.805
L189.866 109.291
L191.557 109.291
L191.557 111.912
L193.955 111.912
L193.955 114.682
L196.204 114.682
L196.204 117.62
L200.323 117.62
L200.323 120.748
L202.831 120.748
L202.831 124.092
L207.381 124.092
L207.381 127.684
L210.455 127.684
L210.455 131.563
L216.753 131.563
L216.753 135.781
L221.762 135.781
L221.762 140.4
L231.216 140.4
L231.216 145.507
L238.711 145.507
L238.711 151.215
L246.047 151.215
L246.047 157.687
L255.141 157.687
L255.141 165.158
L263.794 165.158
L263.794 173.995
L271.335 173.995
L271.335 184.81
L271.427 184.81
L278.871 184.81
L278.871 198.753
L278.946 198.753
L288.073 198.753
L288.073 218.405
L288.131 218.405
L301.431 218.405
L301.431 252
L301.512 252
L326.567 252
L326.567 252" style="fill:none;stroke:#3385ff;stroke-linecap:square;"/>
   </g>
   <g id="patch_3">
    <path d="
M54 28.8
L388.8 28.8" style="fill:none;stroke:#000000;stroke-linecap:square;stroke-linejoin:miter;"/>
   </g>
   <g id="patch_4">
    <path d="
M388.8 252
L388.8 28.8" style="fill:none;stroke:#000000;stroke-linecap:square;stroke-linejoin:miter;"/>
   </g>
   <g id="patch_5">
    <path d="
M54 252
L388.8 252" style="fill:none;stroke:#000000;stroke-linecap:square;stroke-linejoin:miter;"/>
   </g>
   <g id="patch_6">
    <path d="
M54 252
L54 28.8" style="fill:none;stroke:#000000;stroke-linecap:square;stroke-linejoin:miter;"/>
   </g>
   <g id="matplotlib.axis_1">
    <g id="xtick_1">
     <g id="line2d_2">
      <defs>
       <path d="
M0 0
L0 -4" id="m93b0483c22" style="stroke:#000000;stroke-width:0.5;"/>
      </defs>
      <g>
       <use style="stroke:#000000;stroke-width:0.5;" x="54.0" xlink:href="#m93b0483c22" y="252.0"/>
      </g>
     </g>
     <g id="line2d_3">
      <defs>
       <path d="
M0 0
L0 4" id="m741efc42ff" style="stroke:#000000;stroke-width:0.5;"/>
      </defs>
      <g>
       <use style="stroke:#000000;stroke-width:0.5;" x="54.0" xlink:href="#m741efc42ff" y="28.8"/>
      </g>
     </g>
     <g id="text_1">
      <!-- $\mathdefault{10^{0}}$ -->
      <defs>
       <path d="
M12.4062 8.29688
L28.5156 8.29688
L28.5156 63.9219
L10.9844 60.4062
L10.9844 69.3906
L28.4219 72.9062
L38.2812 72.9062
L38.2812 8.29688
L54.3906 8.29688
L54.3906 0
L12.4062 0
z
" id="DejaVuSans-31"/>
       <path d="
M31.7812 66.4062
Q24.1719 66.4062 20.3281 58.9062
Q16.5 51.4219 16.5 36.375
Q16.5 21.3906 20.3281 13.8906
Q24.1719 6.39062 31.7812 6.39062
Q39.4531 6.39062 43.2812 13.8906
Q47.125 21.3906 47.125 36.375
Q47.125 51.4219 43.2812 58.9062
Q39.4531 66.4062 31.7812 66.4062
M31.7812 74.2188
Q44.0469 74.2188 50.5156 64.5156
Q56.9844 54.8281 56.9844 36.375
Q56.9844 17.9688 50.5156 8.26562
Q44.0469 -1.42188 31.7812 -1.42188
Q19.5312 -1.42188 13.0625 8.26562
Q6.59375 17.9688 6.59375 36.375
Q6.59375 54.8281 13.0625 64.5156
Q19.5312 74.2188 31.7812 74.2188" id="DejaVuSans-30"/>
      </defs>
      <g transform="translate(44.85 265.1203125)scale(0.1 -0.1)">
       <use transform="translate(0.0 0.234375)" xlink:href="#DejaVuSans-31"/>
       <use transform="translate(63.623046875 0.234375)" xlink:href="#DejaVuSans-30"/>
       <use transform="translate(127.24609375 58.046875)scale(0.7)" xlink:href="#DejaVuSans-30"/>
      </g>
     </g>
    </g>
    <g id="xtick_2">
     <g id="line2d_4">
      <g>
       <use style="stroke:#000000;stroke-width:0.5;" x="137.7" xlink:href="#m93b0483c22" y="252.0"/>
      </g>
     </g>
     <g id="line2d_5">
      <g>
       <use style="stroke:#000000;stroke-width:0.5;" x="137.7" xlink:href="#m741efc42ff" y="28.8"/>
      </g>
     </g>
     <g id="text_2">
      <!-- $\mathdefault{10^{1}}$ -->
      <g transform="translate(128.55 265.0203125)scale(0.1 -0.1)">
       <use transform="translate(0.0 0.153125)" xlink:href="#DejaVuSans-31"/>
       <use transform="translate(63.623046875 0.153125)" xlink:href="#DejaVuSans-30"/>
       <use transform="translate(127.24609375 57.965625)scale(0.7)" xlink:href="#DejaVuSans-31"/>
      </g>
     </g>
    </g>
    <g id="xtick_3">
     <g id="line2d_6">
      <g>
       <use style="stroke:#000000;stroke-width:0.5;" x="221.4" xlink:href="#m93b0483c22" y="252.0"/>
      </g>
     </g>
     <g id="line2d_7">
      <g>
       <use style="stroke:#000000;stroke-width:0.5;" x="221.4" xlink:href="#m741efc42ff" y="28.8"/>
      </g>
     </g>
     <g id="text_3">
      <!-- $\mathdefault{10^{2}}$ -->
      <defs>
       <path d="
M19.1875 8.29688
L53.6094 8.29688
L53.6094 0
L7.32812 0
L7.32812 8.29688
Q12.9375 14.1094 22.625 23.8906
Q32.3281 33.6875 34.8125 36.5312
Q39.5469 41.8438 41.4219 45.5312
Q43.3125 49.2188 43.3125 52.7812
Q43.3125 58.5938 39.2344 62.25
Q35.1562 65.9219 28.6094 65.9219
Q23.9688 65.9219 18.8125 64.3125
Q13.6719 62.7031 7.8125 59.4219
L7.8125 69.3906
Q13.7656 71.7812 18.9375 73
Q24.125 74.2188 28.4219 74.2188
Q39.75 74.2188 46.4844 68.5469
Q53.2188 62.8906 53.2188 53.4219
Q53.2188 48.9219 51.5312 44.8906
Q49.8594 40.875 45.4062 35.4062
Q44.1875 33.9844 37.6406 27.2188
Q31.1094 20.4531 19.1875 8.29688" id="DejaVuSans-32"/>
      </defs>
      <g transform="translate(212.25 265.1203125)scale(0.1 -0.1)">
       <use transform="translate(0.0 0.234375)" xlink:href="#DejaVuSans-31"/>
       <use transform="translate(63.623046875 0.234375)" xlink:href="#DejaVuSans-30"/>
       <use transform="translate(127.24609375 58.046875)scale(0.7)" xlink:href="#DejaVuSans-32"/>
      </g>
     </g>
    </g>
    <g id="xtick_4">
     <g id="line2d_8">
      <g>
       <use style="stroke:#000000;stroke-width:0.5;" x="305.1" xlink:href="#m93b0483c22" y="252.0"/>
      </g>
     </g>
     <g id="line2d_9">
      <g>
       <use style="stroke:#000000;stroke-width:0.5;" x="305.1" xlink:href="#m741efc42ff" y="28.8"/>
      </g>
     </g>
     <g id="text_4">
      <!-- $\mathdefault{10^{3}}$ -->
      <defs>
       <path d="
M40.5781 39.3125
Q47.6562 37.7969 51.625 33
Q55.6094 28.2188 55.6094 21.1875
Q55.6094 10.4062 48.1875 4.48438
Q40.7656 -1.42188 27.0938 -1.42188
Q22.5156 -1.42188 17.6562 -0.515625
Q12.7969 0.390625 7.625 2.20312
L7.625 11.7188
Q11.7188 9.32812 16.5938 8.10938
Q21.4844 6.89062 26.8125 6.89062
Q36.0781 6.89062 40.9375 10.5469
Q45.7969 14.2031 45.7969 21.1875
Q45.7969 27.6406 41.2812 31.2656
Q36.7656 34.9062 28.7188 34.9062
L20.2188 34.9062
L20.2188 43.0156
L29.1094 43.0156
Q36.375 43.0156 40.2344 45.9219
Q44.0938 48.8281 44.0938 54.2969
Q44.0938 59.9062 40.1094 62.9062
Q36.1406 65.9219 28.7188 65.9219
Q24.6562 65.9219 20.0156 65.0312
Q15.375 64.1562 9.8125 62.3125
L9.8125 71.0938
Q15.4375 72.6562 20.3438 73.4375
Q25.25 74.2188 29.5938 74.2188
Q40.8281 74.2188 47.3594 69.1094
Q53.9062 64.0156 53.9062 55.3281
Q53.9062 49.2656 50.4375 45.0938
Q46.9688 40.9219 40.5781 39.3125" id="DejaVuSans-33"/>
      </defs>
      <g transform="translate(295.95 265.1203125)scale(0.1 -0.1)">
       <use transform="translate(0.0 0.234375)" xlink:href="#DejaVuSans-31"/>
       <use transform="translate(63.623046875 0.234375)" xlink:href="#DejaVuSans-30"/>
       <use transform="translate(127.24609375 58.046875)scale(0.7)" xlink:href="#DejaVuSans-33"/>
      </g>
     </g>
    </g>
    <g id="xtick_5">
     <g id="line2d_10">
      <g>
       <use style="stroke:#000000;stroke-width:0.5;" x="388.8" xlink:href="#m93b0483c22" y="252.0"/>
      </g>
     </g>
     <g id="line2d_11">
      <g>
       <use style="stroke:#000000;stroke-width:0.5;" x="388.8" xlink:href="#m741efc42ff" y="28.8"/>
      </g>
     </g>
     <g id="text_5">
      <!-- $\mathdefault{10^{4}}$ -->
      <defs>
       <path d="
M37.7969 64.3125
L12.8906 25.3906
L37.7969 25.3906
z

M35.2031 72.9062
L47.6094 72.9062
L47.6094 25.3906
L58.0156 25.3906
L58.0156 17.1875
L47.6094 17.1875
L47.6094 0
L37.7969 0
L37.7969 17.1875
L4.89062 17.1875
L4.89062 26.7031
z
" id="DejaVuSans-34"/>
      </defs>
      <g transform="translate(379.65 265.0203125)scale(0.1 -0.1)">
       <use transform="translate(0.0 0.153125)" xlink:href="#DejaVuSans-31"/>
       <use transform="translate(63.623046875 0.153125)" xlink:href="#DejaVuSans-30"/>
       <use transform="translate(127.24609375 57.965625)scale(0.7)" xlink:href="#DejaVuSans-34"/>
      </g>
     </g>
    </g>
    <g id="xtick_6">
     <g id="line2d_12">
      <defs>
       <path d="
M0 0
L0 -2" id="m177f7580d0" style="stroke:#000000;stroke-width:0.5;"/>
      </defs>
      <g>
       <use style="stroke:#000000;stroke-width:0.5;" x="79.1962106371" xlink:href="#m177f7580d0" y="252.0"/>
      </g>
     </g>
     <g id="line2d_13">
      <defs>
       <path d="
M0 0
L0 2" id="m5284c7e2a0" style="stroke:#000000;stroke-width:0.5;"/>
      </defs>
      <g>
       <use style="stroke:#000000;stroke-width:0.5;" x="79.1962106371" xlink:href="#m5284c7e2a0" y="28.8"/>
      </g>
     </g>
    </g>
    <g id="xtick_7">
     <g id="line2d_14">
      <g>
       <use style="stroke:#000000;stroke-width:0.5;" x="93.93504902" xlink:href="#m177f7580d0" y="252.0"/>
      </g>
     </g>
     <g id="line2d_15">
      <g>
       <use style="stroke:#000000;stroke-width:0.5;" x="93.93504902" xlink:href="#m5284c7e2a0" y="28.8"/>
      </g>
     </g>
    </g>
    <g id="xtick_8">
     <g id="line2d_16">
      <g>
       <use style="stroke:#000000;stroke-width:0.5;" x="104.392421274" xlink:href="#m177f7580d0" y="252.0"/>
      </g>
     </g>
     <g id="line2d_17">
      <g>
       <use style="stroke:#000000;stroke-width:0.5;" x="104.392421274" xlink:href="#m5284c7e2a0" y="28.8"/>
      </g>
     </g>
    </g>
    <g id="xtick_9">
     <g id="line2d_18">
      <g>
       <use style="stroke:#000000;stroke-width:0.5;" x="112.503789363" xlink:href="#m177f7580d0" y="252.0"/>
      </g>
     </g>
     <g id="line2d_19">
      <g>
       <use style="stroke:#000000;stroke-width:0.5;" x="112.503789363" xlink:href="#m5284c7e2a0" y="28.8"/>
      </g>
     </g>
    </g>
    <g id="xtick_10">
     <g id="line2d_20">
      <g>
       <use style="stroke:#000000;stroke-width:0.5;" x="119.131259657" xlink:href="#m177f7580d0" y="252.0"/>
      </g>
     </g>
     <g id="line2d_21">
      <g>
       <use style="stroke:#000000;stroke-width:0.5;" x="119.131259657" xlink:href="#m5284c7e2a0" y="28.8"/>
      </g>
     </g>
    </g>
    <g id="xtick_11">
     <g id="line2d_22">
      <g>
       <use style="stroke:#000000;stroke-width:0.5;" x="124.734705949" xlink:href="#m177f7580d0" y="252.0"/>
      </g>
     </g>
     <g id="line2d_23">
      <g>
       <use style="stroke:#000000;stroke-width:0.5;" x="124.734705949" xlink:href="#m5284c7e2a0" y="28.8"/>
      </g>
     </g>
    </g>
    <g id="xtick_12">
     <g id="line2d_24">
      <g>
       <use style="stroke:#000000;stroke-width:0.5;" x="129.588631911" xlink:href="#m177f7580d0" y="252.0"/>
      </g>
     </g>
     <g id="line2d_25">
      <g>
       <use style="stroke:#000000;stroke-width:0.5;" x="129.588631911" xlink:href="#m5284c7e2a0" y="28.8"/>
      </g>
     </g>
    </g>
    <g id="xtick_13">
     <g id="line2d_26">
      <g>
       <use style="stroke:#000000;stroke-width:0.5;" x="133.87009804" xlink:href="#m177f7580d0" y="252.0"/>
      </g>
     </g>
     <g id="line2d_27">
      <g>
       <use style="stroke:#000000;stroke-width:0.5;" x="133.87009804" xlink:href="#m5284c7e2a0" y="28.8"/>
      </g>
     </g>
    </g>
    <g id="xtick_14">
     <g id="line2d_28">
      <g>
       <use style="stroke:#000000;stroke-width:0.5;" x="162.896210637" xlink:href="#m177f7580d0" y="252.0"/>
      </g>
     </g>
     <g id="line2d_29">
      <g>
       <use style="stroke:#000000;stroke-width:0.5;" x="162.896210637" xlink:href="#m5284c7e2a0" y="28.8"/>
      </g>
     </g>
    </g>
    <g id="xtick_15">
     <g id="line2d_30">
      <g>
       <use style="stroke:#000000;stroke-width:0.5;" x="177.63504902" xlink:href="#m177f7580d0" y="252.0"/>
      </g>
     </g>
     <g id="line2d_31">
      <g>
       <use style="stroke:#000000;stroke-width:0.5;" x="177.63504902" xlink:href="#m5284c7e2a0" y="28.8"/>
      </g>
     </g>
    </g>
    <g id="xtick_16">
     <g id="line2d_32">
      <g>
       <use style="stroke:#000000;stroke-width:0.5;" x="188.092421274" xlink:href="#m177f7580d0" y="252.0"/>
      </g>
     </g>
     <g id="line2d_33">
      <g>
       <use style="stroke:#000000;stroke-width:0.5;" x="188.092421274" xlink:href="#m5284c7e2a0" y="28.8"/>
      </g>
     </g>
    </g>
    <g id="xtick_17">
     <g id="line2d_34">
      <g>
       <use style="stroke:#000000;stroke-width:0.5;" x="196.203789363" xlink:href="#m177f7580d0" y="252.0"/>
      </g>
     </g>
     <g id="line2d_35">
      <g>
       <use style="stroke:#000000;stroke-width:0.5;" x="196.203789363" xlink:href="#m5284c7e2a0" y="28.8"/>
      </g>
     </g>
    </g>
    <g id="xtick_18">
     <g id="line2d_36">
      <g>
       <use style="stroke:#000000;stroke-width:0.5;" x="202.831259657" xlink:href="#m177f7580d0" y="252.0"/>
      </g>
     </g>
     <g id="line2d_37">
      <g>
       <use style="stroke:#000000;stroke-width:0.5;" x="202.831259657" xlink:href="#m5284c7e2a0" y="28.8"/>
      </g>
     </g>
    </g>
    <g id="xtick_19">
     <g id="line2d_38">
      <g>
       <use style="stroke:#000000;stroke-width:0.5;" x="208.434705949" xlink:href="#m177f7580d0" y="252.0"/>
      </g>
     </g>
     <g id="line2d_39">
      <g>
       <use style="stroke:#000000;stroke-width:0.5;" x="208.434705949" xlink:href="#m5284c7e2a0" y="28.8"/>
      </g>
     </g>
    </g>
    <g id="xtick_20">
     <g id="line2d_40">
      <g>
       <use style="stroke:#000000;stroke-width:0.5;" x="213.288631911" xlink:href="#m177f7580d0" y="252.0"/>
      </g>
     </g>
     <g id="line2d_41">
      <g>
       <use style="stroke:#000000;stroke-width:0.5;" x="213.288631911" xlink:href="#m5284c7e2a0" y="28.8"/>
      </g>
     </g>
    </g>
    <g id="xtick_21">
     <g id="line2d_42">
      <g>
       <use style="stroke:#000000;stroke-width:0.5;" x="217.57009804" xlink:href="#m177f7580d0" y="252.0"/>
      </g>
     </g>
     <g id="line2d_43">
      <g>
       <use style="stroke:#000000;stroke-width:0.5;" x="217.57009804" xlink:href="#m5284c7e2a0" y="28.8"/>
      </g>
     </g>
    </g>
    <g id="xtick_22">
     <g id="line2d_44">
      <g>
       <use style="stroke:#000000;stroke-width:0.5;" x="246.596210637" xlink:href="#m177f7580d0" y="252.0"/>
      </g>
     </g>
     <g id="line2d_45">
      <g>
       <use style="stroke:#000000;stroke-width:0.5;" x="246.596210637" xlink:href="#m5284c7e2a0" y="28.8"/>
      </g>
     </g>
    </g>
    <g id="xtick_23">
     <g id="line2d_46">
      <g>
       <use style="stroke:#000000;stroke-width:0.5;" x="261.33504902" xlink:href="#m177f7580d0" y="252.0"/>
      </g>
     </g>
     <g id="line2d_47">
      <g>
       <use style="stroke:#000000;stroke-width:0.5;" x="261.33504902" xlink:href="#m5284c7e2a0" y="28.8"/>
      </g>
     </g>
    </g>
    <g id="xtick_24">
     <g id="line2d_48">
      <g>
       <use style="stroke:#000000;stroke-width:0.5;" x="271.792421274" xlink:href="#m177f7580d0" y="252.0"/>
      </g>
     </g>
     <g id="line2d_49">
      <g>
       <use style="stroke:#000000;stroke-width:0.5;" x="271.792421274" xlink:href="#m5284c7e2a0" y="28.8"/>
      </g>
     </g>
    </g>
    <g id="xtick_25">
     <g id="line2d_50">
      <g>
       <use style="stroke:#000000;stroke-width:0.5;" x="279.903789363" xlink:href="#m177f7580d0" y="252.0"/>
      </g>
     </g>
     <g id="line2d_51">
      <g>
       <use style="stroke:#000000;stroke-width:0.5;" x="279.903789363" xlink:href="#m5284c7e2a0" y="28.8"/>
      </g>
     </g>
    </g>
    <g id="xtick_26">
     <g id="line2d_52">
      <g>
       <use style="stroke:#000000;stroke-width:0.5;" x="286.531259657" xlink:href="#m177f7580d0" y="252.0"/>
      </g>
     </g>
     <g id="line2d_53">
      <g>
       <use style="stroke:#000000;stroke-width:0.5;" x="286.531259657" xlink:href="#m5284c7e2a0" y="28.8"/>
      </g>
     </g>
    </g>
    <g id="xtick_27">
     <g id="line2d_54">
      <g>
       <use style="stroke:#000000;stroke-width:0.5;" x="292.134705949" xlink:href="#m177f7580d0" y="252.0"/>
      </g>
     </g>
     <g id="line2d_55">
      <g>
       <use style="stroke:#000000;stroke-width:0.5;" x="292.134705949" xlink:href="#m5284c7e2a0" y="28.8"/>
      </g>
     </g>
    </g>
    <g id="xtick_28">
     <g id="line2d_56">
      <g>
       <use style="stroke:#000000;stroke-width:0.5;" x="296.988631911" xlink:href="#m177f7580d0" y="252.0"/>
      </g>
     </g>
     <g id="line2d_57">
      <g>
       <use style="stroke:#000000;stroke-width:0.5;" x="296.988631911" xlink:href="#m5284c7e2a0" y="28.8"/>
      </g>
     </g>
    </g>
    <g id="xtick_29">
     <g id="line2d_58">
      <g>
       <use style="stroke:#000000;stroke-width:0.5;" x="301.27009804" xlink:href="#m177f7580d0" y="252.0"/>
      </g>
     </g>
     <g id="line2d_59">
      <g>
       <use style="stroke:#000000;stroke-width:0.5;" x="301.27009804" xlink:href="#m5284c7e2a0" y="28.8"/>
      </g>
     </g>
    </g>
    <g id="xtick_30">
     <g id="line2d_60">
      <g>
       <use style="stroke:#000000;stroke-width:0.5;" x="330.296210637" xlink:href="#m177f7580d0" y="252.0"/>
      </g>
     </g>
     <g id="line2d_61">
      <g>
       <use style="stroke:#000000;stroke-width:0.5;" x="330.296210637" xlink:href="#m5284c7e2a0" y="28.8"/>
      </g>
     </g>
    </g>
    <g id="xtick_31">
     <g id="line2d_62">
      <g>
       <use style="stroke:#000000;stroke-width:0.5;" x="345.03504902" xlink:href="#m177f7580d0" y="252.0"/>
      </g>
     </g>
     <g id="line2d_63">
      <g>
       <use style="stroke:#000000;stroke-width:0.5;" x="345.03504902" xlink:href="#m5284c7e2a0" y="28.8"/>
      </g>
     </g>
    </g>
    <g id="xtick_32">
     <g id="line2d_64">
      <g>
       <use style="stroke:#000000;stroke-width:0.5;" x="355.492421274" xlink:href="#m177f7580d0" y="252.0"/>
      </g>
     </g>
     <g id="line2d_65">
      <g>
       <use style="stroke:#000000;stroke-width:0.5;" x="355.492421274" xlink:href="#m5284c7e2a0" y="28.8"/>
      </g>
     </g>
    </g>
    <g id="xtick_33">
     <g id="line2d_66">
      <g>
       <use style="stroke:#000000;stroke-width:0.5;" x="363.603789363" xlink:href="#m177f7580d0" y="252.0"/>
      </g>
     </g>
     <g id="line2d_67">
      <g>
       <use style="stroke:#000000;stroke-width:0.5;" x="363.603789363" xlink:href="#m5284c7e2a0" y="28.8"/>
      </g>
     </g>
    </g>
    <g id="xtick_34">
     <g id="line2d_68">
      <g>
       <use style="stroke:#000000;stroke-width:0.5;" x="370.231259657" xlink:href="#m177f7580d0" y="252.0"/>
      </g>
     </g>
     <g id="line2d_69">
      <g>
       <use style="stroke:#000000;stroke-width:0.5;" x="370.231259657" xlink:href="#m5284c7e2a0" y="28.8"/>
      </g>
     </g>
    </g>
    <g id="xtick_35">
     <g id="line2d_70">
      <g>
       <use style="stroke:#000000;stroke-width:0.5;" x="375.834705949" xlink:href="#m177f7580d0" y="252.0"/>
      </g>
     </g>
     <g id="line2d_71">
      <g>
       <use style="stroke:#000000;stroke-width:0.5;" x="375.834705949" xlink:href="#m5284c7e2a0" y="28.8"/>
      </g>
     </g>
    </g>
    <g id="xtick_36">
     <g id="line2d_72">
      <g>
       <use style="stroke:#000000;stroke-width:0.5;" x="380.688631911" xlink:href="#m177f7580d0" y="252.0"/>
      </g>
     </g>
     <g id="line2d_73">
      <g>
       <use style="stroke:#000000;stroke-width:0.5;" x="380.688631911" xlink:href="#m5284c7e2a0" y="28.8"/>
      </g>
     </g>
    </g>
    <g id="xtick_37">
     <g id="line2d_74">
      <g>
       <use style="stroke:#000000;stroke-width:0.5;" x="384.97009804" xlink:href="#m177f7580d0" y="252.0"/>
      </g>
     </g>
     <g id="line2d_75">
      <g>
       <use style="stroke:#000000;stroke-width:0.5;" x="384.97009804" xlink:href="#m5284c7e2a0" y="28.8"/>
      </g>
     </g>
    </g>
   </g>
   <g id="matplotlib.axis_2">
    <g id="ytick_1">
     <g id="line2d_76">
      <defs>
       <path d="
M0 0
L4 0" id="m728421d6d4" style="stroke:#000000;stroke-width:0.5;"/>
      </defs>
      <g>
       <use style="stroke:#000000;stroke-width:0.5;" x="54.0" xlink:href="#m728421d6d4" y="252.0"/>
      </g>
     </g>
     <g id="line2d_77">
      <defs>
       <path d="
M0 0
L-4 0" id="mcb0005524f" style="stroke:#000000;stroke-width:0.5;"/>
      </defs>
      <g>
       <use style="stroke:#000000;stroke-width:0.5;" x="388.8" xlink:href="#mcb0005524f" y="252.0"/>
      </g>
     </g>
     <g id="text_6">
      <!-- $\mathdefault{10^{0}}$ -->
      <g transform="translate(31.7 255.5203125)scale(0.1 -0.1)">
       <use transform="translate(0.0 0.234375)" xlink:href="#DejaVuSans-31"/>
       <use transform="translate(63.623046875 0.234375)" xlink:href="#DejaVuSans-30"/>
       <use transform="translate(127.24609375 58.046875)scale(0.7)" xlink:href="#DejaVuSans-30"/>
      </g>
     </g>
    </g>
    <g id="ytick_2">
     <g id="line2d_78">
      <g>
       <use style="stroke:#000000;stroke-width:0.5;" x="54.0" xlink:href="#m728421d6d4" y="140.4"/>
      </g>
     </g>
     <g id="line2d_79">
      <g>
       <use style="stroke:#000000;stroke-width:0.5;" x="388.8" xlink:href="#mcb0005524f" y="140.4"/>
      </g>
     </g>
     <g id="text_7">
      <!-- $\mathdefault{10^{1}}$ -->
      <g transform="translate(31.7 143.8703125)scale(0.1 -0.1)">
       <use transform="translate(0.0 0.153125)" xlink:href="#DejaVuSans-31"/>
       <use transform="translate(63.623046875 0.153125)" xlink:href="#DejaVuSans-30"/>
       <use transform="translate(127.24609375 57.965625)scale(0.7)" xlink:href="#DejaVuSans-31"/>
      </g>
     </g>
    </g>
    <g id="ytick_3">
     <g id="line2d_80">
      <g>
       <use style="stroke:#000000;stroke-width:0.5;" x="54.0" xlink:href="#m728421d6d4" y="28.8"/>
      </g>
     </g>
     <g id="line2d_81">
      <g>
       <use style="stroke:#000000;stroke-width:0.5;" x="388.8" xlink:href="#mcb0005524f" y="28.8"/>
      </g>
     </g>
     <g id="text_8">
      <!-- $\mathdefault{10^{2}}$ -->
      <g transform="translate(31.7 32.3203125)scale(0.1 -0.1)">
       <use transform="translate(0.0 0.234375)" xlink:href="#DejaVuSans-31"/>
       <use transform="translate(63.623046875 0.234375)" xlink:href="#DejaVuSans-30"/>
       <use transform="translate(127.24609375 58.046875)scale(0.7)" xlink:href="#DejaVuSans-32"/>
      </g>
     </g>
    </g>
    <g id="ytick_4">
     <g id="line2d_82">
      <defs>
       <path d="
M0 0
L2 0" id="mf0c55a9a47" style="stroke:#000000;stroke-width:0.5;"/>
      </defs>
      <g>
       <use style="stroke:#000000;stroke-width:0.5;" x="54.0" xlink:href="#mf0c55a9a47" y="218.405052484"/>
      </g>
     </g>
     <g id="line2d_83">
      <defs>
       <path d="
M0 0
L-2 0" id="ma4f294b3af" style="stroke:#000000;stroke-width:0.5;"/>
      </defs>
      <g>
       <use style="stroke:#000000;stroke-width:0.5;" x="388.8" xlink:href="#ma4f294b3af" y="218.405052484"/>
      </g>
     </g>
    </g>
    <g id="ytick_5">
     <g id="line2d_84">
      <g>
       <use style="stroke:#000000;stroke-width:0.5;" x="54.0" xlink:href="#mf0c55a9a47" y="198.753267973"/>
      </g>
     </g>
     <g id="line2d_85">
      <g>
       <use style="stroke:#000000;stroke-width:0.5;" x="388.8" xlink:href="#ma4f294b3af" y="198.753267973"/>
      </g>
     </g>
    </g>
    <g id="ytick_6">
     <g id="line2d_86">
      <g>
       <use style="stroke:#000000;stroke-width:0.5;" x="54.0" xlink:href="#mf0c55a9a47" y="184.810104968"/>
      </g>
     </g>
     <g id="line2d_87">
      <g>
       <use style="stroke:#000000;stroke-width:0.5;" x="388.8" xlink:href="#ma4f294b3af" y="184.810104968"/>
      </g>
     </g>
    </g>
    <g id="ytick_7">
     <g id="line2d_88">
      <g>
       <use style="stroke:#000000;stroke-width:0.5;" x="54.0" xlink:href="#mf0c55a9a47" y="173.994947516"/>
      </g>
     </g>
     <g id="line2d_89">
      <g>
       <use style="stroke:#000000;stroke-width:0.5;" x="388.8" xlink:href="#ma4f294b3af" y="173.994947516"/>
      </g>
     </g>
    </g>
    <g id="ytick_8">
     <g id="line2d_90">
      <g>
       <use style="stroke:#000000;stroke-width:0.5;" x="54.0" xlink:href="#mf0c55a9a47" y="165.158320457"/>
      </g>
     </g>
     <g id="line2d_91">
      <g>
       <use style="stroke:#000000;stroke-width:0.5;" x="388.8" xlink:href="#ma4f294b3af" y="165.158320457"/>
      </g>
     </g>
    </g>
    <g id="ytick_9">
     <g id="line2d_92">
      <g>
       <use style="stroke:#000000;stroke-width:0.5;" x="54.0" xlink:href="#mf0c55a9a47" y="157.687058734"/>
      </g>
     </g>
     <g id="line2d_93">
      <g>
       <use style="stroke:#000000;stroke-width:0.5;" x="388.8" xlink:href="#ma4f294b3af" y="157.687058734"/>
      </g>
     </g>
    </g>
    <g id="ytick_10">
     <g id="line2d_94">
      <g>
       <use style="stroke:#000000;stroke-width:0.5;" x="54.0" xlink:href="#mf0c55a9a47" y="151.215157452"/>
      </g>
     </g>
     <g id="line2d_95">
      <g>
       <use style="stroke:#000000;stroke-width:0.5;" x="388.8" xlink:href="#ma4f294b3af" y="151.215157452"/>
      </g>
     </g>
    </g>
    <g id="ytick_11">
     <g id="line2d_96">
      <g>
       <use style="stroke:#000000;stroke-width:0.5;" x="54.0" xlink:href="#mf0c55a9a47" y="145.506535947"/>
      </g>
     </g>
     <g id="line2d_97">
      <g>
       <use style="stroke:#000000;stroke-width:0.5;" x="388.8" xlink:href="#ma4f294b3af" y="145.506535947"/>
      </g>
     </g>
    </g>
    <g id="ytick_12">
     <g id="line2d_98">
      <g>
       <use style="stroke:#000000;stroke-width:0.5;" x="54.0" xlink:href="#mf0c55a9a47" y="106.805052484"/>
      </g>
     </g>
     <g id="line2d_99">
      <g>
       <use style="stroke:#000000;stroke-width:0.5;" x="388.8" xlink:href="#ma4f294b3af" y="106.805052484"/>
      </g>
     </g>
    </g>
    <g id="ytick_13">
     <g id="line2d_100">
      <g>
       <use style="stroke:#000000;stroke-width:0.5;" x="54.0" xlink:href="#mf0c55a9a47" y="87.1532679733"/>
      </g>
     </g>
     <g id="line2d_101">
      <g>
       <use style="stroke:#000000;stroke-width:0.5;" x="388.8" xlink:href="#ma4f294b3af" y="87.1532679733"/>
      </g>
     </g>
    </g>
    <g id="ytick_14">
     <g id="line2d_102">
      <g>
       <use style="stroke:#000000;stroke-width:0.5;" x="54.0" xlink:href="#mf0c55a9a47" y="73.2101049678"/>
      </g>
     </g>
     <g id="line2d_103">
      <g>
       <use style="stroke:#000000;stroke-width:0.5;" x="388.8" xlink:href="#ma4f294b3af" y="73.2101049678"/>
      </g>
     </g>
    </g>
    <g id="ytick_15">
     <g id="line2d_104">
      <g>
       <use style="stroke:#000000;stroke-width:0.5;" x="54.0" xlink:href="#mf0c55a9a47" y="62.3949475161"/>
      </g>
     </g>
     <g id="line2d_105">
      <g>
       <use style="stroke:#000000;stroke-width:0.5;" x="388.8" xlink:href="#ma4f294b3af" y="62.3949475161"/>
      </g>
     </g>
    </g>
    <g id="ytick_16">
     <g id="line2d_106">
      <g>
       <use style="stroke:#000000;stroke-width:0.5;" x="54.0" xlink:href="#mf0c55a9a47" y="53.5583204572"/>
      </g>
     </g>
     <g id="line2d_107">
      <g>
       <use style="stroke:#000000;stroke-width:0.5;" x="388.8" xlink:href="#ma4f294b3af" y="53.5583204572"/>
      </g>
     </g>
    </g>
    <g id="ytick_17">
     <g id="line2d_108">
      <g>
       <use style="stroke:#000000;stroke-width:0.5;" x="54.0" xlink:href="#mf0c55a9a47" y="46.0870587344"/>
      </g>
     </g>
     <g id="line2d_109">
      <g>
       <use style="stroke:#000000;stroke-width:0.5;" x="388.8" xlink:href="#ma4f294b3af" y="46.0870587344"/>
      </g>
     </g>
    </g>
    <g id="ytick_18">
     <g id="line2d_110">
      <g>
       <use style="stroke:#000000;stroke-width:0.5;" x="54.0" xlink:href="#mf0c55a9a47" y="39.6151574517"/>
      </g>
     </g>
     <g id="line2d_111">
      <g>
       <use style="stroke:#000000;stroke-width:0.5;" x="388.8" xlink:href="#ma4f294b3af" y="39.6151574517"/>
      </g>
     </g>
    </g>
    <g id="ytick_19">
     <g id="line2d_112">
      <g>
       <use style="stroke:#000000;stroke-width:0.5;" x="54.0" xlink:href="#mf0c55a9a47" y="33.9065359466"/>
      </g>
     </g>
     <g id="line2d_113">
      <g>
       <use style="stroke:#000000;stroke-width:0.5;" x="388.8" xlink:href="#ma4f294b3af" y="33.9065359466"/>
      </g>
     </g>
    </g>
   </g>
  </g>
 </g>
 <defs>
  <clipPath id="p124b8dd147">
   <rect height="223.2" width="334.8" x="54.0" y="28.8"/>
  </clipPath>
 </defs>
</svg>
