<?xml version="1.0" standalone="no"?>
<svg width="567.429" height="425.697" viewBox="0 0 567.429 425.697" xmlns="http://www.w3.org/2000/svg">
<title>
/home/protoss/Documenti/SistemiComplessi/src/Iuri/nonbanale.svg
</title>
<desc>
Creator: ROOT Version 5.34/30
CreationDate: Sat Mar 12 03:18:23 2016</desc>
<defs>
</defs>
<rect x="0.5" y="0" width="566.929" height="425.197" fill="white"/>
<rect x="57.1929" y="42.5197" width="453.543" height="340.157" fill="white"/>
<rect x="57.1929" y="42.5197" width="453.543" height="340.157" fill="none" stroke="black"/>
<rect x="57.1929" y="42.5197" width="453.543" height="340.157" fill="white"/>
<rect x="57.1929" y="42.5197" width="453.543" height="340.157" fill="none" stroke="black"/>
<path d="M57.1929,382.677h 453.543" fill="none" stroke="black"/>
<path d="M57.1929,372.472v 10.2047" fill="none" stroke="black"/>
<path d="M263.349,377.575v 5.10236" fill="none" stroke="black"/>
<path d="M469.505,372.472v 10.2047" fill="none" stroke="black"/>
<path d="M469.505,372.472v 10.2047" fill="none" stroke="black"/>
<text x="53.4134" y="396.378" fill="black" font-size="14.1531" font-family="Helvetica">
0
</text>
<text x="466.327" y="396.378" fill="black" font-size="14.1531" font-family="Helvetica">
1
</text>
<path d="M57.1929,382.677v -340.157" fill="none" stroke="black"/>
<path d="M70.7992,382.677h -13.6063" fill="none" stroke="black"/>
<path d="M63.9961,228.06h -6.80315" fill="none" stroke="black"/>
<path d="M70.7992,73.4431h -13.6063" fill="none" stroke="black"/>
<path d="M70.7992,73.4431h -13.6063" fill="none" stroke="black"/>
<text x="47.2717" y="387.874" fill="black" font-size="14.1531" font-family="Helvetica">
0
</text>
<text x="49.1614" y="78.4252" fill="black" font-size="14.1531" font-family="Helvetica">
1
</text>
<g stroke="black" stroke-width="1" fill="black">
<circle cx="160.271" cy="305.369" r="1.70079"/>
<circle cx="469.505" cy="73.4431" r="1.70079"/>
</g>
<path d="M59.4606,320.823l 4.53543, -0.0598677l 4.53543, -0.119735l 4.53543, -0.179603l 4.53543, -0.239471l 4.53543, -0.299339l 4.53543, -0.359206l 4.53543, -0.419074l 4.53543, -0.478942l 4.53543, -0.538809l 4.53543, -0.598677l 4.53543, -0.658545l
 4.53543, -0.718413l 4.53543, -0.77828l 4.53543, -0.838148l 4.53543, -0.898016l 4.53543, -0.957883l 4.53543, -1.01775l 4.53543, -1.07762l 4.53543, -1.13749l 4.53543, -1.19735l 4.53543, -1.25722l 4.53543, -1.31709l 4.53543, -1.37696l 4.53543,
 -1.43683l 4.53543, -1.49669l 4.53543, -1.55656l 4.53543, -1.61643l 4.53543, -1.6763l 4.53543, -1.73616l 4.53543, -1.79603l 4.53543, -1.8559l 4.53543, -1.91577l 4.53543, -1.97563l 4.53543, -2.0355l 4.53543, -2.09537l 4.53543, -2.15524l 4.53543,
 -2.21511l 4.53543, -2.27497l 4.53543, -2.33484l 4.53543, -2.39471l 4.53543, -2.45458l 4.53543, -2.51444l 4.53543, -2.57431l 4.53543, -2.63418l 4.53543, -2.69405l 4.53543, -2.75391l 4.53543, -2.81378l 4.53543, -2.87365l 4.53543, -2.93352" fill="none"
 stroke="#6666ff" stroke-width="2"/>
<path d="M281.697,247.485l 4.53543, -2.99339l 4.53543, -3.05325l 4.53543, -3.11312l 4.53543, -3.17299l 4.53543, -3.23286l 4.53543, -3.29272l 4.53543, -3.35259l 4.53543, -3.41246l 4.53543, -3.47233l 4.53543, -3.5322l 4.53543, -3.59206l 4.53543,
 -3.65193l 4.53543, -3.7118l 4.53543, -3.77167l 4.53543, -3.83153l 4.53543, -3.8914l 4.53543, -3.95127l 4.53543, -4.01114l 4.53543, -4.071l 4.53543, -4.13087l 4.53543, -4.19074l 4.53543, -4.25061l 4.53543, -4.31048l 4.53543, -4.37034l 4.53543,
 -4.43021l 4.53543, -4.49008l 4.53543, -4.54995l 4.53543, -4.60981l 4.53543, -4.66968l 4.53543, -4.72955l 4.53543, -4.78942l 4.53543, -4.84929l 4.53543, -4.90915l 4.53543, -4.96902l 4.53543, -5.02889l 4.53543, -5.08876l 4.53543, -5.14862l 4.53543,
 -5.20849l 4.53543, -5.26836l 4.53543, -5.32823l 4.53543, -5.38809l 4.53543, -5.44796l 4.53543, -5.50783l 4.53543, -5.5677l 4.53543, -5.62757l 4.53543, -5.68743l 4.53543, -5.30639" fill="none" stroke="#6666ff" stroke-width="2"/>
<path d="M59.4606,380.976l 4.53543, -3.40157l 4.53543, -3.40157l 4.53543, -3.40157l 4.53543, -3.40157l 4.53543, -3.40157l 4.53543, -3.40157l 4.53543, -3.40157l 4.53543, -3.40157l 4.53543, -3.40157l 4.53543, -3.40157l 4.53543, -3.40157l 4.53543,
 -3.40157l 4.53543, -3.40157l 4.53543, -3.40157l 4.53543, -3.40157l 4.53543, -3.40157l 4.53543, -3.40157l 4.53543, -3.40157l 4.53543, -3.40157l 4.53543, -3.40157l 4.53543, -3.40157l 4.53543, -3.40157l 4.53543, -3.40157l 4.53543, -3.40157l 4.53543,
 -3.40157l 4.53543, -3.40157l 4.53543, -3.40157l 4.53543, -3.40157l 4.53543, -3.40157l 4.53543, -3.40157l 4.53543, -3.40157l 4.53543, -3.40157l 4.53543, -3.40157l 4.53543, -3.40157l 4.53543, -3.40157l 4.53543, -3.40157l 4.53543, -3.40157l 4.53543,
 -3.40157l 4.53543, -3.40157l 4.53543, -3.40157l 4.53543, -3.40157l 4.53543, -3.40157l 4.53543, -3.40157l 4.53543, -3.40157l 4.53543, -3.40157l 4.53543, -3.40157l 4.53543, -3.40157l 4.53543, -3.40157l 4.53543, -3.40157" fill="none" stroke="#66cc66"
 stroke-width="2"/>
<path d="M281.697,214.299l 4.53543, -3.40157l 4.53543, -3.40157l 4.53543, -3.40157l 4.53543, -3.40157l 4.53543, -3.40157l 4.53543, -3.40157l 4.53543, -3.40157l 4.53543, -3.40157l 4.53543, -3.40157l 4.53543, -3.40157l 4.53543, -3.40157l 4.53543,
 -3.40157l 4.53543, -3.40157l 4.53543, -3.40157l 4.53543, -3.40157l 4.53543, -3.40157l 4.53543, -3.40157l 4.53543, -3.40157l 4.53543, -3.40157l 4.53543, -3.40157l 4.53543, -3.40157l 4.53543, -3.40157l 4.53543, -3.40157l 4.53543, -3.40157l 4.53543,
 -3.40157l 4.53543, -3.40157l 4.53543, -3.40157l 4.53543, -3.40157l 4.53543, -3.40157l 4.53543, -3.40157l 4.53543, -3.40157l 4.53543, -3.40157l 4.53543, -3.40157l 4.53543, -3.40157l 4.53543, -3.40157l 4.53543, -3.40157l 4.53543, -3.40157l 4.53543,
 -3.40157l 4.53543, -3.40157l 4.53543, -3.40157l 4.53543, -3.40157l 4.53543, -3.40157l 4.53543, -3.40157l 4.53543, -3.40157l 4.53543, -3.40157l 4.53543, -3.40157l 4.53543, -3.40157l 4.53543, -3.40157l 4.53543, -3.40157" fill="none" stroke="#66cc66"
 stroke-width="2"/>
<path d="M503.933,47.6221l 4.53543, -3.40157" fill="none" stroke="#66cc66" stroke-width="2"/>
<g stroke="black" stroke-width="1" fill="black">
<circle cx="160.271" cy="305.369" r="1.70079"/>
<circle cx="469.505" cy="73.4431" r="1.70079"/>
</g>
<rect x="75.6181" y="47.7165" width="49.1339" height="37.3228" fill="white"/>
<path d="M75.6181,85.0394h 49.1339" fill="none" stroke="black"/>
<path d="M124.752,85.0394v -37.3228" fill="none" stroke="black"/>
<path d="M124.752,47.7165h -49.1339" fill="none" stroke="black"/>
<path d="M75.6181,47.7165v 37.3228" fill="none" stroke="black"/>
<text x="87.9016" y="60.9449" fill="black" font-size="14.8033" font-family="Helvetica">
q
</text>
<path d="M77.4606,57.0472h 8.59842" fill="none" stroke="#66cc66" stroke-width="2"/>
<text x="87.9016" y="79.8425" fill="black" font-size="14.8033" font-family="Helvetica">
F(q)
</text>
<path d="M77.4606,75.7087h 8.59842" fill="none" stroke="#6666ff" stroke-width="2"/>
<text x="259.87" y="32.5984" fill="black" font-size="16.7104" font-family="Helvetica">
F(q)=q
</text></svg>
