<?xml version="1.0" encoding="utf-8" standalone="no"?>
<!DOCTYPE svg PUBLIC "-//W3C//DTD SVG 1.1//EN"
  "http://www.w3.org/Graphics/SVG/1.1/DTD/svg11.dtd">
<!-- Created with matplotlib (http://matplotlib.org/) -->
<svg height="648pt" version="1.1" viewBox="0 0 864 648" width="864pt" xmlns="http://www.w3.org/2000/svg" xmlns:xlink="http://www.w3.org/1999/xlink">
 <defs>
  <style type="text/css">
*{stroke-linecap:butt;stroke-linejoin:round;}
  </style>
 </defs>
 <g id="figure_1">
  <g id="patch_1">
   <path d="
M0 648
L864 648
L864 0
L0 0
z
" style="fill:none;"/>
  </g>
  <g id="axes_1">
   <g id="patch_2">
    <path d="
M108 567
L777.6 567
L777.6 64.8
L108 64.8
z
" style="fill:none;"/>
   </g>
   <g id="patch_3">
    <path clip-path="url(#p82c8045bb0)" d="
M313.988 649
L313.988 365.43
L342.026 365.43
L342.026 312.801
L362.21 312.801
L362.21 279.741
L377.991 279.741
L377.991 256.083
L390.95 256.083
L390.95 199.871
L401.944 199.871
L401.944 165.876
L411.493 165.876
L411.493 167.054
L419.931 167.054
L419.931 160.802
L427.491 160.802
L427.491 155.298
L434.339 155.298
L434.339 143.659
L440.597 143.659
L440.597 144.743
L451.696 144.743
L451.696 130.333
L456.669 130.333
L456.669 128.215
L461.324 128.215
L461.324 131.053
L465.698 131.053
L465.698 133.63
L469.824 133.63
L469.824 144.961
L473.728 144.961
L473.728 164.145
L477.434 164.145
L477.434 187.084
L480.959 187.084
L480.959 196.68
L484.322 196.68
L484.322 212.016
L487.536 212.016
L487.536 220.167
L490.613 220.167
L490.613 227.964
L493.566 227.964
L493.566 241.494
L496.404 241.494
L496.404 251.201
L499.134 251.201
L499.134 244.015
L501.766 244.015
L501.766 274.353
L504.306 274.353
L504.306 270.559
L506.761 270.559
L506.761 293.557
L509.135 293.557
L509.135 310.63
L511.434 310.63
L511.434 302.544
L513.662 302.544
L513.662 308.523
L515.825 308.523
L515.825 295.268
L517.924 295.268
L517.924 315.038
L519.965 315.038
L519.965 349.208
L521.95 349.208
L521.95 339.047
L523.883 339.047
L523.883 399.6
L525.765 399.6
L525.765 339.047
L529.39 339.047
L529.39 349.208
L531.136 349.208
L531.136 365.43
L532.842 365.43
L532.842 392.671
L534.509 392.671
L534.509 370.122
L536.138 370.122
L536.138 392.671
L537.731 392.671
L537.731 380.526
L539.291 380.526
L539.291 370.122
L542.312 370.122
L542.312 407.26
L543.777 407.26
L543.777 415.823
L545.214 415.823
L545.214 449.992
L546.622 449.992
L546.622 436.737
L548.003 436.737
L548.003 392.671
L549.359 392.671
L549.359 407.26
L550.69 407.26
L550.69 436.737
L553.281 436.737
L553.281 407.26
L554.543 407.26
L554.543 392.671
L555.783 392.671
L555.783 516.608
L557.002 516.608
L557.002 466.215
L559.381 466.215
L559.381 425.531
L560.542 425.531
L560.542 449.992
L561.685 449.992
L561.685 466.215
L562.81 466.215
L562.81 425.531
L563.918 425.531
L563.918 466.215
L565.009 466.215
L565.009 399.6
L566.084 399.6
L566.084 487.13
L567.143 487.13
L567.143 516.608
L568.187 516.608
L568.187 436.737
L570.232 436.737
L570.232 449.992
L571.233 449.992
L571.233 516.608
L572.22 516.608
L572.22 449.992
L573.195 449.992
L573.195 487.13
L574.156 487.13
L574.156 449.992
L576.041 449.992
L576.041 487.13
L576.966 487.13
L576.966 449.992
L577.879 449.992
L577.879 466.215
L578.781 466.215
L578.781 436.737
L579.671 436.737
L579.671 449.992
L580.551 449.992
L580.551 487.13
L581.421 487.13
L581.421 516.608
L582.28 516.608
L582.28 487.13
L583.968 487.13
L583.968 567
L584.798 567
L584.798 449.992
L586.429 449.992
L586.429 407.26
L587.232 407.26
L587.232 466.215
L588.025 466.215
L588.025 487.13
L588.81 487.13
L588.81 649
M589.587 649
L589.587 487.13
L590.355 487.13
L590.355 516.608
L591.115 516.608
L591.115 487.13
L591.868 487.13
L591.868 466.215
L592.612 466.215
L592.612 567
L593.349 567
L593.349 516.608
L594.079 516.608
L594.079 487.13
L594.802 487.13
L594.802 466.215
L595.517 466.215
L595.517 487.13
L596.225 487.13
L596.225 567
L597.622 567
L597.622 466.215
L598.992 466.215
L598.992 567
L599.668 567
L599.668 487.13
L600.337 487.13
L600.337 516.608
L601 516.608
L601 487.13
L601.657 487.13
L601.657 516.608
L602.309 516.608
L602.309 487.13
L602.954 487.13
L602.954 516.608
L603.594 516.608
L603.594 649
M604.857 649
L604.857 516.608
L605.48 516.608
L605.48 487.13
L606.098 487.13
L606.098 516.608
L606.711 516.608
L606.711 466.215
L607.319 466.215
L607.319 487.13
L607.922 487.13
L607.922 516.608
L609.112 516.608
L609.112 567
L610.862 567
L610.862 487.13
L611.437 487.13
L611.437 649
M612.006 649
L612.006 567
L612.571 567
L612.571 649
M613.132 649
L613.132 516.608
L614.241 516.608
L614.241 649
M615.873 649
L615.873 516.608
L616.41 516.608
L616.41 649
M617.47 649
L617.47 449.992
L617.994 449.992
L617.994 567
L618.515 567
L618.515 649
M619.032 649
L619.032 487.13
L620.055 487.13
L620.055 567
L621.064 567
L621.064 649
M621.563 649
L621.563 567
L622.059 567
L622.059 516.608
L622.552 516.608
L622.552 567
L623.527 567
L623.527 649
M624.009 649
L624.009 567
L624.489 567
L624.489 649
M624.965 649
L624.965 567
L625.438 567
L625.438 649
M626.376 649
L626.376 516.608
L626.84 516.608
L626.84 567
L627.301 567
L627.301 649
M627.759 649
L627.759 567
L628.215 567
L628.215 516.608
L628.667 516.608
L628.667 649
M630.009 649
L630.009 567
L630.889 567
L630.889 649
M631.325 649
L631.325 567
L631.759 567
L631.759 516.608
L632.19 516.608
L632.19 649
M633.469 649
L633.469 567
L634.308 567
L634.308 649
M635.55 649
L635.55 567
L636.367 567
L636.367 649
M636.771 649
L636.771 567
L637.174 567
L637.174 649
M637.574 649
L637.574 567
L637.972 567
L637.972 649
M638.762 649
L638.762 567
L639.154 567
L639.154 649
M639.543 649
L639.543 567
L640.699 567
L640.699 649
M641.081 649
L641.081 516.608
L641.46 516.608
L641.46 649
M642.587 649
L642.587 567
L642.958 567
L642.958 516.608
L643.328 516.608
L643.328 649
M643.696 649
L643.696 567
L644.426 567
L644.426 649
M645.508 649
L645.508 567
L645.865 567
L645.865 649
M646.926 649
L646.926 567
L647.624 567
L647.624 649
M648.66 649
L648.66 567
L649.002 567
L649.002 649
M650.688 649
L650.688 567
L651.351 567
L651.351 649
M652.009 649
L652.009 567
L652.335 567
L652.335 649
M652.984 649
L652.984 567
L653.306 567
L653.306 649
M654.264 649
L654.264 516.608
L654.581 516.608
L654.581 649
M655.21 649
L655.21 487.13
L655.523 487.13
L655.523 567
L655.834 567
L655.834 516.608
L656.144 516.608
L656.144 567
L656.452 567
L656.452 649
M657.065 649
L657.065 567
L657.37 567
L657.37 516.608
L657.674 516.608
L657.674 649
M657.976 649
L657.976 567
L658.875 567
L658.875 649
M659.763 649
L659.763 567
L660.056 567
L660.056 649
M661.219 649
L661.219 516.608
L661.507 516.608
L661.507 649
M661.793 649
L661.793 516.608
L662.079 516.608
L662.079 567
L662.363 567
L662.363 649
M664.323 649
L664.323 567
L664.874 567
L664.874 649
M665.148 649
L665.148 567
L665.692 567
L665.692 649
M666.232 649
L666.232 567
L666.501 567
L666.501 649
M666.769 649
L666.769 516.608
L667.035 516.608
L667.035 649
M667.301 649
L667.301 567
L667.566 567
L667.566 649
M668.354 649
L668.354 567
L668.875 567
L668.875 649
M670.669 649
L670.669 567
L670.922 567
L670.922 649
M671.425 649
L671.425 567
L671.675 567
L671.675 649
M672.173 649
L672.173 567
L672.421 567
L672.421 649
M672.667 649
L672.667 567
L672.913 567
L672.913 649
M674.372 649
L674.372 567
L674.612 567
L674.612 649
M675.565 649
L675.565 567
L675.801 567
L675.801 649
M676.037 649
L676.037 567
L676.272 567
L676.272 649
M677.434 649
L677.434 567
L677.665 567
L677.665 649
M680.595 649
L680.595 567
L680.815 567
L680.815 649
M682.125 649
L682.125 567
L682.341 567
L682.341 649
M684.046 649
L684.046 567
L684.256 567
L684.256 649
M684.883 649
L684.883 567
L685.091 567
L685.091 649
M685.505 649
L685.505 567
L685.712 567
L685.712 649
M685.917 649
L685.917 516.608
L686.122 516.608
L686.122 649
M686.936 649
L686.936 567
L687.139 567
L687.139 649
M687.34 649
L687.34 516.608
L687.541 516.608
L687.541 649
M689.326 649
L689.326 567
L689.522 567
L689.522 649
M690.684 649
L690.684 567
L690.877 567
L690.877 649
M691.068 649
L691.068 567
L691.259 567
L691.259 649
M691.829 649
L691.829 567
L692.207 567
L692.207 649
M694.065 649
L694.065 567
L694.249 567
L694.249 649
M694.977 649
L694.977 567
L695.158 567
L695.158 649
M695.519 649
L695.519 567
L695.699 567
L695.699 649
M695.878 649
L695.878 567
L696.057 567
L696.057 649
M696.768 649
L696.768 567
L696.944 567
L696.944 649
M697.296 649
L697.296 567
L697.471 567
L697.471 649
M699.543 649
L699.543 567
L699.713 567
L699.713 649
M700.725 649
L700.725 567
L700.892 567
L700.892 649
M701.392 649
L701.392 567
L701.558 567
L701.558 649
M702.053 649
L702.053 567
L702.217 567
L702.217 649
M702.381 649
L702.381 516.608
L702.544 516.608
L702.544 649
M703.679 649
L703.679 567
L703.839 567
L703.839 649
M706.051 649
L706.051 567
L706.207 567
L706.207 649
M707.286 649
L707.286 567
L707.439 567
L707.439 649
M709.248 649
L709.248 567
L709.397 567
L709.397 516.608
L709.546 516.608
L709.546 649
M709.842 649
L709.842 567
L710.137 567
L710.137 649
M711.304 649
L711.304 567
L711.449 567
L711.449 649
M713.585 649
L713.585 567
L713.725 567
L713.725 649
M715.796 649
L715.796 567
L715.932 567
L715.932 649
M716.338 649
L716.338 567
L716.877 567
L716.877 649
M717.278 649
L717.278 567
L717.411 567
L717.411 649
M717.809 649
L717.809 567
L717.942 567
L717.942 649
M720.919 649
L720.919 567
L721.046 567
L721.046 649
M722.674 649
L722.674 567
L722.921 567
L722.921 649
M723.535 649
L723.535 567
L723.658 567
L723.658 649
M725.229 649
L725.229 567
L725.348 567
L725.348 649
M726.061 649
L726.061 567
L726.179 567
L726.179 649
M727.117 649
L727.117 567
L727.233 567
L727.233 649
M729.071 649
L729.071 567
L729.41 567
L729.41 649
M730.863 649
L730.863 567
L730.863 567
L730.863 567
L730.973 567
L730.973 649
M731.961 649
L731.961 567
L731.961 567
L731.961 567
L732.178 567
L732.178 649
M732.935 649
L732.935 567
L732.935 567
L732.935 567
L733.042 567
L733.042 649
M734.108 649
L734.108 567
L734.108 567
L734.108 567
L734.214 567
L734.214 649
M734.319 649
L734.319 567
L734.319 567
L734.319 567
L734.53 567
L734.53 649
M735.159 649
L735.159 567
L735.159 567
L735.159 567
L735.263 567
L735.263 649
M736.808 649
L736.808 567
L736.808 567
L736.808 567
L737.012 567
L737.012 649
M744.263 649
L744.263 567
L744.263 567
L744.263 567
L744.355 567
L744.355 649
M746.349 649
L746.349 567
L746.349 567
L746.349 567
L746.438 567
L746.438 649
M746.972 649
L746.972 449.992
L746.972 449.992
L746.972 449.992
L747.06 449.992
L747.06 649
L747.06 649" style="fill:none;stroke:#4d4d4d;stroke-linejoin:miter;"/>
   </g>
   <g id="patch_4">
    <path clip-path="url(#p82c8045bb0)" d="
M108 649
L108 169.161
L267.75 169.161
L267.75 155.804
L313.988 155.804
L313.988 182.172
L342.026 182.172
L342.026 183.648
L362.21 183.648
L362.21 195.354
L377.991 195.354
L377.991 240.672
L390.95 240.672
L390.95 270.559
L401.944 270.559
L401.944 310.63
L411.493 310.63
L411.493 332.985
L419.931 332.985
L419.931 375.138
L427.491 375.138
L427.491 386.345
L434.339 386.345
L434.339 466.215
L440.597 466.215
L440.597 516.608
L446.358 516.608
L446.358 436.737
L451.696 436.737
L451.696 449.992
L456.669 449.992
L456.669 516.608
L461.324 516.608
L461.324 466.215
L465.698 466.215
L465.698 487.13
L469.824 487.13
L469.824 449.992
L473.728 449.992
L473.728 516.608
L477.434 516.608
L477.434 567
L484.322 567
L484.322 487.13
L487.536 487.13
L487.536 516.608
L490.613 516.608
L490.613 567
L499.134 567
L499.134 487.13
L504.306 487.13
L504.306 649
M509.135 649
L509.135 567
L511.434 567
L511.434 516.608
L513.662 516.608
L513.662 567
L515.825 567
L515.825 649
M517.924 649
L517.924 516.608
L519.965 516.608
L519.965 567
L521.95 567
L521.95 649
M523.883 649
L523.883 567
L529.39 567
L529.39 649
M532.842 649
L532.842 567
L534.509 567
L534.509 649
M536.138 649
L536.138 567
L537.731 567
L537.731 649
M539.291 649
L539.291 567
L540.817 567
L540.817 649
M542.312 649
L542.312 567
L543.777 567
L543.777 649
M545.214 649
L545.214 567
L546.622 567
L546.622 649
M558.201 649
L558.201 567
L559.381 567
L559.381 649
M561.685 649
L561.685 567
L562.81 567
L562.81 649
M565.009 649
L565.009 567
L566.084 567
L566.084 649
M569.217 649
L569.217 567
L570.232 567
L570.232 649
M578.781 649
L578.781 567
L580.551 567
L580.551 649
M583.968 649
L583.968 567
L585.618 567
L585.618 649
M598.31 649
L598.31 567
L598.992 567
L598.992 649
M603.594 649
L603.594 567
L604.857 567
L604.857 649
M610.862 649
L610.862 567
L611.437 567
L611.437 649
M621.064 649
L621.064 567
L621.563 567
L621.563 649
M634.308 649
L634.308 567
L634.725 567
L634.725 649
L634.725 649" style="fill:none;stroke:#99ccff;stroke-linejoin:miter;"/>
   </g>
   <g id="patch_5">
    <path clip-path="url(#p82c8045bb0)" d="
M108 649
L108 224.613
L267.75 224.613
L267.75 143.23
L313.988 143.23
L313.988 161.349
L342.026 161.349
L342.026 171.647
L362.21 171.647
L362.21 173.894
L377.991 173.894
L377.991 204.191
L390.95 204.191
L390.95 242.324
L401.944 242.324
L401.944 266.954
L411.493 266.954
L411.493 302.544
L419.931 302.544
L419.931 304.483
L427.491 304.483
L427.491 317.346
L434.339 317.346
L434.339 365.43
L440.597 365.43
L440.597 370.122
L446.358 370.122
L446.358 365.43
L451.696 365.43
L451.696 370.122
L461.324 370.122
L461.324 386.345
L465.698 386.345
L465.698 399.6
L469.824 399.6
L469.824 449.992
L473.728 449.992
L473.728 415.823
L480.959 415.823
L480.959 466.215
L484.322 466.215
L484.322 567
L487.536 567
L487.536 466.215
L490.613 466.215
L490.613 436.737
L496.404 436.737
L496.404 466.215
L499.134 466.215
L499.134 449.992
L501.766 449.992
L501.766 466.215
L504.306 466.215
L504.306 487.13
L506.761 487.13
L506.761 466.215
L509.135 466.215
L509.135 487.13
L513.662 487.13
L513.662 516.608
L515.825 516.608
L515.825 466.215
L517.924 466.215
L517.924 649
M519.965 649
L519.965 567
L521.95 567
L521.95 487.13
L523.883 487.13
L523.883 649
M527.6 649
L527.6 567
L531.136 567
L531.136 649
M534.509 649
L534.509 516.608
L537.731 516.608
L537.731 649
M540.817 649
L540.817 567
L542.312 567
L542.312 649
M550.69 649
L550.69 567
L551.997 567
L551.997 649
M555.783 649
L555.783 567
L557.002 567
L557.002 649
M563.918 649
L563.918 516.608
L565.009 516.608
L565.009 649
M566.084 649
L566.084 567
L567.143 567
L567.143 649
M581.421 649
L581.421 567
L583.129 567
L583.129 649
M584.798 649
L584.798 567
L586.429 567
L586.429 649
M592.612 649
L592.612 567
L593.349 567
L593.349 649
M600.337 649
L600.337 567
L601 567
L601 649
M602.954 649
L602.954 567
L603.594 567
L603.594 649
M608.519 649
L608.519 567
L609.112 567
L609.112 649
M640.699 649
L640.699 567
L641.081 567
L641.081 649
M649.681 649
L649.681 567
L650.018 567
L650.018 649
M651.681 649
L651.681 567
L652.009 567
L652.009 649
L652.009 649" style="fill:none;stroke:#ff3300;stroke-linejoin:miter;"/>
   </g>
   <g id="patch_6">
    <path clip-path="url(#p82c8045bb0)" d="
M108 649
L108 322.195
L267.75 322.195
L267.75 308.523
L313.988 308.523
L313.988 253.115
L342.026 253.115
L342.026 181.445
L362.21 181.445
L362.21 163.295
L377.991 163.295
L377.991 152.816
L390.95 152.816
L390.95 135.914
L401.944 135.914
L401.944 163.014
L411.493 163.014
L411.493 186.306
L419.931 186.306
L419.931 225.935
L427.491 225.935
L427.491 239.056
L434.339 239.056
L434.339 265.79
L440.597 265.79
L440.597 315.038
L446.358 315.038
L446.358 308.523
L451.696 308.523
L451.696 319.73
L456.669 319.73
L456.669 332.985
L461.324 332.985
L461.324 349.208
L465.698 349.208
L465.698 361.023
L469.824 361.023
L469.824 352.937
L473.728 352.937
L473.728 407.26
L477.434 407.26
L477.434 425.531
L480.959 425.531
L480.959 407.26
L487.536 407.26
L487.536 415.823
L490.613 415.823
L490.613 425.531
L493.566 425.531
L493.566 436.737
L496.404 436.737
L496.404 425.531
L499.134 425.531
L499.134 567
L501.766 567
L501.766 466.215
L504.306 466.215
L504.306 487.13
L509.135 487.13
L509.135 449.992
L513.662 449.992
L513.662 516.608
L517.924 516.608
L517.924 436.737
L519.965 436.737
L519.965 487.13
L525.765 487.13
L525.765 415.823
L527.6 415.823
L527.6 487.13
L529.39 487.13
L529.39 567
L531.136 567
L531.136 516.608
L532.842 516.608
L532.842 449.992
L534.509 449.992
L534.509 567
L536.138 567
L536.138 516.608
L537.731 516.608
L537.731 487.13
L539.291 487.13
L539.291 516.608
L542.312 516.608
L542.312 649
M543.777 649
L543.777 487.13
L545.214 487.13
L545.214 466.215
L546.622 466.215
L546.622 567
L548.003 567
L548.003 649
M550.69 649
L550.69 567
L553.281 567
L553.281 649
M554.543 649
L554.543 567
L555.783 567
L555.783 649
M557.002 649
L557.002 567
L559.381 567
L559.381 649
M563.918 649
L563.918 567
L566.084 567
L566.084 516.608
L567.143 516.608
L567.143 567
L568.187 567
L568.187 649
M570.232 649
L570.232 567
L571.233 567
L571.233 516.608
L572.22 516.608
L572.22 567
L573.195 567
L573.195 516.608
L574.156 516.608
L574.156 567
L575.105 567
L575.105 649
M581.421 649
L581.421 567
L583.129 567
L583.129 649
M585.618 649
L585.618 567
L586.429 567
L586.429 649
M587.232 649
L587.232 567
L588.025 567
L588.025 516.608
L588.81 516.608
L588.81 649
M589.587 649
L589.587 567
L591.868 567
L591.868 649
M594.802 649
L594.802 567
L595.517 567
L595.517 649
M596.225 649
L596.225 567
L596.927 567
L596.927 649
M597.622 649
L597.622 516.608
L598.31 516.608
L598.31 649
M601 649
L601 516.608
L601.657 516.608
L601.657 649
M604.228 649
L604.228 516.608
L604.857 516.608
L604.857 649
M606.711 649
L606.711 567
L607.319 567
L607.319 649
M608.519 649
L608.519 567
L609.112 567
L609.112 649
M609.7 649
L609.7 567
L610.284 567
L610.284 649
M611.437 649
L611.437 567
L612.571 567
L612.571 649
M613.132 649
L613.132 567
L613.689 567
L613.689 649
M617.47 649
L617.47 567
L617.994 567
L617.994 649
M622.059 649
L622.059 567
L623.041 567
L623.041 649
M624.009 649
L624.009 567
L624.489 567
L624.489 649
M625.908 649
L625.908 516.608
L626.376 516.608
L626.376 649
M629.117 649
L629.117 567
L629.564 567
L629.564 649
M631.759 649
L631.759 567
L632.19 567
L632.19 649
M635.139 649
L635.139 567
L635.55 567
L635.55 649
M637.174 649
L637.174 567
L637.574 567
L637.574 649
M639.154 649
L639.154 567
L639.543 567
L639.543 649
M642.587 649
L642.587 567
L643.328 567
L643.328 649
M644.062 649
L644.062 567
L644.426 567
L644.426 516.608
L644.789 516.608
L644.789 649
M646.926 649
L646.926 567
L647.276 567
L647.276 649
M650.354 649
L650.354 567
L650.688 567
L650.688 649
M651.02 649
L651.02 567
L651.351 567
L651.351 649
M654.896 649
L654.896 567
L655.21 567
L655.21 649
M656.144 649
L656.144 567
L656.452 567
L656.452 649
M657.065 649
L657.065 567
L657.37 567
L657.37 649
M657.976 649
L657.976 567
L658.277 567
L658.277 649
M661.219 649
L661.219 567
L661.507 567
L661.507 649
M670.669 649
L670.669 567
L670.922 567
L670.922 649
M672.667 649
L672.667 567
L672.913 567
L672.913 649
L672.913 649" style="fill:none;stroke:#ff8000;stroke-linejoin:miter;"/>
   </g>
   <g id="patch_7">
    <path clip-path="url(#p82c8045bb0)" d="
M267.75 649
L267.75 226.605
L313.988 226.605
L313.988 147.185
L342.026 147.185
L342.026 142.38
L362.21 142.38
L362.21 170.393
L377.991 170.393
L377.991 178.608
L390.95 178.608
L390.95 211.467
L401.944 211.467
L401.944 238.262
L411.493 238.262
L411.493 293.557
L427.491 293.557
L427.491 308.523
L434.339 308.523
L434.339 319.73
L440.597 319.73
L440.597 370.122
L446.358 370.122
L446.358 386.345
L451.696 386.345
L451.696 375.138
L456.669 375.138
L456.669 399.6
L461.324 399.6
L461.324 425.531
L465.698 425.531
L465.698 407.26
L469.824 407.26
L469.824 449.992
L473.728 449.992
L473.728 466.215
L477.434 466.215
L477.434 516.608
L480.959 516.608
L480.959 449.992
L484.322 449.992
L484.322 487.13
L499.134 487.13
L499.134 516.608
L506.761 516.608
L506.761 487.13
L509.135 487.13
L509.135 567
L511.434 567
L511.434 516.608
L513.662 516.608
L513.662 567
L515.825 567
L515.825 487.13
L517.924 487.13
L517.924 466.215
L519.965 466.215
L519.965 649
M521.95 649
L521.95 567
L523.883 567
L523.883 466.215
L525.765 466.215
L525.765 567
L531.136 567
L531.136 649
M532.842 649
L532.842 567
L534.509 567
L534.509 516.608
L536.138 516.608
L536.138 649
M539.291 649
L539.291 516.608
L540.817 516.608
L540.817 649
M546.622 649
L546.622 516.608
L548.003 516.608
L548.003 567
L549.359 567
L549.359 649
M550.69 649
L550.69 516.608
L551.997 516.608
L551.997 649
M560.542 649
L560.542 567
L561.685 567
L561.685 649
M563.918 649
L563.918 567
L565.009 567
L565.009 649
M567.143 649
L567.143 567
L568.187 567
L568.187 649
M576.041 649
L576.041 567
L576.966 567
L576.966 649
M585.618 649
L585.618 567
L587.232 567
L587.232 649
M588.025 649
L588.025 567
L588.81 567
L588.81 649
M592.612 649
L592.612 567
L593.349 567
L593.349 649
M596.927 649
L596.927 567
L597.622 567
L597.622 649
M599.668 649
L599.668 567
L600.337 567
L600.337 649
M601 649
L601 567
L601.657 567
L601.657 649
M606.098 649
L606.098 516.608
L606.711 516.608
L606.711 649
M609.112 649
L609.112 516.608
L609.7 516.608
L609.7 649
M612.006 649
L612.006 516.608
L612.571 516.608
L612.571 567
L613.132 567
L613.132 649
M621.563 649
L621.563 567
L622.059 567
L622.059 649
M624.489 649
L624.489 567
L624.965 567
L624.965 649
M628.215 649
L628.215 567
L628.667 567
L628.667 649
M631.759 649
L631.759 516.608
L632.19 516.608
L632.19 649
M641.46 649
L641.46 567
L641.838 567
L641.838 649
M647.276 649
L647.276 567
L647.624 567
L647.624 649
M650.354 649
L650.354 567
L650.688 567
L650.688 649
M651.02 649
L651.02 567
L651.351 567
L651.351 649
L651.351 649" style="fill:none;stroke:#0066ff;stroke-linejoin:miter;"/>
   </g>
   <g id="line2d_1">
    <path clip-path="url(#p82c8045bb0)" d="
M442.8 64.8
L610.2 567" style="fill:none;stroke:#808080;stroke-dasharray:6.000000,6.000000;stroke-dashoffset:0.0;"/>
   </g>
   <g id="patch_8">
    <path d="
M108 64.8
L777.6 64.8" style="fill:none;stroke:#000000;stroke-linecap:square;stroke-linejoin:miter;"/>
   </g>
   <g id="patch_9">
    <path d="
M777.6 567
L777.6 64.8" style="fill:none;stroke:#000000;stroke-linecap:square;stroke-linejoin:miter;"/>
   </g>
   <g id="patch_10">
    <path d="
M108 567
L777.6 567" style="fill:none;stroke:#000000;stroke-linecap:square;stroke-linejoin:miter;"/>
   </g>
   <g id="patch_11">
    <path d="
M108 567
L108 64.8" style="fill:none;stroke:#000000;stroke-linecap:square;stroke-linejoin:miter;"/>
   </g>
   <g id="matplotlib.axis_1">
    <g id="xtick_1">
     <g id="line2d_2">
      <defs>
       <path d="
M0 0
L0 -4" id="m93b0483c22" style="stroke:#000000;stroke-width:0.5;"/>
      </defs>
      <g>
       <use style="stroke:#000000;stroke-width:0.5;" x="108.0" xlink:href="#m93b0483c22" y="567.0"/>
      </g>
     </g>
     <g id="line2d_3">
      <defs>
       <path d="
M0 0
L0 4" id="m741efc42ff" style="stroke:#000000;stroke-width:0.5;"/>
      </defs>
      <g>
       <use style="stroke:#000000;stroke-width:0.5;" x="108.0" xlink:href="#m741efc42ff" y="64.8"/>
      </g>
     </g>
     <g id="text_1">
      <!-- $\mathdefault{10^{0}}$ -->
      <defs>
       <path d="
M12.4062 8.29688
L28.5156 8.29688
L28.5156 63.9219
L10.9844 60.4062
L10.9844 69.3906
L28.4219 72.9062
L38.2812 72.9062
L38.2812 8.29688
L54.3906 8.29688
L54.3906 0
L12.4062 0
z
" id="DejaVuSans-31"/>
       <path d="
M31.7812 66.4062
Q24.1719 66.4062 20.3281 58.9062
Q16.5 51.4219 16.5 36.375
Q16.5 21.3906 20.3281 13.8906
Q24.1719 6.39062 31.7812 6.39062
Q39.4531 6.39062 43.2812 13.8906
Q47.125 21.3906 47.125 36.375
Q47.125 51.4219 43.2812 58.9062
Q39.4531 66.4062 31.7812 66.4062
M31.7812 74.2188
Q44.0469 74.2188 50.5156 64.5156
Q56.9844 54.8281 56.9844 36.375
Q56.9844 17.9688 50.5156 8.26562
Q44.0469 -1.42188 31.7812 -1.42188
Q19.5312 -1.42188 13.0625 8.26562
Q6.59375 17.9688 6.59375 36.375
Q6.59375 54.8281 13.0625 64.5156
Q19.5312 74.2188 31.7812 74.2188" id="DejaVuSans-30"/>
      </defs>
      <g transform="translate(98.85 580.1203125)scale(0.1 -0.1)">
       <use transform="translate(0.0 0.234375)" xlink:href="#DejaVuSans-31"/>
       <use transform="translate(63.623046875 0.234375)" xlink:href="#DejaVuSans-30"/>
       <use transform="translate(127.24609375 58.046875)scale(0.7)" xlink:href="#DejaVuSans-30"/>
      </g>
     </g>
    </g>
    <g id="xtick_2">
     <g id="line2d_4">
      <g>
       <use style="stroke:#000000;stroke-width:0.5;" x="275.4" xlink:href="#m93b0483c22" y="567.0"/>
      </g>
     </g>
     <g id="line2d_5">
      <g>
       <use style="stroke:#000000;stroke-width:0.5;" x="275.4" xlink:href="#m741efc42ff" y="64.8"/>
      </g>
     </g>
     <g id="text_2">
      <!-- $\mathdefault{10^{1}}$ -->
      <g transform="translate(266.25 580.0203125)scale(0.1 -0.1)">
       <use transform="translate(0.0 0.153125)" xlink:href="#DejaVuSans-31"/>
       <use transform="translate(63.623046875 0.153125)" xlink:href="#DejaVuSans-30"/>
       <use transform="translate(127.24609375 57.965625)scale(0.7)" xlink:href="#DejaVuSans-31"/>
      </g>
     </g>
    </g>
    <g id="xtick_3">
     <g id="line2d_6">
      <g>
       <use style="stroke:#000000;stroke-width:0.5;" x="442.8" xlink:href="#m93b0483c22" y="567.0"/>
      </g>
     </g>
     <g id="line2d_7">
      <g>
       <use style="stroke:#000000;stroke-width:0.5;" x="442.8" xlink:href="#m741efc42ff" y="64.8"/>
      </g>
     </g>
     <g id="text_3">
      <!-- $\mathdefault{10^{2}}$ -->
      <defs>
       <path d="
M19.1875 8.29688
L53.6094 8.29688
L53.6094 0
L7.32812 0
L7.32812 8.29688
Q12.9375 14.1094 22.625 23.8906
Q32.3281 33.6875 34.8125 36.5312
Q39.5469 41.8438 41.4219 45.5312
Q43.3125 49.2188 43.3125 52.7812
Q43.3125 58.5938 39.2344 62.25
Q35.1562 65.9219 28.6094 65.9219
Q23.9688 65.9219 18.8125 64.3125
Q13.6719 62.7031 7.8125 59.4219
L7.8125 69.3906
Q13.7656 71.7812 18.9375 73
Q24.125 74.2188 28.4219 74.2188
Q39.75 74.2188 46.4844 68.5469
Q53.2188 62.8906 53.2188 53.4219
Q53.2188 48.9219 51.5312 44.8906
Q49.8594 40.875 45.4062 35.4062
Q44.1875 33.9844 37.6406 27.2188
Q31.1094 20.4531 19.1875 8.29688" id="DejaVuSans-32"/>
      </defs>
      <g transform="translate(433.65 580.1203125)scale(0.1 -0.1)">
       <use transform="translate(0.0 0.234375)" xlink:href="#DejaVuSans-31"/>
       <use transform="translate(63.623046875 0.234375)" xlink:href="#DejaVuSans-30"/>
       <use transform="translate(127.24609375 58.046875)scale(0.7)" xlink:href="#DejaVuSans-32"/>
      </g>
     </g>
    </g>
    <g id="xtick_4">
     <g id="line2d_8">
      <g>
       <use style="stroke:#000000;stroke-width:0.5;" x="610.2" xlink:href="#m93b0483c22" y="567.0"/>
      </g>
     </g>
     <g id="line2d_9">
      <g>
       <use style="stroke:#000000;stroke-width:0.5;" x="610.2" xlink:href="#m741efc42ff" y="64.8"/>
      </g>
     </g>
     <g id="text_4">
      <!-- $\mathdefault{10^{3}}$ -->
      <defs>
       <path d="
M40.5781 39.3125
Q47.6562 37.7969 51.625 33
Q55.6094 28.2188 55.6094 21.1875
Q55.6094 10.4062 48.1875 4.48438
Q40.7656 -1.42188 27.0938 -1.42188
Q22.5156 -1.42188 17.6562 -0.515625
Q12.7969 0.390625 7.625 2.20312
L7.625 11.7188
Q11.7188 9.32812 16.5938 8.10938
Q21.4844 6.89062 26.8125 6.89062
Q36.0781 6.89062 40.9375 10.5469
Q45.7969 14.2031 45.7969 21.1875
Q45.7969 27.6406 41.2812 31.2656
Q36.7656 34.9062 28.7188 34.9062
L20.2188 34.9062
L20.2188 43.0156
L29.1094 43.0156
Q36.375 43.0156 40.2344 45.9219
Q44.0938 48.8281 44.0938 54.2969
Q44.0938 59.9062 40.1094 62.9062
Q36.1406 65.9219 28.7188 65.9219
Q24.6562 65.9219 20.0156 65.0312
Q15.375 64.1562 9.8125 62.3125
L9.8125 71.0938
Q15.4375 72.6562 20.3438 73.4375
Q25.25 74.2188 29.5938 74.2188
Q40.8281 74.2188 47.3594 69.1094
Q53.9062 64.0156 53.9062 55.3281
Q53.9062 49.2656 50.4375 45.0938
Q46.9688 40.9219 40.5781 39.3125" id="DejaVuSans-33"/>
      </defs>
      <g transform="translate(601.05 580.1203125)scale(0.1 -0.1)">
       <use transform="translate(0.0 0.234375)" xlink:href="#DejaVuSans-31"/>
       <use transform="translate(63.623046875 0.234375)" xlink:href="#DejaVuSans-30"/>
       <use transform="translate(127.24609375 58.046875)scale(0.7)" xlink:href="#DejaVuSans-33"/>
      </g>
     </g>
    </g>
    <g id="xtick_5">
     <g id="line2d_10">
      <g>
       <use style="stroke:#000000;stroke-width:0.5;" x="777.6" xlink:href="#m93b0483c22" y="567.0"/>
      </g>
     </g>
     <g id="line2d_11">
      <g>
       <use style="stroke:#000000;stroke-width:0.5;" x="777.6" xlink:href="#m741efc42ff" y="64.8"/>
      </g>
     </g>
     <g id="text_5">
      <!-- $\mathdefault{10^{4}}$ -->
      <defs>
       <path d="
M37.7969 64.3125
L12.8906 25.3906
L37.7969 25.3906
z

M35.2031 72.9062
L47.6094 72.9062
L47.6094 25.3906
L58.0156 25.3906
L58.0156 17.1875
L47.6094 17.1875
L47.6094 0
L37.7969 0
L37.7969 17.1875
L4.89062 17.1875
L4.89062 26.7031
z
" id="DejaVuSans-34"/>
      </defs>
      <g transform="translate(768.45 580.0203125)scale(0.1 -0.1)">
       <use transform="translate(0.0 0.153125)" xlink:href="#DejaVuSans-31"/>
       <use transform="translate(63.623046875 0.153125)" xlink:href="#DejaVuSans-30"/>
       <use transform="translate(127.24609375 57.965625)scale(0.7)" xlink:href="#DejaVuSans-34"/>
      </g>
     </g>
    </g>
    <g id="xtick_6">
     <g id="line2d_12">
      <defs>
       <path d="
M0 0
L0 -2" id="m177f7580d0" style="stroke:#000000;stroke-width:0.5;"/>
      </defs>
      <g>
       <use style="stroke:#000000;stroke-width:0.5;" x="158.392421274" xlink:href="#m177f7580d0" y="567.0"/>
      </g>
     </g>
     <g id="line2d_13">
      <defs>
       <path d="
M0 0
L0 2" id="m5284c7e2a0" style="stroke:#000000;stroke-width:0.5;"/>
      </defs>
      <g>
       <use style="stroke:#000000;stroke-width:0.5;" x="158.392421274" xlink:href="#m5284c7e2a0" y="64.8"/>
      </g>
     </g>
    </g>
    <g id="xtick_7">
     <g id="line2d_14">
      <g>
       <use style="stroke:#000000;stroke-width:0.5;" x="187.87009804" xlink:href="#m177f7580d0" y="567.0"/>
      </g>
     </g>
     <g id="line2d_15">
      <g>
       <use style="stroke:#000000;stroke-width:0.5;" x="187.87009804" xlink:href="#m5284c7e2a0" y="64.8"/>
      </g>
     </g>
    </g>
    <g id="xtick_8">
     <g id="line2d_16">
      <g>
       <use style="stroke:#000000;stroke-width:0.5;" x="208.784842548" xlink:href="#m177f7580d0" y="567.0"/>
      </g>
     </g>
     <g id="line2d_17">
      <g>
       <use style="stroke:#000000;stroke-width:0.5;" x="208.784842548" xlink:href="#m5284c7e2a0" y="64.8"/>
      </g>
     </g>
    </g>
    <g id="xtick_9">
     <g id="line2d_18">
      <g>
       <use style="stroke:#000000;stroke-width:0.5;" x="225.007578726" xlink:href="#m177f7580d0" y="567.0"/>
      </g>
     </g>
     <g id="line2d_19">
      <g>
       <use style="stroke:#000000;stroke-width:0.5;" x="225.007578726" xlink:href="#m5284c7e2a0" y="64.8"/>
      </g>
     </g>
    </g>
    <g id="xtick_10">
     <g id="line2d_20">
      <g>
       <use style="stroke:#000000;stroke-width:0.5;" x="238.262519314" xlink:href="#m177f7580d0" y="567.0"/>
      </g>
     </g>
     <g id="line2d_21">
      <g>
       <use style="stroke:#000000;stroke-width:0.5;" x="238.262519314" xlink:href="#m5284c7e2a0" y="64.8"/>
      </g>
     </g>
    </g>
    <g id="xtick_11">
     <g id="line2d_22">
      <g>
       <use style="stroke:#000000;stroke-width:0.5;" x="249.469411898" xlink:href="#m177f7580d0" y="567.0"/>
      </g>
     </g>
     <g id="line2d_23">
      <g>
       <use style="stroke:#000000;stroke-width:0.5;" x="249.469411898" xlink:href="#m5284c7e2a0" y="64.8"/>
      </g>
     </g>
    </g>
    <g id="xtick_12">
     <g id="line2d_24">
      <g>
       <use style="stroke:#000000;stroke-width:0.5;" x="259.177263822" xlink:href="#m177f7580d0" y="567.0"/>
      </g>
     </g>
     <g id="line2d_25">
      <g>
       <use style="stroke:#000000;stroke-width:0.5;" x="259.177263822" xlink:href="#m5284c7e2a0" y="64.8"/>
      </g>
     </g>
    </g>
    <g id="xtick_13">
     <g id="line2d_26">
      <g>
       <use style="stroke:#000000;stroke-width:0.5;" x="267.74019608" xlink:href="#m177f7580d0" y="567.0"/>
      </g>
     </g>
     <g id="line2d_27">
      <g>
       <use style="stroke:#000000;stroke-width:0.5;" x="267.74019608" xlink:href="#m5284c7e2a0" y="64.8"/>
      </g>
     </g>
    </g>
    <g id="xtick_14">
     <g id="line2d_28">
      <g>
       <use style="stroke:#000000;stroke-width:0.5;" x="325.792421274" xlink:href="#m177f7580d0" y="567.0"/>
      </g>
     </g>
     <g id="line2d_29">
      <g>
       <use style="stroke:#000000;stroke-width:0.5;" x="325.792421274" xlink:href="#m5284c7e2a0" y="64.8"/>
      </g>
     </g>
    </g>
    <g id="xtick_15">
     <g id="line2d_30">
      <g>
       <use style="stroke:#000000;stroke-width:0.5;" x="355.27009804" xlink:href="#m177f7580d0" y="567.0"/>
      </g>
     </g>
     <g id="line2d_31">
      <g>
       <use style="stroke:#000000;stroke-width:0.5;" x="355.27009804" xlink:href="#m5284c7e2a0" y="64.8"/>
      </g>
     </g>
    </g>
    <g id="xtick_16">
     <g id="line2d_32">
      <g>
       <use style="stroke:#000000;stroke-width:0.5;" x="376.184842548" xlink:href="#m177f7580d0" y="567.0"/>
      </g>
     </g>
     <g id="line2d_33">
      <g>
       <use style="stroke:#000000;stroke-width:0.5;" x="376.184842548" xlink:href="#m5284c7e2a0" y="64.8"/>
      </g>
     </g>
    </g>
    <g id="xtick_17">
     <g id="line2d_34">
      <g>
       <use style="stroke:#000000;stroke-width:0.5;" x="392.407578726" xlink:href="#m177f7580d0" y="567.0"/>
      </g>
     </g>
     <g id="line2d_35">
      <g>
       <use style="stroke:#000000;stroke-width:0.5;" x="392.407578726" xlink:href="#m5284c7e2a0" y="64.8"/>
      </g>
     </g>
    </g>
    <g id="xtick_18">
     <g id="line2d_36">
      <g>
       <use style="stroke:#000000;stroke-width:0.5;" x="405.662519314" xlink:href="#m177f7580d0" y="567.0"/>
      </g>
     </g>
     <g id="line2d_37">
      <g>
       <use style="stroke:#000000;stroke-width:0.5;" x="405.662519314" xlink:href="#m5284c7e2a0" y="64.8"/>
      </g>
     </g>
    </g>
    <g id="xtick_19">
     <g id="line2d_38">
      <g>
       <use style="stroke:#000000;stroke-width:0.5;" x="416.869411898" xlink:href="#m177f7580d0" y="567.0"/>
      </g>
     </g>
     <g id="line2d_39">
      <g>
       <use style="stroke:#000000;stroke-width:0.5;" x="416.869411898" xlink:href="#m5284c7e2a0" y="64.8"/>
      </g>
     </g>
    </g>
    <g id="xtick_20">
     <g id="line2d_40">
      <g>
       <use style="stroke:#000000;stroke-width:0.5;" x="426.577263822" xlink:href="#m177f7580d0" y="567.0"/>
      </g>
     </g>
     <g id="line2d_41">
      <g>
       <use style="stroke:#000000;stroke-width:0.5;" x="426.577263822" xlink:href="#m5284c7e2a0" y="64.8"/>
      </g>
     </g>
    </g>
    <g id="xtick_21">
     <g id="line2d_42">
      <g>
       <use style="stroke:#000000;stroke-width:0.5;" x="435.14019608" xlink:href="#m177f7580d0" y="567.0"/>
      </g>
     </g>
     <g id="line2d_43">
      <g>
       <use style="stroke:#000000;stroke-width:0.5;" x="435.14019608" xlink:href="#m5284c7e2a0" y="64.8"/>
      </g>
     </g>
    </g>
    <g id="xtick_22">
     <g id="line2d_44">
      <g>
       <use style="stroke:#000000;stroke-width:0.5;" x="493.192421274" xlink:href="#m177f7580d0" y="567.0"/>
      </g>
     </g>
     <g id="line2d_45">
      <g>
       <use style="stroke:#000000;stroke-width:0.5;" x="493.192421274" xlink:href="#m5284c7e2a0" y="64.8"/>
      </g>
     </g>
    </g>
    <g id="xtick_23">
     <g id="line2d_46">
      <g>
       <use style="stroke:#000000;stroke-width:0.5;" x="522.67009804" xlink:href="#m177f7580d0" y="567.0"/>
      </g>
     </g>
     <g id="line2d_47">
      <g>
       <use style="stroke:#000000;stroke-width:0.5;" x="522.67009804" xlink:href="#m5284c7e2a0" y="64.8"/>
      </g>
     </g>
    </g>
    <g id="xtick_24">
     <g id="line2d_48">
      <g>
       <use style="stroke:#000000;stroke-width:0.5;" x="543.584842548" xlink:href="#m177f7580d0" y="567.0"/>
      </g>
     </g>
     <g id="line2d_49">
      <g>
       <use style="stroke:#000000;stroke-width:0.5;" x="543.584842548" xlink:href="#m5284c7e2a0" y="64.8"/>
      </g>
     </g>
    </g>
    <g id="xtick_25">
     <g id="line2d_50">
      <g>
       <use style="stroke:#000000;stroke-width:0.5;" x="559.807578726" xlink:href="#m177f7580d0" y="567.0"/>
      </g>
     </g>
     <g id="line2d_51">
      <g>
       <use style="stroke:#000000;stroke-width:0.5;" x="559.807578726" xlink:href="#m5284c7e2a0" y="64.8"/>
      </g>
     </g>
    </g>
    <g id="xtick_26">
     <g id="line2d_52">
      <g>
       <use style="stroke:#000000;stroke-width:0.5;" x="573.062519314" xlink:href="#m177f7580d0" y="567.0"/>
      </g>
     </g>
     <g id="line2d_53">
      <g>
       <use style="stroke:#000000;stroke-width:0.5;" x="573.062519314" xlink:href="#m5284c7e2a0" y="64.8"/>
      </g>
     </g>
    </g>
    <g id="xtick_27">
     <g id="line2d_54">
      <g>
       <use style="stroke:#000000;stroke-width:0.5;" x="584.269411898" xlink:href="#m177f7580d0" y="567.0"/>
      </g>
     </g>
     <g id="line2d_55">
      <g>
       <use style="stroke:#000000;stroke-width:0.5;" x="584.269411898" xlink:href="#m5284c7e2a0" y="64.8"/>
      </g>
     </g>
    </g>
    <g id="xtick_28">
     <g id="line2d_56">
      <g>
       <use style="stroke:#000000;stroke-width:0.5;" x="593.977263822" xlink:href="#m177f7580d0" y="567.0"/>
      </g>
     </g>
     <g id="line2d_57">
      <g>
       <use style="stroke:#000000;stroke-width:0.5;" x="593.977263822" xlink:href="#m5284c7e2a0" y="64.8"/>
      </g>
     </g>
    </g>
    <g id="xtick_29">
     <g id="line2d_58">
      <g>
       <use style="stroke:#000000;stroke-width:0.5;" x="602.54019608" xlink:href="#m177f7580d0" y="567.0"/>
      </g>
     </g>
     <g id="line2d_59">
      <g>
       <use style="stroke:#000000;stroke-width:0.5;" x="602.54019608" xlink:href="#m5284c7e2a0" y="64.8"/>
      </g>
     </g>
    </g>
    <g id="xtick_30">
     <g id="line2d_60">
      <g>
       <use style="stroke:#000000;stroke-width:0.5;" x="660.592421274" xlink:href="#m177f7580d0" y="567.0"/>
      </g>
     </g>
     <g id="line2d_61">
      <g>
       <use style="stroke:#000000;stroke-width:0.5;" x="660.592421274" xlink:href="#m5284c7e2a0" y="64.8"/>
      </g>
     </g>
    </g>
    <g id="xtick_31">
     <g id="line2d_62">
      <g>
       <use style="stroke:#000000;stroke-width:0.5;" x="690.07009804" xlink:href="#m177f7580d0" y="567.0"/>
      </g>
     </g>
     <g id="line2d_63">
      <g>
       <use style="stroke:#000000;stroke-width:0.5;" x="690.07009804" xlink:href="#m5284c7e2a0" y="64.8"/>
      </g>
     </g>
    </g>
    <g id="xtick_32">
     <g id="line2d_64">
      <g>
       <use style="stroke:#000000;stroke-width:0.5;" x="710.984842548" xlink:href="#m177f7580d0" y="567.0"/>
      </g>
     </g>
     <g id="line2d_65">
      <g>
       <use style="stroke:#000000;stroke-width:0.5;" x="710.984842548" xlink:href="#m5284c7e2a0" y="64.8"/>
      </g>
     </g>
    </g>
    <g id="xtick_33">
     <g id="line2d_66">
      <g>
       <use style="stroke:#000000;stroke-width:0.5;" x="727.207578726" xlink:href="#m177f7580d0" y="567.0"/>
      </g>
     </g>
     <g id="line2d_67">
      <g>
       <use style="stroke:#000000;stroke-width:0.5;" x="727.207578726" xlink:href="#m5284c7e2a0" y="64.8"/>
      </g>
     </g>
    </g>
    <g id="xtick_34">
     <g id="line2d_68">
      <g>
       <use style="stroke:#000000;stroke-width:0.5;" x="740.462519314" xlink:href="#m177f7580d0" y="567.0"/>
      </g>
     </g>
     <g id="line2d_69">
      <g>
       <use style="stroke:#000000;stroke-width:0.5;" x="740.462519314" xlink:href="#m5284c7e2a0" y="64.8"/>
      </g>
     </g>
    </g>
    <g id="xtick_35">
     <g id="line2d_70">
      <g>
       <use style="stroke:#000000;stroke-width:0.5;" x="751.669411898" xlink:href="#m177f7580d0" y="567.0"/>
      </g>
     </g>
     <g id="line2d_71">
      <g>
       <use style="stroke:#000000;stroke-width:0.5;" x="751.669411898" xlink:href="#m5284c7e2a0" y="64.8"/>
      </g>
     </g>
    </g>
    <g id="xtick_36">
     <g id="line2d_72">
      <g>
       <use style="stroke:#000000;stroke-width:0.5;" x="761.377263822" xlink:href="#m177f7580d0" y="567.0"/>
      </g>
     </g>
     <g id="line2d_73">
      <g>
       <use style="stroke:#000000;stroke-width:0.5;" x="761.377263822" xlink:href="#m5284c7e2a0" y="64.8"/>
      </g>
     </g>
    </g>
    <g id="xtick_37">
     <g id="line2d_74">
      <g>
       <use style="stroke:#000000;stroke-width:0.5;" x="769.94019608" xlink:href="#m177f7580d0" y="567.0"/>
      </g>
     </g>
     <g id="line2d_75">
      <g>
       <use style="stroke:#000000;stroke-width:0.5;" x="769.94019608" xlink:href="#m5284c7e2a0" y="64.8"/>
      </g>
     </g>
    </g>
    <g id="text_6">
     <!-- Degree -->
     <defs>
      <path d="
M19.6719 64.7969
L19.6719 8.10938
L31.5938 8.10938
Q46.6875 8.10938 53.6875 14.9375
Q60.6875 21.7812 60.6875 36.5312
Q60.6875 51.1719 53.6875 57.9844
Q46.6875 64.7969 31.5938 64.7969
z

M9.8125 72.9062
L30.0781 72.9062
Q51.2656 72.9062 61.1719 64.0938
Q71.0938 55.2812 71.0938 36.5312
Q71.0938 17.6719 61.125 8.82812
Q51.1719 0 30.0781 0
L9.8125 0
z
" id="DejaVuSans-44"/>
      <path d="
M45.4062 27.9844
Q45.4062 37.75 41.375 43.1094
Q37.3594 48.4844 30.0781 48.4844
Q22.8594 48.4844 18.8281 43.1094
Q14.7969 37.75 14.7969 27.9844
Q14.7969 18.2656 18.8281 12.8906
Q22.8594 7.51562 30.0781 7.51562
Q37.3594 7.51562 41.375 12.8906
Q45.4062 18.2656 45.4062 27.9844
M54.3906 6.78125
Q54.3906 -7.17188 48.1875 -13.9844
Q42 -20.7969 29.2031 -20.7969
Q24.4688 -20.7969 20.2656 -20.0938
Q16.0625 -19.3906 12.1094 -17.9219
L12.1094 -9.1875
Q16.0625 -11.3281 19.9219 -12.3438
Q23.7812 -13.375 27.7812 -13.375
Q36.625 -13.375 41.0156 -8.76562
Q45.4062 -4.15625 45.4062 5.17188
L45.4062 9.625
Q42.625 4.78125 38.2812 2.39062
Q33.9375 0 27.875 0
Q17.8281 0 11.6719 7.65625
Q5.51562 15.3281 5.51562 27.9844
Q5.51562 40.6719 11.6719 48.3281
Q17.8281 56 27.875 56
Q33.9375 56 38.2812 53.6094
Q42.625 51.2188 45.4062 46.3906
L45.4062 54.6875
L54.3906 54.6875
z
" id="DejaVuSans-67"/>
      <path d="
M56.2031 29.5938
L56.2031 25.2031
L14.8906 25.2031
Q15.4844 15.9219 20.4844 11.0625
Q25.4844 6.20312 34.4219 6.20312
Q39.5938 6.20312 44.4531 7.46875
Q49.3125 8.73438 54.1094 11.2812
L54.1094 2.78125
Q49.2656 0.734375 44.1875 -0.34375
Q39.1094 -1.42188 33.8906 -1.42188
Q20.7969 -1.42188 13.1562 6.1875
Q5.51562 13.8125 5.51562 26.8125
Q5.51562 40.2344 12.7656 48.1094
Q20.0156 56 32.3281 56
Q43.3594 56 49.7812 48.8906
Q56.2031 41.7969 56.2031 29.5938
M47.2188 32.2344
Q47.125 39.5938 43.0938 43.9844
Q39.0625 48.3906 32.4219 48.3906
Q24.9062 48.3906 20.3906 44.1406
Q15.875 39.8906 15.1875 32.1719
z
" id="DejaVuSans-65"/>
      <path d="
M41.1094 46.2969
Q39.5938 47.1719 37.8125 47.5781
Q36.0312 48 33.8906 48
Q26.2656 48 22.1875 43.0469
Q18.1094 38.0938 18.1094 28.8125
L18.1094 0
L9.07812 0
L9.07812 54.6875
L18.1094 54.6875
L18.1094 46.1875
Q20.9531 51.1719 25.4844 53.5781
Q30.0312 56 36.5312 56
Q37.4531 56 38.5781 55.875
Q39.7031 55.7656 41.0625 55.5156
z
" id="DejaVuSans-72"/>
     </defs>
     <g transform="translate(425.36015625 594.7984375)scale(0.1 -0.1)">
      <use xlink:href="#DejaVuSans-44"/>
      <use x="77.001953125" xlink:href="#DejaVuSans-65"/>
      <use x="138.525390625" xlink:href="#DejaVuSans-67"/>
      <use x="202.001953125" xlink:href="#DejaVuSans-72"/>
      <use x="240.865234375" xlink:href="#DejaVuSans-65"/>
      <use x="302.388671875" xlink:href="#DejaVuSans-65"/>
     </g>
    </g>
   </g>
   <g id="matplotlib.axis_2">
    <g id="ytick_1">
     <g id="line2d_76">
      <defs>
       <path d="
M0 0
L4 0" id="m728421d6d4" style="stroke:#000000;stroke-width:0.5;"/>
      </defs>
      <g>
       <use style="stroke:#000000;stroke-width:0.5;" x="108.0" xlink:href="#m728421d6d4" y="567.0"/>
      </g>
     </g>
     <g id="line2d_77">
      <defs>
       <path d="
M0 0
L-4 0" id="mcb0005524f" style="stroke:#000000;stroke-width:0.5;"/>
      </defs>
      <g>
       <use style="stroke:#000000;stroke-width:0.5;" x="777.6" xlink:href="#mcb0005524f" y="567.0"/>
      </g>
     </g>
     <g id="text_7">
      <!-- $\mathdefault{10^{0}}$ -->
      <g transform="translate(85.7 570.5203125)scale(0.1 -0.1)">
       <use transform="translate(0.0 0.234375)" xlink:href="#DejaVuSans-31"/>
       <use transform="translate(63.623046875 0.234375)" xlink:href="#DejaVuSans-30"/>
       <use transform="translate(127.24609375 58.046875)scale(0.7)" xlink:href="#DejaVuSans-30"/>
      </g>
     </g>
    </g>
    <g id="ytick_2">
     <g id="line2d_78">
      <g>
       <use style="stroke:#000000;stroke-width:0.5;" x="108.0" xlink:href="#m728421d6d4" y="399.6"/>
      </g>
     </g>
     <g id="line2d_79">
      <g>
       <use style="stroke:#000000;stroke-width:0.5;" x="777.6" xlink:href="#mcb0005524f" y="399.6"/>
      </g>
     </g>
     <g id="text_8">
      <!-- $\mathdefault{10^{1}}$ -->
      <g transform="translate(85.7 403.0703125)scale(0.1 -0.1)">
       <use transform="translate(0.0 0.153125)" xlink:href="#DejaVuSans-31"/>
       <use transform="translate(63.623046875 0.153125)" xlink:href="#DejaVuSans-30"/>
       <use transform="translate(127.24609375 57.965625)scale(0.7)" xlink:href="#DejaVuSans-31"/>
      </g>
     </g>
    </g>
    <g id="ytick_3">
     <g id="line2d_80">
      <g>
       <use style="stroke:#000000;stroke-width:0.5;" x="108.0" xlink:href="#m728421d6d4" y="232.2"/>
      </g>
     </g>
     <g id="line2d_81">
      <g>
       <use style="stroke:#000000;stroke-width:0.5;" x="777.6" xlink:href="#mcb0005524f" y="232.2"/>
      </g>
     </g>
     <g id="text_9">
      <!-- $\mathdefault{10^{2}}$ -->
      <g transform="translate(85.7 235.7203125)scale(0.1 -0.1)">
       <use transform="translate(0.0 0.234375)" xlink:href="#DejaVuSans-31"/>
       <use transform="translate(63.623046875 0.234375)" xlink:href="#DejaVuSans-30"/>
       <use transform="translate(127.24609375 58.046875)scale(0.7)" xlink:href="#DejaVuSans-32"/>
      </g>
     </g>
    </g>
    <g id="ytick_4">
     <g id="line2d_82">
      <g>
       <use style="stroke:#000000;stroke-width:0.5;" x="108.0" xlink:href="#m728421d6d4" y="64.8"/>
      </g>
     </g>
     <g id="line2d_83">
      <g>
       <use style="stroke:#000000;stroke-width:0.5;" x="777.6" xlink:href="#mcb0005524f" y="64.8"/>
      </g>
     </g>
     <g id="text_10">
      <!-- $\mathdefault{10^{3}}$ -->
      <g transform="translate(85.7 68.3203125)scale(0.1 -0.1)">
       <use transform="translate(0.0 0.234375)" xlink:href="#DejaVuSans-31"/>
       <use transform="translate(63.623046875 0.234375)" xlink:href="#DejaVuSans-30"/>
       <use transform="translate(127.24609375 58.046875)scale(0.7)" xlink:href="#DejaVuSans-33"/>
      </g>
     </g>
    </g>
    <g id="ytick_5">
     <g id="line2d_84">
      <defs>
       <path d="
M0 0
L2 0" id="mf0c55a9a47" style="stroke:#000000;stroke-width:0.5;"/>
      </defs>
      <g>
       <use style="stroke:#000000;stroke-width:0.5;" x="108.0" xlink:href="#mf0c55a9a47" y="516.607578726"/>
      </g>
     </g>
     <g id="line2d_85">
      <defs>
       <path d="
M0 0
L-2 0" id="ma4f294b3af" style="stroke:#000000;stroke-width:0.5;"/>
      </defs>
      <g>
       <use style="stroke:#000000;stroke-width:0.5;" x="777.6" xlink:href="#ma4f294b3af" y="516.607578726"/>
      </g>
     </g>
    </g>
    <g id="ytick_6">
     <g id="line2d_86">
      <g>
       <use style="stroke:#000000;stroke-width:0.5;" x="108.0" xlink:href="#mf0c55a9a47" y="487.12990196"/>
      </g>
     </g>
     <g id="line2d_87">
      <g>
       <use style="stroke:#000000;stroke-width:0.5;" x="777.6" xlink:href="#ma4f294b3af" y="487.12990196"/>
      </g>
     </g>
    </g>
    <g id="ytick_7">
     <g id="line2d_88">
      <g>
       <use style="stroke:#000000;stroke-width:0.5;" x="108.0" xlink:href="#mf0c55a9a47" y="466.215157452"/>
      </g>
     </g>
     <g id="line2d_89">
      <g>
       <use style="stroke:#000000;stroke-width:0.5;" x="777.6" xlink:href="#ma4f294b3af" y="466.215157452"/>
      </g>
     </g>
    </g>
    <g id="ytick_8">
     <g id="line2d_90">
      <g>
       <use style="stroke:#000000;stroke-width:0.5;" x="108.0" xlink:href="#mf0c55a9a47" y="449.992421274"/>
      </g>
     </g>
     <g id="line2d_91">
      <g>
       <use style="stroke:#000000;stroke-width:0.5;" x="777.6" xlink:href="#ma4f294b3af" y="449.992421274"/>
      </g>
     </g>
    </g>
    <g id="ytick_9">
     <g id="line2d_92">
      <g>
       <use style="stroke:#000000;stroke-width:0.5;" x="108.0" xlink:href="#mf0c55a9a47" y="436.737480686"/>
      </g>
     </g>
     <g id="line2d_93">
      <g>
       <use style="stroke:#000000;stroke-width:0.5;" x="777.6" xlink:href="#ma4f294b3af" y="436.737480686"/>
      </g>
     </g>
    </g>
    <g id="ytick_10">
     <g id="line2d_94">
      <g>
       <use style="stroke:#000000;stroke-width:0.5;" x="108.0" xlink:href="#mf0c55a9a47" y="425.530588102"/>
      </g>
     </g>
     <g id="line2d_95">
      <g>
       <use style="stroke:#000000;stroke-width:0.5;" x="777.6" xlink:href="#ma4f294b3af" y="425.530588102"/>
      </g>
     </g>
    </g>
    <g id="ytick_11">
     <g id="line2d_96">
      <g>
       <use style="stroke:#000000;stroke-width:0.5;" x="108.0" xlink:href="#mf0c55a9a47" y="415.822736178"/>
      </g>
     </g>
     <g id="line2d_97">
      <g>
       <use style="stroke:#000000;stroke-width:0.5;" x="777.6" xlink:href="#ma4f294b3af" y="415.822736178"/>
      </g>
     </g>
    </g>
    <g id="ytick_12">
     <g id="line2d_98">
      <g>
       <use style="stroke:#000000;stroke-width:0.5;" x="108.0" xlink:href="#mf0c55a9a47" y="407.25980392"/>
      </g>
     </g>
     <g id="line2d_99">
      <g>
       <use style="stroke:#000000;stroke-width:0.5;" x="777.6" xlink:href="#ma4f294b3af" y="407.25980392"/>
      </g>
     </g>
    </g>
    <g id="ytick_13">
     <g id="line2d_100">
      <g>
       <use style="stroke:#000000;stroke-width:0.5;" x="108.0" xlink:href="#mf0c55a9a47" y="349.207578726"/>
      </g>
     </g>
     <g id="line2d_101">
      <g>
       <use style="stroke:#000000;stroke-width:0.5;" x="777.6" xlink:href="#ma4f294b3af" y="349.207578726"/>
      </g>
     </g>
    </g>
    <g id="ytick_14">
     <g id="line2d_102">
      <g>
       <use style="stroke:#000000;stroke-width:0.5;" x="108.0" xlink:href="#mf0c55a9a47" y="319.72990196"/>
      </g>
     </g>
     <g id="line2d_103">
      <g>
       <use style="stroke:#000000;stroke-width:0.5;" x="777.6" xlink:href="#ma4f294b3af" y="319.72990196"/>
      </g>
     </g>
    </g>
    <g id="ytick_15">
     <g id="line2d_104">
      <g>
       <use style="stroke:#000000;stroke-width:0.5;" x="108.0" xlink:href="#mf0c55a9a47" y="298.815157452"/>
      </g>
     </g>
     <g id="line2d_105">
      <g>
       <use style="stroke:#000000;stroke-width:0.5;" x="777.6" xlink:href="#ma4f294b3af" y="298.815157452"/>
      </g>
     </g>
    </g>
    <g id="ytick_16">
     <g id="line2d_106">
      <g>
       <use style="stroke:#000000;stroke-width:0.5;" x="108.0" xlink:href="#mf0c55a9a47" y="282.592421274"/>
      </g>
     </g>
     <g id="line2d_107">
      <g>
       <use style="stroke:#000000;stroke-width:0.5;" x="777.6" xlink:href="#ma4f294b3af" y="282.592421274"/>
      </g>
     </g>
    </g>
    <g id="ytick_17">
     <g id="line2d_108">
      <g>
       <use style="stroke:#000000;stroke-width:0.5;" x="108.0" xlink:href="#mf0c55a9a47" y="269.337480686"/>
      </g>
     </g>
     <g id="line2d_109">
      <g>
       <use style="stroke:#000000;stroke-width:0.5;" x="777.6" xlink:href="#ma4f294b3af" y="269.337480686"/>
      </g>
     </g>
    </g>
    <g id="ytick_18">
     <g id="line2d_110">
      <g>
       <use style="stroke:#000000;stroke-width:0.5;" x="108.0" xlink:href="#mf0c55a9a47" y="258.130588102"/>
      </g>
     </g>
     <g id="line2d_111">
      <g>
       <use style="stroke:#000000;stroke-width:0.5;" x="777.6" xlink:href="#ma4f294b3af" y="258.130588102"/>
      </g>
     </g>
    </g>
    <g id="ytick_19">
     <g id="line2d_112">
      <g>
       <use style="stroke:#000000;stroke-width:0.5;" x="108.0" xlink:href="#mf0c55a9a47" y="248.422736178"/>
      </g>
     </g>
     <g id="line2d_113">
      <g>
       <use style="stroke:#000000;stroke-width:0.5;" x="777.6" xlink:href="#ma4f294b3af" y="248.422736178"/>
      </g>
     </g>
    </g>
    <g id="ytick_20">
     <g id="line2d_114">
      <g>
       <use style="stroke:#000000;stroke-width:0.5;" x="108.0" xlink:href="#mf0c55a9a47" y="239.85980392"/>
      </g>
     </g>
     <g id="line2d_115">
      <g>
       <use style="stroke:#000000;stroke-width:0.5;" x="777.6" xlink:href="#ma4f294b3af" y="239.85980392"/>
      </g>
     </g>
    </g>
    <g id="ytick_21">
     <g id="line2d_116">
      <g>
       <use style="stroke:#000000;stroke-width:0.5;" x="108.0" xlink:href="#mf0c55a9a47" y="181.807578726"/>
      </g>
     </g>
     <g id="line2d_117">
      <g>
       <use style="stroke:#000000;stroke-width:0.5;" x="777.6" xlink:href="#ma4f294b3af" y="181.807578726"/>
      </g>
     </g>
    </g>
    <g id="ytick_22">
     <g id="line2d_118">
      <g>
       <use style="stroke:#000000;stroke-width:0.5;" x="108.0" xlink:href="#mf0c55a9a47" y="152.32990196"/>
      </g>
     </g>
     <g id="line2d_119">
      <g>
       <use style="stroke:#000000;stroke-width:0.5;" x="777.6" xlink:href="#ma4f294b3af" y="152.32990196"/>
      </g>
     </g>
    </g>
    <g id="ytick_23">
     <g id="line2d_120">
      <g>
       <use style="stroke:#000000;stroke-width:0.5;" x="108.0" xlink:href="#mf0c55a9a47" y="131.415157452"/>
      </g>
     </g>
     <g id="line2d_121">
      <g>
       <use style="stroke:#000000;stroke-width:0.5;" x="777.6" xlink:href="#ma4f294b3af" y="131.415157452"/>
      </g>
     </g>
    </g>
    <g id="ytick_24">
     <g id="line2d_122">
      <g>
       <use style="stroke:#000000;stroke-width:0.5;" x="108.0" xlink:href="#mf0c55a9a47" y="115.192421274"/>
      </g>
     </g>
     <g id="line2d_123">
      <g>
       <use style="stroke:#000000;stroke-width:0.5;" x="777.6" xlink:href="#ma4f294b3af" y="115.192421274"/>
      </g>
     </g>
    </g>
    <g id="ytick_25">
     <g id="line2d_124">
      <g>
       <use style="stroke:#000000;stroke-width:0.5;" x="108.0" xlink:href="#mf0c55a9a47" y="101.937480686"/>
      </g>
     </g>
     <g id="line2d_125">
      <g>
       <use style="stroke:#000000;stroke-width:0.5;" x="777.6" xlink:href="#ma4f294b3af" y="101.937480686"/>
      </g>
     </g>
    </g>
    <g id="ytick_26">
     <g id="line2d_126">
      <g>
       <use style="stroke:#000000;stroke-width:0.5;" x="108.0" xlink:href="#mf0c55a9a47" y="90.7305881016"/>
      </g>
     </g>
     <g id="line2d_127">
      <g>
       <use style="stroke:#000000;stroke-width:0.5;" x="777.6" xlink:href="#ma4f294b3af" y="90.7305881016"/>
      </g>
     </g>
    </g>
    <g id="ytick_27">
     <g id="line2d_128">
      <g>
       <use style="stroke:#000000;stroke-width:0.5;" x="108.0" xlink:href="#mf0c55a9a47" y="81.0227361775"/>
      </g>
     </g>
     <g id="line2d_129">
      <g>
       <use style="stroke:#000000;stroke-width:0.5;" x="777.6" xlink:href="#ma4f294b3af" y="81.0227361775"/>
      </g>
     </g>
    </g>
    <g id="ytick_28">
     <g id="line2d_130">
      <g>
       <use style="stroke:#000000;stroke-width:0.5;" x="108.0" xlink:href="#mf0c55a9a47" y="72.4598039199"/>
      </g>
     </g>
     <g id="line2d_131">
      <g>
       <use style="stroke:#000000;stroke-width:0.5;" x="777.6" xlink:href="#ma4f294b3af" y="72.4598039199"/>
      </g>
     </g>
    </g>
    <g id="text_11">
     <!-- Frequency -->
     <defs>
      <path d="
M54.8906 33.0156
L54.8906 0
L45.9062 0
L45.9062 32.7188
Q45.9062 40.4844 42.875 44.3281
Q39.8438 48.1875 33.7969 48.1875
Q26.5156 48.1875 22.3125 43.5469
Q18.1094 38.9219 18.1094 30.9062
L18.1094 0
L9.07812 0
L9.07812 54.6875
L18.1094 54.6875
L18.1094 46.1875
Q21.3438 51.125 25.7031 53.5625
Q30.0781 56 35.7969 56
Q45.2188 56 50.0469 50.1719
Q54.8906 44.3438 54.8906 33.0156" id="DejaVuSans-6e"/>
      <path d="
M9.8125 72.9062
L51.7031 72.9062
L51.7031 64.5938
L19.6719 64.5938
L19.6719 43.1094
L48.5781 43.1094
L48.5781 34.8125
L19.6719 34.8125
L19.6719 0
L9.8125 0
z
" id="DejaVuSans-46"/>
      <path d="
M32.1719 -5.07812
Q28.375 -14.8438 24.75 -17.8125
Q21.1406 -20.7969 15.0938 -20.7969
L7.90625 -20.7969
L7.90625 -13.2812
L13.1875 -13.2812
Q16.8906 -13.2812 18.9375 -11.5156
Q21 -9.76562 23.4844 -3.21875
L25.0938 0.875
L2.98438 54.6875
L12.5 54.6875
L29.5938 11.9219
L46.6875 54.6875
L56.2031 54.6875
z
" id="DejaVuSans-79"/>
      <path d="
M8.5 21.5781
L8.5 54.6875
L17.4844 54.6875
L17.4844 21.9219
Q17.4844 14.1562 20.5 10.2656
Q23.5312 6.39062 29.5938 6.39062
Q36.8594 6.39062 41.0781 11.0312
Q45.3125 15.6719 45.3125 23.6875
L45.3125 54.6875
L54.2969 54.6875
L54.2969 0
L45.3125 0
L45.3125 8.40625
Q42.0469 3.42188 37.7188 1
Q33.4062 -1.42188 27.6875 -1.42188
Q18.2656 -1.42188 13.375 4.4375
Q8.5 10.2969 8.5 21.5781
M31.1094 56
z
" id="DejaVuSans-75"/>
      <path d="
M14.7969 27.2969
Q14.7969 17.3906 18.875 11.75
Q22.9531 6.10938 30.0781 6.10938
Q37.2031 6.10938 41.2969 11.75
Q45.4062 17.3906 45.4062 27.2969
Q45.4062 37.2031 41.2969 42.8438
Q37.2031 48.4844 30.0781 48.4844
Q22.9531 48.4844 18.875 42.8438
Q14.7969 37.2031 14.7969 27.2969
M45.4062 8.20312
Q42.5781 3.32812 38.25 0.953125
Q33.9375 -1.42188 27.875 -1.42188
Q17.9688 -1.42188 11.7344 6.48438
Q5.51562 14.4062 5.51562 27.2969
Q5.51562 40.1875 11.7344 48.0938
Q17.9688 56 27.875 56
Q33.9375 56 38.25 53.625
Q42.5781 51.2656 45.4062 46.3906
L45.4062 54.6875
L54.3906 54.6875
L54.3906 -20.7969
L45.4062 -20.7969
z
" id="DejaVuSans-71"/>
      <path d="
M48.7812 52.5938
L48.7812 44.1875
Q44.9688 46.2969 41.1406 47.3438
Q37.3125 48.3906 33.4062 48.3906
Q24.6562 48.3906 19.8125 42.8438
Q14.9844 37.3125 14.9844 27.2969
Q14.9844 17.2812 19.8125 11.7344
Q24.6562 6.20312 33.4062 6.20312
Q37.3125 6.20312 41.1406 7.25
Q44.9688 8.29688 48.7812 10.4062
L48.7812 2.09375
Q45.0156 0.34375 40.9844 -0.53125
Q36.9688 -1.42188 32.4219 -1.42188
Q20.0625 -1.42188 12.7812 6.34375
Q5.51562 14.1094 5.51562 27.2969
Q5.51562 40.6719 12.8594 48.3281
Q20.2188 56 33.0156 56
Q37.1562 56 41.1094 55.1406
Q45.0625 54.2969 48.7812 52.5938" id="DejaVuSans-63"/>
     </defs>
     <g transform="translate(78.6203125 341.08984375)rotate(-90.0)scale(0.1 -0.1)">
      <use xlink:href="#DejaVuSans-46"/>
      <use x="50.26953125" xlink:href="#DejaVuSans-72"/>
      <use x="89.1328125" xlink:href="#DejaVuSans-65"/>
      <use x="150.65625" xlink:href="#DejaVuSans-71"/>
      <use x="214.1328125" xlink:href="#DejaVuSans-75"/>
      <use x="277.51171875" xlink:href="#DejaVuSans-65"/>
      <use x="339.03515625" xlink:href="#DejaVuSans-6e"/>
      <use x="402.4140625" xlink:href="#DejaVuSans-63"/>
      <use x="457.39453125" xlink:href="#DejaVuSans-79"/>
     </g>
    </g>
   </g>
   <g id="text_12">
    <!-- Degree distribution -->
    <defs>
     <path d="
M30.6094 48.3906
Q23.3906 48.3906 19.1875 42.75
Q14.9844 37.1094 14.9844 27.2969
Q14.9844 17.4844 19.1562 11.8438
Q23.3438 6.20312 30.6094 6.20312
Q37.7969 6.20312 41.9844 11.8594
Q46.1875 17.5312 46.1875 27.2969
Q46.1875 37.0156 41.9844 42.7031
Q37.7969 48.3906 30.6094 48.3906
M30.6094 56
Q42.3281 56 49.0156 48.375
Q55.7188 40.7656 55.7188 27.2969
Q55.7188 13.875 49.0156 6.21875
Q42.3281 -1.42188 30.6094 -1.42188
Q18.8438 -1.42188 12.1719 6.21875
Q5.51562 13.875 5.51562 27.2969
Q5.51562 40.7656 12.1719 48.375
Q18.8438 56 30.6094 56" id="DejaVuSans-6f"/>
     <path id="DejaVuSans-20"/>
     <path d="
M9.42188 54.6875
L18.4062 54.6875
L18.4062 0
L9.42188 0
z

M9.42188 75.9844
L18.4062 75.9844
L18.4062 64.5938
L9.42188 64.5938
z
" id="DejaVuSans-69"/>
     <path d="
M18.3125 70.2188
L18.3125 54.6875
L36.8125 54.6875
L36.8125 47.7031
L18.3125 47.7031
L18.3125 18.0156
Q18.3125 11.3281 20.1406 9.42188
Q21.9688 7.51562 27.5938 7.51562
L36.8125 7.51562
L36.8125 0
L27.5938 0
Q17.1875 0 13.2344 3.875
Q9.28125 7.76562 9.28125 18.0156
L9.28125 47.7031
L2.6875 47.7031
L2.6875 54.6875
L9.28125 54.6875
L9.28125 70.2188
z
" id="DejaVuSans-74"/>
     <path d="
M45.4062 46.3906
L45.4062 75.9844
L54.3906 75.9844
L54.3906 0
L45.4062 0
L45.4062 8.20312
Q42.5781 3.32812 38.25 0.953125
Q33.9375 -1.42188 27.875 -1.42188
Q17.9688 -1.42188 11.7344 6.48438
Q5.51562 14.4062 5.51562 27.2969
Q5.51562 40.1875 11.7344 48.0938
Q17.9688 56 27.875 56
Q33.9375 56 38.25 53.625
Q42.5781 51.2656 45.4062 46.3906
M14.7969 27.2969
Q14.7969 17.3906 18.875 11.75
Q22.9531 6.10938 30.0781 6.10938
Q37.2031 6.10938 41.2969 11.75
Q45.4062 17.3906 45.4062 27.2969
Q45.4062 37.2031 41.2969 42.8438
Q37.2031 48.4844 30.0781 48.4844
Q22.9531 48.4844 18.875 42.8438
Q14.7969 37.2031 14.7969 27.2969" id="DejaVuSans-64"/>
     <path d="
M48.6875 27.2969
Q48.6875 37.2031 44.6094 42.8438
Q40.5312 48.4844 33.4062 48.4844
Q26.2656 48.4844 22.1875 42.8438
Q18.1094 37.2031 18.1094 27.2969
Q18.1094 17.3906 22.1875 11.75
Q26.2656 6.10938 33.4062 6.10938
Q40.5312 6.10938 44.6094 11.75
Q48.6875 17.3906 48.6875 27.2969
M18.1094 46.3906
Q20.9531 51.2656 25.2656 53.625
Q29.5938 56 35.5938 56
Q45.5625 56 51.7812 48.0938
Q58.0156 40.1875 58.0156 27.2969
Q58.0156 14.4062 51.7812 6.48438
Q45.5625 -1.42188 35.5938 -1.42188
Q29.5938 -1.42188 25.2656 0.953125
Q20.9531 3.32812 18.1094 8.20312
L18.1094 0
L9.07812 0
L9.07812 75.9844
L18.1094 75.9844
z
" id="DejaVuSans-62"/>
     <path d="
M44.2812 53.0781
L44.2812 44.5781
Q40.4844 46.5312 36.375 47.5
Q32.2812 48.4844 27.875 48.4844
Q21.1875 48.4844 17.8438 46.4375
Q14.5 44.3906 14.5 40.2812
Q14.5 37.1562 16.8906 35.375
Q19.2812 33.5938 26.5156 31.9844
L29.5938 31.2969
Q39.1562 29.25 43.1875 25.5156
Q47.2188 21.7812 47.2188 15.0938
Q47.2188 7.46875 41.1875 3.01562
Q35.1562 -1.42188 24.6094 -1.42188
Q20.2188 -1.42188 15.4531 -0.5625
Q10.6875 0.296875 5.42188 2
L5.42188 11.2812
Q10.4062 8.6875 15.2344 7.39062
Q20.0625 6.10938 24.8125 6.10938
Q31.1562 6.10938 34.5625 8.28125
Q37.9844 10.4531 37.9844 14.4062
Q37.9844 18.0625 35.5156 20.0156
Q33.0625 21.9688 24.7031 23.7812
L21.5781 24.5156
Q13.2344 26.2656 9.51562 29.9062
Q5.8125 33.5469 5.8125 39.8906
Q5.8125 47.6094 11.2812 51.7969
Q16.75 56 26.8125 56
Q31.7812 56 36.1719 55.2656
Q40.5781 54.5469 44.2812 53.0781" id="DejaVuSans-73"/>
    </defs>
    <g transform="translate(385.374375 59.8)scale(0.12 -0.12)">
     <use xlink:href="#DejaVuSans-44"/>
     <use x="77.001953125" xlink:href="#DejaVuSans-65"/>
     <use x="138.525390625" xlink:href="#DejaVuSans-67"/>
     <use x="202.001953125" xlink:href="#DejaVuSans-72"/>
     <use x="240.865234375" xlink:href="#DejaVuSans-65"/>
     <use x="302.388671875" xlink:href="#DejaVuSans-65"/>
     <use x="363.912109375" xlink:href="#DejaVuSans-20"/>
     <use x="395.69921875" xlink:href="#DejaVuSans-64"/>
     <use x="459.17578125" xlink:href="#DejaVuSans-69"/>
     <use x="486.958984375" xlink:href="#DejaVuSans-73"/>
     <use x="539.05859375" xlink:href="#DejaVuSans-74"/>
     <use x="578.267578125" xlink:href="#DejaVuSans-72"/>
     <use x="619.380859375" xlink:href="#DejaVuSans-69"/>
     <use x="647.1640625" xlink:href="#DejaVuSans-62"/>
     <use x="710.640625" xlink:href="#DejaVuSans-75"/>
     <use x="774.01953125" xlink:href="#DejaVuSans-74"/>
     <use x="813.228515625" xlink:href="#DejaVuSans-69"/>
     <use x="841.01171875" xlink:href="#DejaVuSans-6f"/>
     <use x="902.193359375" xlink:href="#DejaVuSans-6e"/>
    </g>
   </g>
   <g id="legend_1">
    <g id="line2d_132">
     <path d="
M680.534 81.4
L697.334 81.4" style="fill:none;stroke:#808080;stroke-dasharray:6.000000,6.000000;stroke-dashoffset:0.0;"/>
    </g>
    <g id="line2d_133"/>
    <g id="text_13">
     <!-- pow=-3 -->
     <defs>
      <path d="
M4.20312 54.6875
L13.1875 54.6875
L24.4219 12.0156
L35.5938 54.6875
L46.1875 54.6875
L57.4219 12.0156
L68.6094 54.6875
L77.5938 54.6875
L63.2812 0
L52.6875 0
L40.9219 44.8281
L29.1094 0
L18.5 0
z
" id="DejaVuSans-77"/>
      <path d="
M18.1094 8.20312
L18.1094 -20.7969
L9.07812 -20.7969
L9.07812 54.6875
L18.1094 54.6875
L18.1094 46.3906
Q20.9531 51.2656 25.2656 53.625
Q29.5938 56 35.5938 56
Q45.5625 56 51.7812 48.0938
Q58.0156 40.1875 58.0156 27.2969
Q58.0156 14.4062 51.7812 6.48438
Q45.5625 -1.42188 35.5938 -1.42188
Q29.5938 -1.42188 25.2656 0.953125
Q20.9531 3.32812 18.1094 8.20312
M48.6875 27.2969
Q48.6875 37.2031 44.6094 42.8438
Q40.5312 48.4844 33.4062 48.4844
Q26.2656 48.4844 22.1875 42.8438
Q18.1094 37.2031 18.1094 27.2969
Q18.1094 17.3906 22.1875 11.75
Q26.2656 6.10938 33.4062 6.10938
Q40.5312 6.10938 44.6094 11.75
Q48.6875 17.3906 48.6875 27.2969" id="DejaVuSans-70"/>
      <path d="
M4.89062 31.3906
L31.2031 31.3906
L31.2031 23.3906
L4.89062 23.3906
z
" id="DejaVuSans-2d"/>
      <path d="
M10.5938 45.4062
L73.1875 45.4062
L73.1875 37.2031
L10.5938 37.2031
z

M10.5938 25.4844
L73.1875 25.4844
L73.1875 17.1875
L10.5938 17.1875
z
" id="DejaVuSans-3d"/>
     </defs>
     <g transform="translate(710.534375 85.6)scale(0.12 -0.12)">
      <use xlink:href="#DejaVuSans-70"/>
      <use x="63.4765625" xlink:href="#DejaVuSans-6f"/>
      <use x="124.658203125" xlink:href="#DejaVuSans-77"/>
      <use x="206.4453125" xlink:href="#DejaVuSans-3d"/>
      <use x="290.234375" xlink:href="#DejaVuSans-2d"/>
      <use x="326.318359375" xlink:href="#DejaVuSans-33"/>
     </g>
    </g>
    <g id="patch_12">
     <path d="
M676.934 104.6
L700.934 104.6
L700.934 96.2
L676.934 96.2
z
" style="fill:none;stroke:#4d4d4d;stroke-linejoin:miter;"/>
    </g>
    <g id="text_14">
     <!-- aggregati -->
     <defs>
      <path d="
M34.2812 27.4844
Q23.3906 27.4844 19.1875 25
Q14.9844 22.5156 14.9844 16.5
Q14.9844 11.7188 18.1406 8.90625
Q21.2969 6.10938 26.7031 6.10938
Q34.1875 6.10938 38.7031 11.4062
Q43.2188 16.7031 43.2188 25.4844
L43.2188 27.4844
z

M52.2031 31.2031
L52.2031 0
L43.2188 0
L43.2188 8.29688
Q40.1406 3.32812 35.5469 0.953125
Q30.9531 -1.42188 24.3125 -1.42188
Q15.9219 -1.42188 10.9531 3.29688
Q6 8.01562 6 15.9219
Q6 25.1406 12.1719 29.8281
Q18.3594 34.5156 30.6094 34.5156
L43.2188 34.5156
L43.2188 35.4062
Q43.2188 41.6094 39.1406 45
Q35.0625 48.3906 27.6875 48.3906
Q23 48.3906 18.5469 47.2656
Q14.1094 46.1406 10.0156 43.8906
L10.0156 52.2031
Q14.9375 54.1094 19.5781 55.0469
Q24.2188 56 28.6094 56
Q40.4844 56 46.3438 49.8438
Q52.2031 43.7031 52.2031 31.2031" id="DejaVuSans-61"/>
     </defs>
     <g transform="translate(710.534375 104.6)scale(0.12 -0.12)">
      <use xlink:href="#DejaVuSans-61"/>
      <use x="61.279296875" xlink:href="#DejaVuSans-67"/>
      <use x="124.755859375" xlink:href="#DejaVuSans-67"/>
      <use x="188.232421875" xlink:href="#DejaVuSans-72"/>
      <use x="227.095703125" xlink:href="#DejaVuSans-65"/>
      <use x="288.619140625" xlink:href="#DejaVuSans-67"/>
      <use x="352.095703125" xlink:href="#DejaVuSans-61"/>
      <use x="413.375" xlink:href="#DejaVuSans-74"/>
      <use x="452.583984375" xlink:href="#DejaVuSans-69"/>
     </g>
    </g>
    <g id="patch_13">
     <path d="
M676.934 123.6
L700.934 123.6
L700.934 115.2
L676.934 115.2
z
" style="fill:none;stroke:#99ccff;stroke-linejoin:miter;"/>
    </g>
    <g id="text_15">
     <!-- Tre -->
     <defs>
      <path d="
M-0.296875 72.9062
L61.375 72.9062
L61.375 64.5938
L35.5 64.5938
L35.5 0
L25.5938 0
L25.5938 64.5938
L-0.296875 64.5938
z
" id="DejaVuSans-54"/>
     </defs>
     <g transform="translate(710.534375 123.6)scale(0.12 -0.12)">
      <use xlink:href="#DejaVuSans-54"/>
      <use x="46.333984375" xlink:href="#DejaVuSans-72"/>
      <use x="85.197265625" xlink:href="#DejaVuSans-65"/>
     </g>
    </g>
    <g id="patch_14">
     <path d="
M676.934 142.6
L700.934 142.6
L700.934 134.2
L676.934 134.2
z
" style="fill:none;stroke:#ff3300;stroke-linejoin:miter;"/>
    </g>
    <g id="text_16">
     <!-- Vodafone -->
     <defs>
      <path d="
M37.1094 75.9844
L37.1094 68.5
L28.5156 68.5
Q23.6875 68.5 21.7969 66.5469
Q19.9219 64.5938 19.9219 59.5156
L19.9219 54.6875
L34.7188 54.6875
L34.7188 47.7031
L19.9219 47.7031
L19.9219 0
L10.8906 0
L10.8906 47.7031
L2.29688 47.7031
L2.29688 54.6875
L10.8906 54.6875
L10.8906 58.5
Q10.8906 67.625 15.1406 71.7969
Q19.3906 75.9844 28.6094 75.9844
z
" id="DejaVuSans-66"/>
      <path d="
M28.6094 0
L0.78125 72.9062
L11.0781 72.9062
L34.1875 11.5312
L57.3281 72.9062
L67.5781 72.9062
L39.7969 0
z
" id="DejaVuSans-56"/>
     </defs>
     <g transform="translate(710.534375 142.6)scale(0.12 -0.12)">
      <use xlink:href="#DejaVuSans-56"/>
      <use x="60.658203125" xlink:href="#DejaVuSans-6f"/>
      <use x="121.83984375" xlink:href="#DejaVuSans-64"/>
      <use x="185.31640625" xlink:href="#DejaVuSans-61"/>
      <use x="246.595703125" xlink:href="#DejaVuSans-66"/>
      <use x="281.80078125" xlink:href="#DejaVuSans-6f"/>
      <use x="342.982421875" xlink:href="#DejaVuSans-6e"/>
      <use x="406.361328125" xlink:href="#DejaVuSans-65"/>
     </g>
    </g>
    <g id="patch_15">
     <path d="
M676.934 161.6
L700.934 161.6
L700.934 153.2
L676.934 153.2
z
" style="fill:none;stroke:#ff8000;stroke-linejoin:miter;"/>
    </g>
    <g id="text_17">
     <!-- Wind -->
     <defs>
      <path d="
M3.32812 72.9062
L13.2812 72.9062
L28.6094 11.2812
L43.8906 72.9062
L54.9844 72.9062
L70.3125 11.2812
L85.5938 72.9062
L95.6094 72.9062
L77.2969 0
L64.8906 0
L49.5156 63.2812
L33.9844 0
L21.5781 0
z
" id="DejaVuSans-57"/>
     </defs>
     <g transform="translate(710.534375 161.6)scale(0.12 -0.12)">
      <use xlink:href="#DejaVuSans-57"/>
      <use x="96.626953125" xlink:href="#DejaVuSans-69"/>
      <use x="124.41015625" xlink:href="#DejaVuSans-6e"/>
      <use x="187.7890625" xlink:href="#DejaVuSans-64"/>
     </g>
    </g>
    <g id="patch_16">
     <path d="
M676.934 180.6
L700.934 180.6
L700.934 172.2
L676.934 172.2
z
" style="fill:none;stroke:#0066ff;stroke-linejoin:miter;"/>
    </g>
    <g id="text_18">
     <!-- Tim -->
     <defs>
      <path d="
M52 44.1875
Q55.375 50.25 60.0625 53.125
Q64.75 56 71.0938 56
Q79.6406 56 84.2812 50.0156
Q88.9219 44.0469 88.9219 33.0156
L88.9219 0
L79.8906 0
L79.8906 32.7188
Q79.8906 40.5781 77.0938 44.375
Q74.3125 48.1875 68.6094 48.1875
Q61.625 48.1875 57.5625 43.5469
Q53.5156 38.9219 53.5156 30.9062
L53.5156 0
L44.4844 0
L44.4844 32.7188
Q44.4844 40.625 41.7031 44.4062
Q38.9219 48.1875 33.1094 48.1875
Q26.2188 48.1875 22.1562 43.5312
Q18.1094 38.875 18.1094 30.9062
L18.1094 0
L9.07812 0
L9.07812 54.6875
L18.1094 54.6875
L18.1094 46.1875
Q21.1875 51.2188 25.4844 53.6094
Q29.7812 56 35.6875 56
Q41.6562 56 45.8281 52.9688
Q50 49.9531 52 44.1875" id="DejaVuSans-6d"/>
     </defs>
     <g transform="translate(710.534375 180.6)scale(0.12 -0.12)">
      <use xlink:href="#DejaVuSans-54"/>
      <use x="57.958984375" xlink:href="#DejaVuSans-69"/>
      <use x="85.7421875" xlink:href="#DejaVuSans-6d"/>
     </g>
    </g>
   </g>
  </g>
 </g>
 <defs>
  <clipPath id="p82c8045bb0">
   <rect height="502.2" width="669.6" x="108.0" y="64.8"/>
  </clipPath>
 </defs>
</svg>
